<?xml version="1.0" encoding="UTF-8"?>
<svg version="1.1" xmlns="http://www.w3.org/2000/svg" width="250" height="250">
<path d="M0 0 C82.5 0 165 0 250 0 C250 82.5 250 165 250 250 C167.5 250 85 250 0 250 C0 167.5 0 85 0 0 Z " fill="#1A0A2D" transform="translate(0,0)"/>
<path d="M0 0 C13.89208238 -0.37736859 27.78334727 -0.65655325 41.67954063 -0.82899475 C48.13535925 -0.91184231 54.58769164 -1.02382732 61.04150391 -1.20703125 C115.04291284 -2.70031994 115.04291284 -2.70031994 133.77578735 14.07043457 C137.12918976 16.97960306 140.83428411 19.21265318 144.625 21.5 C146.41851165 22.66382838 148.21110544 23.82908719 150 25 C149.125 28.875 149.125 28.875 148 30 C146.62689758 30.12130405 145.24774288 30.17503392 143.86953735 30.20100403 C142.53294823 30.2290789 142.53294823 30.2290789 141.1693573 30.25772095 C140.18357193 30.27297821 139.19778656 30.28823547 138.18212891 30.30395508 C137.14936325 30.32337662 136.1165976 30.34279816 135.05253601 30.36280823 C125.45805875 30.53241845 115.86242965 30.62853235 106.2667942 30.70387745 C99.82618997 30.7550607 93.38775619 30.82903379 86.94824219 30.96020508 C80.71576882 31.08666115 74.48524563 31.15239619 68.25156784 31.17746544 C65.88899672 31.19693616 63.52649145 31.23703403 61.16466141 31.29932594 C45.04833876 31.70416483 34.74564141 29.3851802 21.88941383 19.43043327 C19.21962089 17.4091923 16.42070704 15.70767146 13.55078125 13.984375 C12.66455078 13.43652344 11.77832031 12.88867188 10.86523438 12.32421875 C10.02283203 11.80472656 9.18042969 11.28523437 8.3125 10.75 C7.39662109 10.18410156 6.48074219 9.61820313 5.53710938 9.03515625 C3.35858942 7.68926434 1.17956861 6.34419274 -1 5 C-0.67 3.35 -0.34 1.7 0 0 Z " fill="#E1DFE4" transform="translate(54,158)"/>
<path d="M0 0 C0.89105942 -0.01871658 1.78211884 -0.03743317 2.70018005 -0.05671692 C3.68596542 -0.07197418 4.67175079 -0.08723145 5.68740845 -0.10295105 C6.7201741 -0.12237259 7.75293976 -0.14179413 8.81700134 -0.1618042 C18.41147861 -0.33141442 28.00710771 -0.42752832 37.60274315 -0.50287342 C44.04334738 -0.55405667 50.48178116 -0.62802976 56.92129517 -0.75920105 C63.15376853 -0.88565712 69.38429173 -0.95139216 75.61796951 -0.97646141 C77.98054064 -0.99593214 80.34304591 -1.03603 82.70487595 -1.09832191 C98.82119859 -1.5031608 109.12389594 0.81582383 121.98012352 10.77057076 C124.64991647 12.79181173 127.44883031 14.49333257 130.3187561 16.21662903 C131.20498657 16.76448059 132.09121704 17.31233215 133.00430298 17.87678528 C134.26790649 18.65602356 134.26790649 18.65602356 135.55703735 19.45100403 C136.47291626 20.01690247 137.38879517 20.5828009 138.33242798 21.16584778 C140.51094794 22.51173969 142.68996874 23.85681128 144.86953735 25.20100403 C144.53953735 26.85100403 144.20953735 28.50100403 143.86953735 30.20100403 C129.97745497 30.57837261 116.08619009 30.85755728 102.18999672 31.02999878 C95.7341781 31.11284634 89.28184571 31.22483135 82.82803345 31.40803528 C28.82662451 32.90132397 28.82662451 32.90132397 10.09375 16.13056946 C6.74034759 13.22140096 3.03525324 10.98835085 -0.75546265 8.70100403 C-2.5489743 7.53717564 -4.34156808 6.37191683 -6.13046265 5.20100403 C-5.10209818 0.64681851 -4.68442721 0.08827065 0 0 Z " fill="#FCFCFC" transform="translate(52.130462646484375,61.79899597167969)"/>
<path d="M0 0 C6.90542828 4.6740375 12.14918542 10.08483411 14.625 18.1875 C15.807054 28.58957522 14.40675814 35.8628337 7.8125 44.1875 C1.59828105 50.74258329 -4.6156679 53.21980268 -13.625 53.5625 C-22.96414762 53.19607469 -28.03598601 50.29738153 -34.4375 43.6875 C-39.96132439 37.01929765 -41.74986614 30.32464316 -41.47265625 21.70703125 C-40.1182217 12.56137318 -34.39695448 6.15747925 -27.3984375 0.62109375 C-20.03011215 -4.03685642 -7.63343985 -3.96099456 0 0 Z " fill="#F99601" transform="translate(141.0625,100.0625)"/>
<path d="M0 0 C12.15345526 -0.30348303 24.30598506 -0.53332625 36.4624815 -0.67355824 C42.1097474 -0.74092366 47.75439014 -0.83201833 53.40014648 -0.98071289 C100.82576693 -2.19769156 100.82576693 -2.19769156 115.33071899 11.46817017 C116.96687019 12.96959815 118.62046332 14.15943047 120.48706055 15.35620117 C121.31633057 15.89865479 122.14560059 16.4411084 123 17 C123 17.33 123 17.66 123 18 C110.81189607 18.2798617 98.62457436 18.49216712 86.43389416 18.62174606 C80.77108788 18.68398643 75.11050275 18.76818894 69.44897461 18.90527344 C63.96981308 19.03708947 58.49276673 19.10770132 53.01214027 19.13852692 C50.93698177 19.16044955 48.8619198 19.20325286 46.78767967 19.26876068 C31.598398 19.72873304 22.2206929 16.69403636 10.07312965 7.51480865 C7.30147248 5.4895951 4.39626128 3.72762776 1.44865704 1.97205734 C0.7315718 1.49088896 0.7315718 1.49088896 0 1 C0 0.67 0 0.34 0 0 Z " fill="#1A0A2D" transform="translate(67,164)"/>
<path d="M0 0 C12.18810393 -0.2798617 24.37542564 -0.49216712 36.56610584 -0.62174606 C42.22891212 -0.68398643 47.88949725 -0.76818894 53.55102539 -0.90527344 C59.03018692 -1.03708947 64.50723327 -1.10770132 69.98785973 -1.13852692 C72.06301823 -1.16044955 74.1380802 -1.20325286 76.21232033 -1.26876068 C91.401602 -1.72873304 100.7793071 1.30596364 112.92687035 10.48519135 C115.69852752 12.5104049 118.60373872 14.27237224 121.55134296 16.02794266 C122.2684282 16.50911104 122.2684282 16.50911104 123 17 C123 17.33 123 17.66 123 18 C110.84654474 18.30348303 98.69401494 18.53332625 86.5375185 18.67355824 C80.8902526 18.74092366 75.24560986 18.83201833 69.59985352 18.98071289 C22.17423307 20.19769156 22.17423307 20.19769156 7.66928101 6.53182983 C6.03312981 5.03040185 4.37953668 3.84056953 2.51293945 2.64379883 C1.68366943 2.10134521 0.85439941 1.5588916 0 1 C0 0.67 0 0.34 0 0 Z " fill="#1A0A2D" transform="translate(60,68)"/>
<path d="M0 0 C1.32 0 2.64 0 4 0 C4 1.98 4 3.96 4 6 C5.32 6 6.64 6 8 6 C8 4.02 8 2.04 8 0 C9.65 0 11.3 0 13 0 C13 1.98 13 3.96 13 6 C14.670625 6.4021875 14.670625 6.4021875 16.375 6.8125 C20 8 20 8 22 11 C21.8125 14.5625 21.8125 14.5625 21 18 C20.01 18.66 19.02 19.32 18 20 C18.825 20.680625 19.65 21.36125 20.5 22.0625 C23 25 23 25 23.5625 28.5625 C23 32 23 32 21.375 34.375 C18.56154387 36.2999963 16.3666837 36.69393785 13 37 C13 38.98 13 40.96 13 43 C11.68 43 10.36 43 9 43 C9 41.02 9 39.04 9 37 C7.68 37 6.36 37 5 37 C5 38.98 5 40.96 5 43 C3.35 43 1.7 43 0 43 C0 41.02 0 39.04 0 37 C-2.31 37 -4.62 37 -7 37 C-7 36.01 -7 35.02 -7 34 C-5.35 34 -3.7 34 -2 34 C-2 26.08 -2 18.16 -2 10 C-3.65 10 -5.3 10 -7 10 C-7 8.68 -7 7.36 -7 6 C-4.69 6 -2.38 6 0 6 C0 4.02 0 2.04 0 0 Z " fill="#26112A" transform="translate(120,104)"/>
<path d="M0 0 C13.89208238 -0.37736859 27.78334727 -0.65655325 41.67954063 -0.82899475 C48.13535925 -0.91184231 54.58769164 -1.02382732 61.04150391 -1.20703125 C115.0802185 -2.70146383 115.0802185 -2.70146383 133.8147583 14.10351562 C136.97715646 16.84803523 140.39562518 18.88229301 144 21 C142.1875 21.625 142.1875 21.625 140 22 C139.01 21.34 138.02 20.68 137 20 C136.43990234 20.38244873 135.87980469 20.76489746 135.30273438 21.15893555 C133 22 133 22 130.68164062 21.08129883 C129.43157227 20.27728638 129.43157227 20.27728638 128.15625 19.45703125 C127.23972656 18.87759766 126.32320313 18.29816406 125.37890625 17.70117188 C124.42886719 17.07791016 123.47882813 16.45464844 122.5 15.8125 C121.07494141 14.90661133 121.07494141 14.90661133 119.62109375 13.98242188 C112.30722756 9.30710235 112.30722756 9.30710235 110.42753601 7.42817688 C106.69217781 5.23057726 103.10037559 5.56881873 98.84106445 5.58349609 C97.91549744 5.57491074 96.98993042 5.56632538 96.03631592 5.55747986 C92.97856056 5.53239514 89.92113013 5.52803936 86.86328125 5.5234375 C84.7414602 5.50913199 82.61964848 5.49337579 80.49784851 5.47622681 C74.91366423 5.43434764 69.32953776 5.40936529 63.74523926 5.38873291 C54.79553367 5.352929 45.84597048 5.29209582 36.8964138 5.23024368 C33.76259272 5.21108612 30.62880976 5.19940504 27.49494934 5.18881226 C25.58688268 5.17860604 23.67881683 5.16824862 21.77075195 5.15771484 C20.89231125 5.15667252 20.01387054 5.15563019 19.10881042 5.15455627 C13.1134275 5.1134275 13.1134275 5.1134275 12 4 C10.14712498 3.92773498 8.29166122 3.9161878 6.4375 3.9375 C5.42558594 3.94652344 4.41367187 3.95554688 3.37109375 3.96484375 C2.58863281 3.97644531 1.80617187 3.98804688 1 4 C0.67 2.68 0.34 1.36 0 0 Z " fill="#F6F6F7" transform="translate(54,158)"/>
<path d="M0 0 C0.89243408 -0.02009125 1.78486816 -0.0401825 2.7043457 -0.06088257 C3.6865358 -0.07254456 4.66872589 -0.08420654 5.68067932 -0.09622192 C6.713591 -0.11578949 7.74650269 -0.13535706 8.81071472 -0.15551758 C12.24721624 -0.2155802 15.68355901 -0.25826897 19.12037659 -0.29592896 C20.29737688 -0.30907261 21.47437717 -0.32221626 22.68704414 -0.33575821 C28.93340874 -0.40105495 35.17970424 -0.44989746 41.42628479 -0.48880005 C46.57054629 -0.5242342 51.71257474 -0.59353282 56.85597229 -0.69387817 C63.08317336 -0.81522023 69.30832667 -0.87588099 75.53665352 -0.89514542 C77.89640673 -0.91212295 80.25611513 -0.94943078 82.61518669 -1.00863266 C98.68429099 -1.38973134 108.93573392 0.93402937 121.75888252 10.83181381 C124.84574461 13.14175641 128.12708794 15.1009573 131.43678284 17.07125854 C132.47190002 17.70547729 133.50701721 18.33969604 134.57350159 18.99313354 C135.2915094 19.43141479 136.00951721 19.86969604 136.74928284 20.32125854 C132.98388293 22.83152515 132.32397314 22.32125854 127.74928284 22.32125854 C125.19972229 21.05197144 125.19972229 21.05197144 122.36256409 19.29391479 C120.83212463 18.35322144 120.83212463 18.35322144 119.27076721 17.39352417 C118.21180237 16.73030151 117.15283752 16.06707886 116.06178284 15.38375854 C114.99121643 14.72440308 113.92065002 14.06504761 112.81764221 13.38571167 C104.94860541 8.52058112 104.94860541 8.52058112 103.74928284 7.32125854 C100.73578046 7.22596243 97.74524178 7.19573951 94.73146057 7.20773315 C93.7852182 7.20758713 92.83897583 7.2074411 91.86405945 7.20729065 C88.72030892 7.20799018 85.57661683 7.21578446 82.43287659 7.22360229 C80.25954216 7.22546633 78.08620731 7.2268903 75.91287231 7.22789001 C70.18027088 7.23171633 64.44769461 7.24154758 58.71510315 7.25259399 C52.87038005 7.26280568 47.0256529 7.26738711 41.18092346 7.27243042 C29.70369884 7.28316975 18.22649293 7.30024752 6.74928284 7.32125854 C6.74928284 6.66125854 6.74928284 6.00125854 6.74928284 5.32125854 C38.75928284 5.32125854 70.76928284 5.32125854 103.74928284 5.32125854 C103.74928284 4.66125854 103.74928284 4.00125854 103.74928284 3.32125854 C68.10928284 3.32125854 32.46928284 3.32125854 -4.25071716 3.32125854 C-4.58071716 4.31125854 -4.91071716 5.30125854 -5.25071716 6.32125854 C-5.87571716 4.44625854 -5.87571716 4.44625854 -6.25071716 2.32125854 C-3.84950421 -0.07995441 -3.28085692 0.05800507 0 0 Z " fill="#F8F7F8" transform="translate(52.25071716308594,61.678741455078125)"/>
<path d="M0 0 C35.64 0 71.28 0 108 0 C108 0.66 108 1.32 108 2 C75.99 2 43.98 2 11 2 C11 2.66 11 3.32 11 4 C12.175625 4.4640625 12.175625 4.4640625 13.375 4.9375 C16 6 16 6 18 7 C18 7.66 18 8.32 18 9 C17.34 9 16.68 9 16 9 C15.01 10.485 15.01 10.485 14 12 C11.84436269 10.76478085 9.70159266 9.51329661 7.5625 8.25 C6.95083984 7.90195313 6.33917969 7.55390625 5.70898438 7.1953125 C3.94140625 6.140625 3.94140625 6.140625 1 4 C0.67 2.68 0.34 1.36 0 0 Z " fill="#FBFBFC" transform="translate(48,65)"/>
<path d="M0 0 C0.99 0.33 1.98 0.66 3 1 C5.97724145 1.07120905 8.9296528 1.08416505 11.90600586 1.05004883 C12.8168544 1.04376968 13.72770294 1.03749054 14.66615295 1.03102112 C16.64523223 1.01716467 18.62429777 1.0012276 20.60334587 0.98346901 C23.73414294 0.95686727 26.86486975 0.93897539 29.9957428 0.92399597 C38.89792633 0.8812023 47.7999699 0.83347001 56.7019043 0.75317383 C62.145338 0.70470793 67.58857669 0.67567182 73.03219795 0.65942955 C75.10829966 0.64951643 77.18437963 0.63228295 79.26035881 0.60764503 C82.16201547 0.57397215 85.06277212 0.56501786 87.96459961 0.56176758 C88.82447479 0.54581543 89.68434998 0.52986328 90.57028198 0.51342773 C96.4223553 0.54337541 96.4223553 0.54337541 99.56471252 3.02738953 C100.03835739 3.67835098 100.51200226 4.32931244 101 5 C88.56960837 5.11582432 76.139345 5.20468044 63.70852375 5.25906086 C57.93642944 5.28516017 52.16470417 5.32056517 46.39282227 5.37719727 C40.82313088 5.43150385 35.25379457 5.46141801 29.68385887 5.47438622 C27.55833534 5.48362843 25.43283135 5.50167637 23.30745888 5.52865028 C20.33125362 5.56492194 17.3565175 5.56994605 14.38012695 5.56762695 C13.06058517 5.59459152 13.06058517 5.59459152 11.71438599 5.62210083 C7.17673286 5.58381514 5.55168743 5.45323192 1.91374207 2.46452332 C1.28220718 1.65123062 0.6506723 0.83793793 0 0 Z " fill="#251638" transform="translate(89,177)"/>
<path d="M0 0 C12.46499754 -0.06942929 24.92994927 -0.12277531 37.39510059 -0.15543652 C43.18282195 -0.17111015 48.97041128 -0.1923795 54.75805664 -0.22631836 C60.34068288 -0.2588511 65.92318192 -0.27684021 71.50589561 -0.28463173 C73.63861787 -0.29018618 75.77133296 -0.30103229 77.90400124 -0.31719017 C80.88512997 -0.33888342 83.86572921 -0.34197031 86.84692383 -0.34057617 C87.7338089 -0.351362 88.62069397 -0.36214783 89.53445435 -0.3732605 C90.75227852 -0.36707451 90.75227852 -0.36707451 91.9947052 -0.36076355 C92.69987683 -0.36352893 93.40504847 -0.36629431 94.13158894 -0.36914349 C96.53693571 0.10608282 97.44377015 1.16010864 99 3 C95.78191505 4.60904248 92.27606531 4.12016766 88.74243164 4.09765625 C87.88864426 4.09619598 87.03485687 4.09473572 86.15519714 4.0932312 C84.2977904 4.08942013 82.44038731 4.08329826 80.58299446 4.07516479 C77.64577128 4.06243767 74.70859307 4.05589487 71.77134705 4.05102539 C64.47516568 4.03762992 57.17902698 4.01343333 49.88287354 3.98962402 C43.7215086 3.96992361 37.56015948 3.95426933 31.39877129 3.94406128 C28.50101267 3.93756358 25.60331878 3.92505444 22.70558167 3.91235352 C20.93270932 3.90872156 19.15983637 3.90536975 17.38696289 3.90234375 C16.57802582 3.89717743 15.76908875 3.89201111 14.93563843 3.88668823 C11.69059745 3.8863798 9.10150589 3.9661647 6 5 C2.8125 3.125 2.8125 3.125 0 1 C0 0.67 0 0.34 0 0 Z " fill="#261738" transform="translate(60,68)"/>
<path d="M0 0 C3.92684538 -0.28053972 5.76029852 0.14059432 8.83332825 2.58380127 C21.65765485 12.11712148 31.36365185 13.6626717 47.07421875 13.171875 C49.22177833 13.14942526 51.36940041 13.13237608 53.51704407 13.12042236 C59.1032113 13.07513536 64.68548674 12.95775083 70.2701416 12.82397461 C75.99531428 12.70004338 81.72113125 12.64616463 87.44726562 12.5859375 C98.63319766 12.45818464 109.81627225 12.2540567 121 12 C121 12.66 121 13.32 121 14 C89.32 14 57.64 14 25 14 C25 14.66 25 15.32 25 16 C24.34 16 23.68 16 23 16 C23 16.66 23 17.32 23 18 C17.87055437 16.21357393 13.33574394 13.45003172 8.6875 10.6875 C7.85154297 10.21376953 7.01558594 9.74003906 6.15429688 9.25195312 C5.36474609 8.78080078 4.57519531 8.30964844 3.76171875 7.82421875 C3.03944092 7.40229248 2.31716309 6.98036621 1.57299805 6.5456543 C0 5 0 5 -0.23510742 2.32348633 C-0.11872925 1.1733606 -0.11872925 1.1733606 0 0 Z " fill="#D5D2D9" transform="translate(63,73)"/>
<path d="M0 0 C2.4375 0.75 2.4375 0.75 5 2 C5.875 4.0625 5.875 4.0625 6 6 C5 7 5 7 3.19027615 7.12304783 C2.3947688 7.12212604 1.59926146 7.12120424 0.77964783 7.12025452 C-0.13045547 7.12162918 -1.04055878 7.12300385 -1.97824097 7.12442017 C-2.98452545 7.12082489 -3.99080994 7.11722961 -5.02758789 7.11352539 C-6.08111954 7.11367142 -7.13465118 7.11381744 -8.22010803 7.1139679 C-11.720978 7.11326826 -15.22179552 7.10547348 -18.72265625 7.09765625 C-21.14261343 7.09579225 -23.56257099 7.09436826 -25.98252869 7.09336853 C-32.36615024 7.08954192 -38.74974921 7.07971041 -45.13336182 7.06866455 C-51.64163914 7.05845351 -58.1499201 7.05387157 -64.65820312 7.04882812 C-77.43881175 7.03808827 -90.21940467 7.02120112 -103 7 C-103.33 6.34 -103.66 5.68 -104 5 C-69.02 4.67 -34.04 4.34 2 4 C1.01 2.02 1.01 2.02 0 0 Z " fill="#FAFAFA" transform="translate(198,180)"/>
<path d="M0 0 C1.20293984 0.00276538 1.20293984 0.00276538 2.4301815 0.00558662 C3.81001968 0.00146263 3.81001968 0.00146263 5.21773338 -0.00274467 C6.22977333 0.00444588 7.24181328 0.01163643 8.2845211 0.01904488 C9.34795235 0.01875282 10.41138359 0.01846077 11.50704002 0.01815987 C15.03499978 0.01955731 18.56275041 0.03513809 22.09067345 0.05078316 C24.53162076 0.05451181 26.97256956 0.05735948 29.41351891 0.0593586 C35.84812085 0.06700667 42.28263296 0.08666525 48.71719933 0.10876656 C55.27917834 0.12919972 61.84117182 0.13835489 68.40317345 0.14843941 C81.28602434 0.16991002 94.16881287 0.2036774 107.05161095 0.24609566 C106.72161095 1.23609566 106.39161095 2.22609566 106.05161095 3.24609566 C70.41161095 3.24609566 34.77161095 3.24609566 -1.94838905 3.24609566 C-2.27838905 4.23609566 -2.60838905 5.22609566 -2.94838905 6.24609566 C-3.57338905 4.37109566 -3.57338905 4.37109566 -3.94838905 2.24609566 C-1.94838905 0.24609566 -1.94838905 0.24609566 0 0 Z " fill="#C4BFC8" transform="translate(49.94838905334473,61.75390434265137)"/>
<path d="M0 0 C0 0.66 0 1.32 0 2 C-36.3 2 -72.6 2 -110 2 C-110 1.34 -110 0.68 -110 0 C-95.95315155 -0.153836 -81.90625188 -0.30180339 -67.8592701 -0.4429636 C-61.33730036 -0.50867644 -54.81536171 -0.57629129 -48.29345703 -0.64819336 C-42.00414814 -0.71746214 -35.7148067 -0.78181261 -29.42541122 -0.84269524 C-27.02112869 -0.86684479 -24.61686355 -0.89279242 -22.21261978 -0.92053413 C-18.85547864 -0.95896938 -15.49833356 -0.99111703 -12.14111328 -1.02172852 C-10.63707947 -1.04114754 -10.63707947 -1.04114754 -9.10266113 -1.06095886 C-8.19118317 -1.06799835 -7.2797052 -1.07503784 -6.34060669 -1.08229065 C-5.54602114 -1.09058679 -4.75143559 -1.09888292 -3.93277168 -1.10743046 C-2 -1 -2 -1 0 0 Z " fill="#EEEDF0" transform="translate(196,90)"/>
<path d="M0 0 C2 3 2 3 1.8125 6.5625 C1 10 1 10 -2 12 C-1.175 12.680625 -0.35 13.36125 0.5 14.0625 C3 17 3 17 3.5625 20.5625 C3 24 3 24 1.375 26.4375 C-1.602598 28.39644605 -3.50355037 28.31785906 -7 28 C-7 27.01 -7 26.02 -7 25 C-6.50886719 24.55011719 -6.01773438 24.10023438 -5.51171875 23.63671875 C-3.40715151 21.35813044 -3.69395035 19.85527438 -3.8125 16.8125 C-3.85310547 15.46091797 -3.85310547 15.46091797 -3.89453125 14.08203125 C-3.94673828 13.05142578 -3.94673828 13.05142578 -4 12 C-4.66 12 -5.32 12 -6 12 C-6.33 12.66 -6.66 13.32 -7 14 C-9.97 14 -12.94 14 -16 14 C-16 13.34 -16 12.68 -16 12 C-15.36191406 11.86722656 -14.72382812 11.73445313 -14.06640625 11.59765625 C-13.24011719 11.42105469 -12.41382812 11.24445313 -11.5625 11.0625 C-10.73878906 10.88847656 -9.91507813 10.71445313 -9.06640625 10.53515625 C-7.02338796 10.19247006 -7.02338796 10.19247006 -6 9 C-5.70643846 5.37940768 -6.14935681 3.12296038 -8 0 C-4.71303767 -0.79953138 -3.28976808 -1.09658936 0 0 Z " fill="#200E2B" transform="translate(140,112)"/>
<path d="M0 0 C1.485 0.99 1.485 0.99 3 2 C5.48311377 2.20423863 5.48311377 2.20423863 8.125 2.0625 C9.74923144 2.00835895 11.37499432 1.97961462 13 2 C13.33 2.33 13.66 2.66 14 3 C16.9517038 3.12531154 19.88113522 3.1861113 22.83422852 3.20532227 C24.22433136 3.22017166 24.22433136 3.22017166 25.64251709 3.23532104 C28.72128704 3.26703701 31.80007245 3.2917332 34.87890625 3.31640625 C37.00740471 3.33696707 39.13589901 3.3579633 41.26438904 3.37937927 C46.87857704 3.43469004 52.49280243 3.48405947 58.10705566 3.53222656 C63.8311701 3.58237601 69.55522993 3.63809622 75.27929688 3.69335938 C86.51948466 3.80105102 97.75971976 3.90247138 109 4 C109 4.33 109 4.66 109 5 C62.965 5.495 62.965 5.495 16 6 C16.33 6.66 16.66 7.32 17 8 C16.67 8.66 16.34 9.32 16 10 C16.99 10.33 17.98 10.66 19 11 C19 11.33 19 11.66 19 12 C13.73748956 12.47986417 10.45730815 11.0140518 6.125 8.25 C5.53203125 7.90195313 4.9390625 7.55390625 4.328125 7.1953125 C2.6328125 6.140625 2.6328125 6.140625 0 4 C0 2.68 0 1.36 0 0 Z " fill="#D6D3D9" transform="translate(53,159)"/>
<path d="M0 0 C5.33117361 1.05369438 9.64244633 4.11950221 14.25 6.875 C15.65378906 7.68904297 15.65378906 7.68904297 17.0859375 8.51953125 C17.97023438 9.04675781 18.85453125 9.57398438 19.765625 10.1171875 C20.57805664 10.59784668 21.39048828 11.07850586 22.22753906 11.57373047 C22.81245117 12.04439941 23.39736328 12.51506836 24 13 C24 18 24 18 23 20 C14.75 15.05 6.5 10.1 -2 5 C-0.68 4.34 0.64 3.68 2 3 C1.34 2.67 0.68 2.34 0 2 C0 1.34 0 0.68 0 0 Z " fill="#F2F1F3" transform="translate(69,167)"/>
<path d="M0 0 C1.258125 -0.04125 2.51625 -0.0825 3.8125 -0.125 C4.52019531 -0.14820312 5.22789062 -0.17140625 5.95703125 -0.1953125 C8 0 8 0 11 2 C11.375 5.5 11.375 5.5 11 9 C7.91111478 11.05925681 7.29064073 11.2390374 3.8125 11.125 C1.9253125 11.063125 1.9253125 11.063125 0 11 C0 7.37 0 3.74 0 0 Z " fill="#F99800" transform="translate(125,127)"/>
<path d="M0 0 C6.0546875 -0.1953125 6.0546875 -0.1953125 8 0 C10 2 10 2 10.25 4.5 C10 7 10 7 8 9 C5.31160615 9.26991906 2.70858064 9.08737357 0 9 C0 6.03 0 3.06 0 0 Z " fill="#F69601" transform="translate(125,114)"/>
<path d="M0 0 C0.33 0 0.66 0 1 0 C1 3.63 1 7.26 1 11 C2.60875 10.9071875 2.60875 10.9071875 4.25 10.8125 C8.10866187 11.00543309 9.28817788 11.39665076 12 14 C11.01 14 10.02 14 9 14 C9 15.98 9 17.96 9 20 C7.68 20 6.36 20 5 20 C5 18.02 5 16.04 5 14 C3.68 14 2.36 14 1 14 C1 15.98 1 17.96 1 20 C-0.65 20 -2.3 20 -4 20 C-4 18.02 -4 16.04 -4 14 C-2.68 13.67 -1.36 13.34 0 13 C0 8.71 0 4.42 0 0 Z " fill="#64381E" transform="translate(124,127)"/>
<path d="M0 0 C5.28 0 10.56 0 16 0 C12 2 12 2 9 3 C8.67 5.97 8.34 8.94 8 12 C6.68 12 5.36 12 4 12 C4 10.02 4 8.04 4 6 C2.68 5.67 1.36 5.34 0 5 C1.32 5 2.64 5 4 5 C3.24849977 1.72226496 3.24849977 1.72226496 0 0 Z " fill="#E78B04" transform="translate(120,98)"/>
<path d="M0 0 C1.65 0 3.3 0 5 0 C5 1.98 5 3.96 5 6 C5.66 6.33 6.32 6.66 7 7 C3.37 7 -0.26 7 -4 7 C-2.68 6.67 -1.36 6.34 0 6 C0 4.02 0 2.04 0 0 Z " fill="#5E341F" transform="translate(128,104)"/>
<path d="M0 0 C0.33 1.32 0.66 2.64 1 4 C0.34 4 -0.32 4 -1 4 C-1.66 5.32 -2.32 6.64 -3 8 C-5.97 8 -8.94 8 -12 8 C-12 7.34 -12 6.68 -12 6 C-11.07767578 5.85304688 -11.07767578 5.85304688 -10.13671875 5.703125 C-5.00590695 4.86708954 -5.00590695 4.86708954 -0.9375 1.875 C-0.628125 1.25625 -0.31875 0.6375 0 0 Z " fill="#15072D" transform="translate(136,118)"/>
<path d="M0 0 C2.97 0.495 2.97 0.495 6 1 C6 6 6 6 5 8 C2.21611025 6.29374499 1.14615794 5.52373261 0.25 2.3125 C0.1675 1.549375 0.085 0.78625 0 0 Z " fill="#F6F5F7" transform="translate(87,179)"/>
<path d="M0 0 C2.475 0.99 2.475 0.99 5 2 C4.34 2.66 3.68 3.32 3 4 C2.3574765 6.06874034 2.3574765 6.06874034 2 8 C-0.5 6.625 -0.5 6.625 -3 5 C-3 4.34 -3 3.68 -3 3 C-2.01 3 -1.02 3 0 3 C0 2.01 0 1.02 0 0 Z " fill="#ECEAED" transform="translate(177,167)"/>
<path d="M0 0 C0.66 0 1.32 0 2 0 C3.60725635 3.21451269 3.05748185 6.43612536 3 10 C2.67 10 2.34 10 2 10 C1.87625 9.195625 1.7525 8.39125 1.625 7.5625 C1.41875 6.716875 1.2125 5.87125 1 5 C-1.29629994 3.85185003 -3.07698086 3.69230191 -5.625 3.4375 C-6.44226563 3.35371094 -7.25953125 3.26992187 -8.1015625 3.18359375 C-8.72804688 3.12300781 -9.35453125 3.06242187 -10 3 C-10 2.67 -10 2.34 -10 2 C-9.04287109 1.90912109 -9.04287109 1.90912109 -8.06640625 1.81640625 C-6.82697266 1.69072266 -6.82697266 1.69072266 -5.5625 1.5625 C-4.73878906 1.48128906 -3.91507813 1.40007812 -3.06640625 1.31640625 C-1.01337975 1.21069185 -1.01337975 1.21069185 0 0 Z " fill="#381D27" transform="translate(134,124)"/>
<path d="M0 0 C2.475 0.99 2.475 0.99 5 2 C4.34 2.66 3.68 3.32 3 4 C2.3574765 6.06874034 2.3574765 6.06874034 2 8 C-0.5 6.625 -0.5 6.625 -3 5 C-3 4.34 -3 3.68 -3 3 C-2.01 3 -1.02 3 0 3 C0 2.01 0 1.02 0 0 Z " fill="#ECEAED" transform="translate(71,76)"/>
<path d="M0 0 C2.475 0.99 2.475 0.99 5 2 C4.34 2.66 3.68 3.32 3 4 C2.3574765 6.06874034 2.3574765 6.06874034 2 8 C-0.5 6.625 -0.5 6.625 -3 5 C-3 4.34 -3 3.68 -3 3 C-2.01 3 -1.02 3 0 3 C0 2.01 0 1.02 0 0 Z " fill="#EBEAED" transform="translate(168,70)"/>
<path d="M0 0 C2.475 0.99 2.475 0.99 5 2 C4.34 3.98 3.68 5.96 3 8 C2.01 7.67 1.02 7.34 0 7 C0 4.69 0 2.38 0 0 Z " fill="#ECEBEE" transform="translate(80,173)"/>
<path d="M0 0 C2.97 0.495 2.97 0.495 6 1 C6 1.66 6 2.32 6 3 C5.34 3 4.68 3 4 3 C4 3.99 4 4.98 4 6 C3.01 5.67 2.02 5.34 1 5 C0.67 3.35 0.34 1.7 0 0 Z " fill="#FAF9FA" transform="translate(73,79)"/>
<path d="M0 0 C3.3 1.65 6.6 3.3 10 5 C6 6 6 6 4.078125 5.22265625 C2.38541667 4.1484375 0.69270833 3.07421875 -1 2 C-0.67 1.34 -0.34 0.68 0 0 Z " fill="#251737" transform="translate(163,165)"/>
<path d="M0 0 C1.65 0 3.3 0 5 0 C4.01 0.495 4.01 0.495 3 1 C3 2.32 3 3.64 3 5 C3.66 5 4.32 5 5 5 C4.67 5.66 4.34 6.32 4 7 C2.68 6.34 1.36 5.68 0 5 C0 3.35 0 1.7 0 0 Z " fill="#EFEEF1" transform="translate(164,161)"/>
<path d="M0 0 C2.97 0.495 2.97 0.495 6 1 C5 4 5 4 3 5 C2.34 4.67 1.68 4.34 1 4 C0.375 1.9375 0.375 1.9375 0 0 Z " fill="#FAF9FA" transform="translate(179,170)"/>
<path d="M0 0 C0.99 0.33 1.98 0.66 3 1 C2.67 2.32 2.34 3.64 2 5 C1.34 4.34 0.68 3.68 0 3 C0 2.01 0 1.02 0 0 Z M-9 3 C-6.03 3 -3.06 3 0 3 C0 3.33 0 3.66 0 4 C-2.97 4 -5.94 4 -9 4 C-9 3.67 -9 3.34 -9 3 Z " fill="#F2F2F3" transform="translate(194,86)"/>
<path d="M0 0 C0.99 0 1.98 0 3 0 C3 1.98 3 3.96 3 6 C2.01 6 1.02 6 0 6 C0 4.02 0 2.04 0 0 Z " fill="#1A0A2C" transform="translate(129,141)"/>
<path d="M0 0 C0.99 0 1.98 0 3 0 C3 1.98 3 3.96 3 6 C2.01 6 1.02 6 0 6 C0 4.02 0 2.04 0 0 Z " fill="#12052E" transform="translate(129,104)"/>
<path d="M0 0 C0.99 0 1.98 0 3 0 C3 1.98 3 3.96 3 6 C2.01 6 1.02 6 0 6 C0 4.02 0 2.04 0 0 Z " fill="#FA9B00" transform="translate(125,104)"/>
</svg>
