<?xml version="1.0" standalone="no"?>
<!DOCTYPE svg PUBLIC "-//W3C//DTD SVG 20010904//EN"
 "http://www.w3.org/TR/2001/REC-SVG-20010904/DTD/svg10.dtd">
<svg version="1.0" xmlns="http://www.w3.org/2000/svg"
 width="1024.000000pt" height="1024.000000pt" viewBox="0 0 1024.000000 1024.000000"
 preserveAspectRatio="xMidYMid meet">

<g transform="translate(0.000000,1024.000000) scale(0.100000,-0.100000)"
fill="#000000" stroke="none">
<path d="M4970 7884 c-96 -35 -285 -106 -420 -156 -135 -50 -371 -138 -525
-195 -154 -58 -462 -172 -685 -254 -223 -82 -439 -163 -481 -180 -88 -35 -146
-87 -181 -164 l-23 -50 -3 -1305 c-1 -803 1 -1329 7 -1368 14 -91 52 -164 119
-231 56 -57 96 -78 1252 -656 l1194 -597 53 4 c57 5 103 36 103 69 0 21 -82
94 -410 367 -129 108 -237 198 -240 201 -17 21 -116 95 -175 133 -38 25 -362
192 -720 373 -357 180 -675 343 -707 361 -39 24 -59 44 -67 66 -6 17 -11 93
-11 169 0 169 5 179 78 149 40 -16 467 -203 557 -244 158 -72 476 -210 498
-217 16 -4 39 -4 51 1 34 13 276 294 276 320 0 49 22 38 -1075 532 -353 159
-364 165 -375 193 -15 39 -13 378 2 393 25 25 1 34 838 -333 129 -56 341 -149
470 -205 129 -56 253 -111 275 -121 214 -96 262 -111 327 -98 24 4 210 79 413
167 458 197 1259 544 1625 704 151 66 295 129 320 140 57 24 108 73 118 113
14 48 -5 216 -27 245 -30 41 -80 64 -136 64 -42 0 -120 -30 -510 -196 -253
-108 -534 -228 -625 -266 -91 -38 -374 -158 -629 -266 -440 -186 -467 -196
-527 -196 -62 0 -80 7 -502 196 -499 224 -801 359 -1152 515 -153 68 -253 119
-267 135 -22 24 -23 33 -23 202 0 190 7 222 51 222 11 0 72 -22 137 -49 64
-26 250 -104 412 -171 395 -164 889 -368 1082 -446 196 -80 213 -81 364 -20
134 54 568 232 609 250 17 8 201 85 410 171 455 188 1192 495 1255 523 62 27
85 55 84 102 -2 51 -35 93 -99 124 -27 13 -512 209 -1077 435 -906 362 -1034
411 -1080 411 -40 -1 -97 -17 -228 -66z"/>
<path d="M7125 5303 c-44 -14 -76 -42 -275 -242 -124 -124 -396 -401 -605
-616 -613 -631 -707 -725 -725 -725 -9 0 -119 101 -244 225 -246 243 -288 278
-360 296 -89 22 -215 -22 -270 -94 -71 -93 -85 -199 -41 -297 22 -46 83 -111
393 -418 202 -199 387 -375 412 -389 35 -22 57 -28 105 -28 103 0 141 28 425
321 79 82 241 248 360 369 1193 1220 1180 1205 1180 1319 0 126 -70 236 -176
275 -65 25 -111 26 -179 4z"/>
</g>
</svg>
