<svg id="svg" version="1.1" xmlns="http://www.w3.org/2000/svg" xmlns:xlink="http://www.w3.org/1999/xlink" width="400" height="400" viewBox="0, 0, 400,400"><g id="svgg"><path id="path0" d="M194.727 91.824 C 191.289 93.126,185.225 95.397,181.250 96.869 C 177.275 98.341,167.344 102.037,159.180 105.084 C 151.016 108.130,137.656 113.074,129.492 116.070 C 121.328 119.065,113.427 121.978,111.934 122.541 C 107.412 124.247,104.902 127.100,103.928 131.641 C 103.048 135.745,103.529 235.647,104.441 238.086 C 105.547 241.045,107.706 244.037,109.923 245.685 C 114.790 249.304,203.224 293.143,205.587 293.109 C 209.931 293.046,211.240 290.996,208.527 288.502 C 206.511 286.649,195.471 277.256,191.969 274.414 C 190.645 273.340,187.560 270.778,185.113 268.722 C 177.934 262.688,180.511 264.141,146.680 247.059 C 133.574 240.441,122.200 234.620,121.404 234.121 C 119.411 232.874,119.072 231.435,119.217 224.847 C 119.373 217.713,119.055 217.880,126.234 221.176 C 131.381 223.540,153.068 233.102,160.285 236.191 C 163.718 237.660,165.305 237.823,166.309 236.809 C 171.217 231.848,176.213 225.700,176.101 224.759 C 175.897 223.042,176.322 223.262,152.539 212.517 C 149.316 211.061,145.537 209.344,144.141 208.702 C 142.744 208.060,136.943 205.470,131.250 202.947 C 118.055 197.099,119.141 198.362,119.141 188.859 C 119.141 179.646,119.141 179.646,123.384 181.568 C 124.810 182.214,130.723 184.802,136.523 187.319 C 146.615 191.698,157.608 196.521,171.680 202.745 C 193.999 212.617,191.809 212.323,203.906 207.067 C 208.525 205.060,216.699 201.526,222.070 199.213 C 227.441 196.900,235.967 193.214,241.016 191.023 C 246.064 188.831,254.590 185.139,259.961 182.816 C 294.114 168.051,291.216 169.899,290.927 163.065 C 290.546 154.096,287.210 152.957,275.781 157.897 C 272.021 159.523,262.002 163.792,253.516 167.385 C 245.029 170.978,232.900 176.113,226.563 178.796 C 220.225 181.479,211.084 185.355,206.250 187.409 C 194.378 192.453,195.617 192.437,185.142 187.691 C 180.531 185.602,176.055 183.579,175.195 183.196 C 165.309 178.790,142.936 168.786,136.328 165.815 C 131.709 163.739,126.348 161.357,124.414 160.521 C 119.041 158.200,119.141 158.403,119.141 149.811 C 119.141 139.809,118.767 140.015,129.102 144.333 C 132.539 145.769,141.504 149.487,149.023 152.595 C 156.543 155.703,164.102 158.834,165.820 159.554 C 172.984 162.554,188.965 169.057,190.195 169.473 C 192.664 170.308,194.568 170.008,199.441 168.020 C 205.634 165.493,226.143 156.988,229.102 155.721 C 230.391 155.169,236.104 152.794,241.797 150.443 C 247.490 148.092,254.346 145.256,257.031 144.141 C 259.717 143.025,265.342 140.699,269.531 138.972 C 289.653 130.678,289.764 130.625,290.755 128.927 C 291.619 127.446,291.221 125.864,289.541 124.100 C 288.225 122.719,292.899 124.675,245.703 105.758 C 198.645 86.897,203.921 88.339,194.727 91.824 M279.136 192.624 C 278.296 192.821,277.036 193.337,276.335 193.770 C 275.341 194.384,234.785 235.736,219.559 251.660 C 215.525 255.879,216.382 256.245,205.809 245.801 C 193.869 234.007,192.564 233.215,187.305 234.582 C 178.763 236.801,176.150 246.450,182.336 252.930 C 190.363 261.337,210.259 280.522,211.714 281.257 C 216.501 283.674,219.408 282.373,227.344 274.266 C 274.272 226.323,290.362 209.581,291.139 207.888 C 294.877 199.744,287.699 190.616,279.136 192.624 " stroke="none" fill="#f7f8f7" fill-rule="evenodd"></path><path id="path1" d="M0.000 200.000 L 0.000 400.000 200.000 400.000 L 400.000 400.000 400.000 200.000 L 400.000 0.000 200.000 0.000 L 0.000 0.000 0.000 200.000 M208.609 90.727 C 211.847 92.014,275.901 117.624,282.617 120.317 C 292.358 124.223,294.279 128.219,287.950 131.411 C 286.506 132.139,257.369 144.310,247.656 148.242 C 246.475 148.720,239.707 151.529,232.617 154.484 C 225.527 157.439,218.320 160.431,216.602 161.133 C 214.883 161.835,209.346 164.121,204.297 166.213 C 192.005 171.306,194.322 171.473,176.675 164.221 C 168.986 161.061,160.234 157.472,157.227 156.244 C 154.219 155.016,150.088 153.303,148.047 152.436 C 131.573 145.440,121.340 141.399,120.651 141.618 C 119.403 142.014,119.141 143.445,119.141 149.843 C 119.141 157.542,119.329 158.054,122.702 159.535 C 124.073 160.137,126.689 161.298,128.516 162.116 C 130.342 162.934,135.264 165.134,139.453 167.006 C 143.643 168.877,148.037 170.847,149.219 171.383 C 150.400 171.919,153.652 173.368,156.445 174.603 C 159.238 175.838,164.951 178.389,169.141 180.274 C 173.330 182.158,178.428 184.445,180.469 185.356 C 182.510 186.268,186.156 187.914,188.571 189.015 C 195.010 191.949,195.075 191.942,206.342 187.153 C 211.340 185.028,218.857 181.845,223.047 180.080 C 227.236 178.314,233.037 175.853,235.938 174.611 C 238.838 173.369,245.166 170.679,250.000 168.634 C 254.834 166.589,263.008 163.118,268.164 160.922 C 273.320 158.725,278.770 156.409,280.273 155.775 C 286.494 153.154,290.324 155.307,291.120 161.873 C 291.765 167.193,290.816 169.327,286.965 171.213 C 284.980 172.185,258.802 183.604,241.425 191.079 C 237.460 192.784,233.681 194.423,233.026 194.721 C 232.372 195.019,227.266 197.223,221.680 199.619 C 216.094 202.015,207.832 205.561,203.320 207.498 C 192.095 212.319,193.340 212.371,179.883 206.527 C 175.301 204.537,157.874 196.917,156.055 196.108 C 151.161 193.932,145.625 191.502,128.510 184.021 C 118.579 179.680,119.141 179.394,119.141 188.783 C 119.141 196.045,119.426 197.337,121.219 198.172 C 121.902 198.491,127.559 201.038,133.789 203.832 C 140.020 206.626,146.260 209.443,147.656 210.091 C 151.806 212.017,159.588 215.543,165.430 218.144 C 178.982 224.179,178.699 223.406,170.619 232.324 C 164.403 239.184,166.310 239.089,152.930 233.209 C 148.418 231.226,143.320 228.989,141.602 228.238 C 139.883 227.487,137.246 226.334,135.742 225.676 C 134.238 225.017,130.383 223.278,127.175 221.810 C 120.804 218.895,120.163 218.741,119.508 219.964 C 118.688 221.498,119.181 231.377,120.142 232.664 C 121.093 233.936,120.659 233.706,150.195 248.633 C 181.782 264.596,177.905 262.378,185.707 268.945 C 188.259 271.094,191.533 273.818,192.981 275.000 C 203.478 283.562,210.156 289.659,210.156 290.679 C 210.156 292.372,207.974 293.502,205.152 293.269 C 203.073 293.098,163.111 273.445,117.187 250.009 C 108.332 245.489,106.176 243.470,104.316 237.949 C 103.458 235.399,103.016 133.511,103.852 130.641 C 105.304 125.650,107.555 123.814,115.810 120.883 C 122.570 118.483,141.743 111.377,179.102 97.423 C 203.317 88.379,202.925 88.468,208.609 90.727 M286.380 193.281 C 291.491 195.951,293.729 202.727,291.256 208.040 C 290.359 209.964,263.705 237.704,231.335 270.399 C 214.932 286.968,216.934 287.195,195.667 266.345 C 178.676 249.687,178.717 249.741,178.979 244.571 C 179.287 238.493,183.154 234.500,189.148 234.070 C 193.558 233.753,194.698 234.532,205.704 245.384 C 210.894 250.501,215.381 254.687,215.676 254.687 C 215.970 254.687,221.475 249.282,227.908 242.676 C 277.994 191.242,275.331 193.916,277.418 192.969 C 280.043 191.777,283.748 191.907,286.380 193.281 M379.117 370.601 C 380.038 373.015,383.235 376.212,385.649 377.133 C 386.667 377.522,387.500 377.969,387.500 378.125 C 387.500 378.281,386.667 378.728,385.649 379.117 C 384.565 379.530,382.973 380.648,381.810 381.810 C 380.648 382.973,379.530 384.565,379.117 385.649 C 378.728 386.667,378.281 387.500,378.125 387.500 C 377.969 387.500,377.522 386.667,377.133 385.649 C 376.212 383.235,373.015 380.038,370.601 379.117 C 369.583 378.728,368.750 378.281,368.750 378.125 C 368.750 377.969,369.583 377.522,370.601 377.133 C 371.685 376.720,373.277 375.602,374.440 374.440 C 375.602 373.277,376.720 371.685,377.133 370.601 C 377.522 369.583,377.969 368.750,378.125 368.750 C 378.281 368.750,378.728 369.583,379.117 370.601 " stroke="none" fill="#040404" fill-rule="evenodd"></path><path id="path2" d="M261.315 208.496 L 259.180 210.742 261.426 208.607 C 263.512 206.624,263.851 206.250,263.561 206.250 C 263.500 206.250,262.489 207.261,261.315 208.496 M278.516 221.680 C 276.915 223.291,275.693 224.609,275.801 224.609 C 275.908 224.609,277.306 223.291,278.906 221.680 C 280.507 220.068,281.728 218.750,281.621 218.750 C 281.514 218.750,280.116 220.068,278.516 221.680 M247.046 223.145 L 245.898 224.414 247.168 223.267 C 247.866 222.636,248.438 222.064,248.438 221.997 C 248.438 221.695,248.115 221.961,247.046 223.145 M263.857 236.816 L 261.133 239.648 263.965 236.925 C 266.595 234.395,266.975 233.984,266.689 233.984 C 266.629 233.984,265.355 235.259,263.857 236.816 M231.627 238.965 L 229.492 241.211 231.738 239.076 C 233.825 237.092,234.163 236.719,233.873 236.719 C 233.812 236.719,232.802 237.729,231.627 238.965 M207.422 247.461 C 210.101 250.146,212.381 252.344,212.488 252.344 C 212.596 252.344,210.492 250.146,207.813 247.461 C 205.133 244.775,202.854 242.578,202.746 242.578 C 202.639 242.578,204.743 244.775,207.422 247.461 M220.291 250.684 L 218.945 252.148 220.410 250.802 C 221.774 249.549,222.055 249.219,221.756 249.219 C 221.691 249.219,221.032 249.878,220.291 250.684 M249.402 251.660 L 247.070 254.102 249.512 251.770 C 250.854 250.488,251.953 249.389,251.953 249.329 C 251.953 249.040,251.568 249.392,249.402 251.660 M184.961 255.859 C 185.800 256.719,186.575 257.422,186.682 257.422 C 186.789 257.422,186.191 256.719,185.352 255.859 C 184.512 255.000,183.738 254.297,183.631 254.297 C 183.523 254.297,184.122 255.000,184.961 255.859 M232.216 269.238 L 229.492 272.070 232.324 269.346 C 234.955 266.816,235.335 266.406,235.048 266.406 C 234.989 266.406,233.714 267.681,232.216 269.238 M377.216 370.879 C 376.142 373.490,373.797 375.919,371.311 376.996 C 368.706 378.124,368.702 378.139,370.879 379.034 C 373.490 380.108,375.919 382.453,376.996 384.939 C 378.124 387.544,378.139 387.548,379.034 385.371 C 380.108 382.760,382.453 380.331,384.939 379.254 C 387.544 378.126,387.548 378.111,385.371 377.216 C 382.760 376.142,380.331 373.797,379.254 371.311 C 378.126 368.706,378.111 368.702,377.216 370.879 " stroke="none" fill="#848484" fill-rule="evenodd"></path><path id="path3" d="M291.114 163.867 C 291.118 164.727,291.198 165.032,291.292 164.546 C 291.385 164.060,291.382 163.357,291.284 162.984 C 291.186 162.610,291.110 163.008,291.114 163.867 M271.665 197.754 L 269.727 199.805 271.777 197.866 C 273.683 196.065,274.007 195.703,273.716 195.703 C 273.654 195.703,272.731 196.626,271.665 197.754 M255.469 214.258 C 254.520 215.225,253.831 216.016,253.939 216.016 C 254.046 216.016,254.911 215.225,255.859 214.258 C 256.808 213.291,257.497 212.500,257.389 212.500 C 257.282 212.500,256.418 213.291,255.469 214.258 M285.339 214.941 L 283.008 217.383 285.449 215.051 C 286.792 213.769,287.891 212.670,287.891 212.610 C 287.891 212.321,287.505 212.674,285.339 214.941 M240.411 229.785 L 238.867 231.445 240.527 229.901 C 242.071 228.465,242.367 228.125,242.071 228.125 C 242.008 228.125,241.261 228.872,240.411 229.785 M269.911 230.762 L 267.383 233.398 270.020 230.871 C 271.470 229.480,272.656 228.294,272.656 228.234 C 272.656 227.946,272.258 228.313,269.911 230.762 M199.805 239.844 C 200.863 240.918,201.816 241.797,201.924 241.797 C 202.031 241.797,201.253 240.918,200.195 239.844 C 199.137 238.770,198.184 237.891,198.076 237.891 C 197.969 237.891,198.747 238.770,199.805 239.844 M225.966 244.629 L 223.242 247.461 226.074 244.737 C 228.705 242.207,229.085 241.797,228.798 241.797 C 228.739 241.797,227.464 243.071,225.966 244.629 M255.259 245.801 L 253.320 247.852 255.371 245.913 C 257.277 244.112,257.601 243.750,257.310 243.750 C 257.248 243.750,256.325 244.673,255.259 245.801 M190.430 261.328 C 192.138 263.047,193.624 264.453,193.732 264.453 C 193.839 264.453,192.529 263.047,190.820 261.328 C 189.112 259.609,187.626 258.203,187.518 258.203 C 187.411 258.203,188.721 259.609,190.430 261.328 M238.672 262.695 C 237.071 264.307,235.850 265.625,235.957 265.625 C 236.064 265.625,237.462 264.307,239.063 262.695 C 240.663 261.084,241.885 259.766,241.777 259.766 C 241.670 259.766,240.272 261.084,238.672 262.695 " stroke="none" fill="#5f6162" fill-rule="evenodd"></path><path id="path4" d="" stroke="none" fill="#7c7c84" fill-rule="evenodd"></path></g></svg>