<?xml version="1.0" standalone="no"?>
<!DOCTYPE svg PUBLIC "-//W3C//DTD SVG 20010904//EN"
 "http://www.w3.org/TR/2001/REC-SVG-20010904/DTD/svg10.dtd">
<svg version="1.0" xmlns="http://www.w3.org/2000/svg"
 width="1024.000000pt" height="1024.000000pt" viewBox="0 0 1024.000000 1024.000000"
 preserveAspectRatio="xMidYMid meet">

<g transform="translate(0.000000,1024.000000) scale(0.100000,-0.100000)"
fill="#000000" stroke="none">
<path d="M0 5120 l0 -5120 5120 0 5120 0 0 5120 0 5120 -5120 0 -5120 0 0
-5120z m6303 2409 c579 -231 1068 -431 1088 -444 37 -24 69 -77 69 -115 0 -44
-61 -84 -247 -160 -196 -81 -267 -110 -613 -255 -129 -54 -260 -108 -290 -120
-30 -12 -149 -62 -265 -110 -115 -48 -259 -107 -320 -132 -135 -55 -565 -233
-659 -274 -79 -33 -141 -37 -212 -13 -25 8 -177 70 -338 136 -160 66 -340 140
-401 165 -60 24 -157 64 -215 88 -544 227 -784 325 -798 325 -8 0 -24 -7 -34
-17 -16 -14 -18 -34 -18 -192 0 -121 4 -184 13 -201 15 -31 15 -30 387 -195
168 -75 343 -153 390 -175 47 -21 105 -47 130 -58 107 -47 410 -182 460 -205
30 -14 75 -34 100 -45 25 -11 128 -57 230 -103 247 -112 222 -113 540 24 135
57 301 128 370 157 69 29 186 78 260 110 74 32 313 133 530 225 217 92 478
203 580 248 161 70 193 80 245 81 47 1 67 -4 91 -21 57 -41 67 -68 72 -185 7
-172 28 -156 -448 -361 -146 -63 -371 -161 -500 -217 -278 -121 -439 -190
-770 -333 -135 -57 -335 -144 -445 -192 -289 -126 -297 -128 -369 -122 -58 5
-265 88 -686 277 -47 21 -121 54 -165 73 -44 19 -156 69 -250 110 -546 239
-705 307 -722 307 -39 0 -43 -17 -43 -202 0 -135 4 -186 14 -206 11 -21 40
-39 113 -72 54 -24 134 -60 178 -80 44 -20 313 -141 598 -270 285 -129 527
-243 538 -253 39 -37 26 -64 -109 -215 -70 -79 -135 -148 -145 -153 -11 -6
-29 -6 -49 0 -30 8 -834 359 -1021 444 -43 20 -84 34 -92 30 -23 -8 -27 -41
-23 -192 l3 -141 30 -29 c17 -16 149 -90 295 -164 146 -74 463 -235 705 -357
462 -235 512 -263 628 -364 40 -34 99 -84 133 -112 113 -91 428 -359 482 -408
62 -58 64 -79 12 -114 -72 -49 -36 -65 -1207 521 -587 295 -1120 562 -1183
594 -180 92 -263 187 -290 335 -7 35 -9 516 -8 1374 l3 1319 23 47 c33 65 99
127 168 155 33 13 138 53 234 88 175 63 556 204 895 330 99 37 331 123 515
191 184 69 405 152 490 184 123 47 167 59 213 60 54 0 138 -32 1110 -421z
m1023 -2237 c44 -23 103 -83 131 -134 13 -24 18 -55 18 -118 0 -143 127 0
-1220 -1379 -308 -315 -579 -586 -601 -602 -62 -42 -123 -56 -181 -41 -27 7
-62 23 -79 35 -18 12 -197 185 -398 384 -404 399 -416 415 -416 524 0 149 102
265 252 285 53 7 119 -10 167 -42 20 -13 143 -128 273 -254 142 -138 244 -230
256 -230 10 0 34 17 52 38 18 20 94 100 169 177 75 77 296 304 491 505 787
809 826 847 900 871 41 14 142 3 186 -19z m2383 -4558 c27 -63 90 -123 156
-151 25 -10 45 -20 45 -23 0 -3 -25 -16 -56 -29 -63 -27 -123 -90 -151 -156
-10 -25 -20 -45 -23 -45 -3 0 -16 25 -29 56 -27 63 -90 123 -156 151 -25 10
-45 20 -45 23 0 3 25 16 56 29 63 27 123 90 151 156 10 25 20 45 23 45 3 0 16
-25 29 -56z"/>
</g>
</svg>
