<?xml version="1.0" encoding="UTF-8"?>
<svg version="1.1" xmlns="http://www.w3.org/2000/svg" width="1024" height="1024">
<path d="M0 0 C337.92 0 675.84 0 1024 0 C1024 337.92 1024 675.84 1024 1024 C686.08 1024 348.16 1024 0 1024 C0 686.08 0 348.16 0 0 Z " fill="#010101" transform="translate(0,0)"/>
<path d="M0 0 C337.92 0 675.84 0 1024 0 C1024 337.92 1024 675.84 1024 1024 C686.08 1024 348.16 1024 0 1024 C0 686.08 0 348.16 0 0 Z M143 74 C143 328.1 143 582.2 143 844 C386.54 844 630.08 844 881 844 C881 589.9 881 335.8 881 74 C637.46 74 393.92 74 143 74 Z " fill="#FEFEFE" transform="translate(0,0)"/>
<path d="M0 0 C2.08244306 0.00086052 4.16488657 0.00093548 6.24732971 0.00028992 C11.85356368 0.00144208 17.4596909 0.01581131 23.06589508 0.03323364 C27.74469743 0.04627475 32.4234981 0.05178728 37.102314 0.0576725 C86.73593522 0.12491694 136.36646935 0.62678586 185.99609375 1.23046875 C184.8064502 2.41552002 184.8064502 2.41552002 183.59277344 3.62451172 C178.35505985 8.88093846 174.88798687 12.77807525 174.68359375 20.48046875 C174.78695054 29.20837515 179.32220544 34.00810457 184.99609375 40.23046875 C182.39731841 42.92289366 179.75046842 45.2542055 176.74609375 47.48046875 C168.0680228 54.17457282 159.4428247 62.10896441 156.99609375 73.23046875 C156.24502315 80.17498304 156.94540333 84.51184698 160.99609375 90.23046875 C161.65609375 90.89046875 162.31609375 91.55046875 162.99609375 92.23046875 C163.82863808 95.25988399 164.46382944 98.31016287 165.1171875 101.3828125 C165.74369281 104.23847235 165.74369281 104.23847235 167.58984375 105.7421875 C168.99609375 107.23046875 168.99609375 107.23046875 169.21875 109.97265625 C169.16589844 111.00648438 169.11304688 112.0403125 169.05859375 113.10546875 C168.76347993 117.38688344 168.76347993 117.38688344 170.0715332 121.35473633 C171.41354689 125.52890566 170.60822989 128.98801987 169.87890625 133.25 C169.674897 134.53785652 169.674897 134.53785652 169.46676636 135.85173035 C169.030902 138.58436507 168.57628659 141.31349407 168.12109375 144.04296875 C167.82167355 145.89888841 167.52348225 147.75500679 167.2265625 149.61132812 C166.49729485 154.15346768 165.75119937 158.69255614 164.99609375 163.23046875 C159.71609375 163.23046875 154.43609375 163.23046875 148.99609375 163.23046875 C149.0118042 159.79338501 149.0118042 159.79338501 149.02783203 156.28686523 C149.06150017 148.57572323 149.083269 140.86457728 149.09971809 133.15338039 C149.11000057 128.49422138 149.12386135 123.83513983 149.14697266 119.17602539 C149.27933701 91.72039589 149.19507171 64.4353345 144.99609375 37.23046875 C144.26664575 46.51279764 143.7836888 55.77128758 143.53125 65.078125 C143.47373541 67.0380552 143.41621247 68.99798518 143.35830688 70.95790386 C143.29807828 73.00645829 143.23900505 75.05504351 143.18014526 77.1036377 C142.61340649 96.73694195 142.02849178 116.36820967 140.93359375 135.98046875 C140.89348175 136.70807404 140.85336975 137.43567932 140.81204224 138.18533325 C140.36273023 146.22629309 139.72575275 154.20421971 138.99609375 162.23046875 C121.83609375 162.23046875 104.67609375 162.23046875 86.99609375 162.23046875 C84.68359375 144.54296875 84.68359375 144.54296875 83.9753418 139.0480957 C83.77832777 137.56324794 83.58084668 136.07846205 83.3828125 134.59375 C83.29020142 133.86136108 83.19759033 133.12897217 83.10217285 132.37438965 C82.17132912 125.47591451 80.58489551 119.11527639 78.99609375 112.23046875 C78.33609375 128.40046875 77.67609375 144.57046875 76.99609375 161.23046875 C73.03609375 161.23046875 69.07609375 161.23046875 64.99609375 161.23046875 C61.61062333 142.77790337 58.53134289 124.30034686 55.6864624 105.75634766 C54.61542441 98.77622219 53.5316577 91.79807004 52.4453125 84.8203125 C52.28623287 83.79805887 52.28623287 83.79805887 52.12393951 82.75515366 C49.59899774 66.54819236 46.8774873 50.37775517 43.99609375 34.23046875 C41.56465 36.6619125 42.75390774 42.92871647 42.74609375 46.16796875 C42.79462397 76.68714693 47.4220584 106.75879493 51.80653381 136.89154053 C52.97875894 144.99214295 54.02880665 153.10287055 54.99609375 161.23046875 C43.93915099 161.34445785 33.01973003 161.14097558 21.99609375 160.23046875 C20.29767565 152.97647743 18.9516743 145.68369376 17.70898438 138.33837891 C17.37268604 136.3648131 17.02426026 134.39332648 16.67578125 132.421875 C14.91334963 122.02562659 14.51635371 112.51882577 15.99609375 102.10546875 C16.95122163 94.47775764 17.21884807 86.9148847 17.24609375 79.23046875 C17.25511719 78.1926123 17.26414062 77.15475586 17.2734375 76.08544922 C17.24677245 69.16253566 17.15569683 61.54967491 13.99609375 55.23046875 C13.89063232 55.83818115 13.7851709 56.44589355 13.67651367 57.07202148 C11.46797893 69.79476338 9.24894802 82.51549578 6.99609375 95.23046875 C4.07257383 91.49776028 1.81544084 87.50029703 -0.50390625 83.375 C-1.89219517 80.93651606 -1.89219517 80.93651606 -5.00390625 80.23046875 C-4.86758789 81.37201416 -4.86758789 81.37201416 -4.72851562 82.53662109 C-2.91269324 98.17364544 -1.69490618 113.66874208 -1.69140625 129.41796875 C-1.68818359 130.12499939 -1.68496094 130.83203003 -1.68164062 131.56048584 C-1.65723367 140.28826193 -2.23793002 148.66341175 -4.00390625 157.23046875 C-7.43948138 156.58064897 -10.41647602 155.74143363 -13.62890625 154.35546875 C-23.7234274 150.26108333 -33.1227045 148.63216349 -44.00390625 148.23046875 C-45.13957031 148.16601562 -46.27523437 148.1015625 -47.4453125 148.03515625 C-60.48665404 147.59005927 -74.34609107 150.30120075 -85.00390625 158.23046875 C-89.96991377 163.06364068 -92.25806756 168.61465898 -94.00390625 175.23046875 C-92.78767578 174.34294922 -92.78767578 174.34294922 -91.546875 173.4375 C-71.84404563 159.27543588 -51.42831902 155.68250112 -27.40625 158.734375 C-20.55678644 159.93423098 -14.17319084 161.36624396 -9.00390625 166.23046875 C-5.35149581 172.58888856 -3.27182332 179.21505364 -1.18359375 186.21875 C-0.83886017 187.35773239 -0.49412659 188.49671478 -0.13894653 189.67021179 C0.58554124 192.07033815 1.30643399 194.47155229 2.02392578 196.8737793 C3.11534958 200.52375887 4.22086491 204.16925058 5.328125 207.81445312 C6.03340098 210.15729671 6.73785509 212.50038788 7.44140625 214.84375 C7.76851593 215.92118973 8.09562561 216.99862946 8.43264771 218.10871887 C10.40953609 224.76405737 11.90861364 231.37295147 12.99609375 238.23046875 C8.77694801 236.57363526 4.86754272 234.61099071 0.88671875 232.44921875 C-13.93001946 226.20216156 -32.43718047 227.71241397 -47.14941406 233.44775391 C-60.29826467 238.9974136 -71.80262247 248.19349876 -78.00390625 261.23046875 C-81.63885317 270.89286278 -83.84887503 281.15613583 -86.00390625 291.23046875 C-90.47771499 287.67830301 -91.45424728 283.65550059 -92.87890625 278.35546875 C-93.12938721 277.44345703 -93.37986816 276.53144531 -93.63793945 275.59179688 C-99.63274875 253.05385297 -103.05880753 230.43590724 -105.00390625 207.23046875 C-105.09744385 206.2353125 -105.19098145 205.24015625 -105.28735352 204.21484375 C-110.5494896 146.7718317 -88.71997976 92.20268522 -69.06284332 39.24319077 C-68.31797631 37.23470231 -67.57564641 35.22529001 -66.8336792 33.21572876 C-65.43998928 29.44532776 -64.0300668 25.68122186 -62.6171875 21.91796875 C-62.19586044 20.77937912 -61.77453339 19.64078949 -61.34043884 18.46769714 C-60.74713524 16.90200737 -60.74713524 16.90200737 -60.1418457 15.3046875 C-59.6289373 13.93703247 -59.6289373 13.93703247 -59.10566711 12.54174805 C-57.65032801 9.4887306 -56.21539308 7.70643703 -53.04956055 6.46264648 C-52.31648682 6.28161377 -51.58341309 6.10058105 -50.828125 5.9140625 C-49.99861328 5.70716797 -49.16910156 5.50027344 -48.31445312 5.28710938 C-47.44884766 5.08279297 -46.58324219 4.87847656 -45.69140625 4.66796875 C-44.86833984 4.45978516 -44.04527344 4.25160156 -43.19726562 4.03710938 C-28.73115789 0.51175539 -14.80078669 -0.05694641 0 0 Z " fill="#FDFDFD" transform="translate(416.00390625,358.76953125)"/>
<path d="M0 0 C0.94746094 -0.020625 1.89492187 -0.04125 2.87109375 -0.0625 C16.54897551 -0.13734477 28.13297941 4.95509712 38.125 14.25 C45.82498805 22.28093309 51.93805019 33.08690382 51.85546875 44.43359375 C50.93552553 49.82610647 47.4670285 53.86214213 44.375 58.25 C38.28418419 68.0751415 38.28418419 68.0751415 37.375 79.25 C38.81409618 80.44816153 40.25654015 81.64267616 41.72052002 82.81030273 C48.15240372 88.40720658 53.23799853 96.81106173 54.17675781 105.30078125 C54.469511 110.63030767 54.25497302 115.92346936 54 121.25 C53.94968893 123.10404415 53.90408842 124.95822233 53.86328125 126.8125 C53.75459294 131.29506176 53.58295398 135.77099124 53.375 140.25 C54.50671562 136.77298243 55.62911593 133.29302296 56.75 129.8125 C57.06710938 128.83861328 57.38421875 127.86472656 57.7109375 126.86132812 C60.77673235 117.31265458 62.73543091 108.74745756 62.75 98.6875 C62.78673828 97.34655273 62.78673828 97.34655273 62.82421875 95.97851562 C62.8534783 89.31221427 61.63233507 83.77415932 56.99804688 78.76025391 C53.7879251 75.92576242 50.25665051 74.00598475 46.375 72.25 C50.02003703 62.41729034 55.75045931 54.25959042 64.75 48.8125 C68.81339604 47.94177228 72.41176174 47.90110838 76.375 49.25 C78.79959576 51.31832863 80.61314094 53.60375679 82.375 56.25 C83.8034032 55.03309459 83.8034032 55.03309459 83.75 51.4375 C83.73703354 47.82634155 83.60095457 47.47595457 80.875 44.75 C80.05 44.255 79.225 43.76 78.375 43.25 C82.74374112 27.81073164 97.22085393 15.97735985 110.62597656 8.21630859 C125.69621255 -0.10976539 141.93796657 -1.95181162 158.55322266 2.34326172 C169.45568565 5.4979157 178.17231394 11.99379984 183.875 21.83984375 C188.89390271 31.54970951 189.9171165 41.68805522 187.7265625 52.4296875 C184.53860639 62.0480508 178.23488014 70.22403163 169.375 75.25 C160.26552705 79.38213206 149.97073109 79.72994476 140.5 76.625 C132.6653044 73.37479877 128.02941581 68.83994052 124.375 61.25 C122.18239747 54.51032242 122.0208857 45.29760446 124.8125 38.75 C127.75251151 33.84998082 133.03787301 30.28501119 138.453125 28.60546875 C145.76733345 27.25263751 151.81937194 28.84995106 157.875 32.9375 C160.19077339 36.50765065 159.77669887 39.03216183 159.375 43.25 C158.715 44.24 158.055 45.23 157.375 46.25 C156.715 46.25 156.055 46.25 155.375 46.25 C154.818125 45.569375 154.26125 44.88875 153.6875 44.1875 C151.4145636 41.85326659 151.4145636 41.85326659 147.75 42.3125 C144.11983076 42.9250845 144.11983076 42.9250845 142.375 46.25 C142.375 50.63943019 142.71548721 52.57357662 145.8125 55.75 C151.22437809 58.02868551 155.96033614 57.51349042 161.43359375 55.48828125 C166.3409279 52.98712385 169.10426146 49.42684636 171.125 44.375 C171.99471108 36.98245582 171.3680162 31.63645617 167.375 25.25 C162.02327342 18.84780189 154.74622839 15.68891433 146.5625 14.8671875 C134.50016679 14.33326439 125.03963763 16.9072532 115.78515625 24.87109375 C82.07125741 58.14785938 82.34739794 122.0666167 79.375 166.25 C79.28785233 167.54113708 79.20070465 168.83227417 79.11091614 170.16253662 C78.45388839 180.55114948 78.17004819 190.90899446 78.05859375 201.31640625 C78.03794509 202.97363203 78.01694709 204.63085348 77.99562073 206.28807068 C77.94121453 210.5868269 77.89145683 214.88562392 77.84277344 219.18444824 C77.78296913 224.37608916 77.71720334 229.5676578 77.65247345 234.7592392 C77.55549365 242.58944754 77.46593741 250.41970868 77.375 258.25 C54.935 258.25 32.495 258.25 9.375 258.25 C9.40980469 252.33835937 9.44460937 246.42671875 9.48046875 240.3359375 C9.49587047 236.49868751 9.51031687 232.66147781 9.52148438 228.82421875 C9.5391388 222.78751313 9.55956302 216.75094885 9.60131836 210.71435547 C9.7391353 190.2193868 9.67098062 169.82597453 8.0078125 149.38671875 C7.9462818 148.62697628 7.88475109 147.86723381 7.82135582 147.08446884 C5.92892011 124.36009724 2.48987079 101.96803106 -4.625 80.25 C-4.94911865 79.24211426 -4.94911865 79.24211426 -5.27978516 78.21386719 C-6.35396528 74.87785109 -7.46143261 71.55590028 -8.625 68.25 C-7.55121094 68.07984375 -6.47742188 67.9096875 -5.37109375 67.734375 C-3.93477477 67.49029465 -2.49858338 67.24546271 -1.0625 67 C-0.00579102 66.83564453 -0.00579102 66.83564453 1.07226562 66.66796875 C9.58288914 65.17762915 15.39301536 61.31536003 20.375 54.25 C24.36118458 47.73923185 24.24693884 40.7154573 23.375 33.25 C21.03821598 25.49187704 16.54684034 20.19414288 9.5703125 16.22265625 C3.22644952 13.36660175 -4.38378713 12.96937404 -11.03125 14.9765625 C-15.22101672 16.89947782 -18.41670567 19.10944814 -20.625 23.25 C-21.09606839 26.3200664 -21.25888279 29.20050983 -20.625 32.25 C-19.38346035 34.09096546 -19.38346035 34.09096546 -17.625 35.25 C-13.97765021 35.02669287 -12.24127165 34.86627165 -9.625 32.25 C-8.93746699 30.59183216 -8.26938717 28.92540664 -7.625 27.25 C-6.625 26.25 -6.625 26.25 -3.3125 25.875 C0.375 26.25 0.375 26.25 2.8125 28.125 C5.03164787 32.56329574 5.14908185 36.37875764 4.375 41.25 C1.56220009 46.87559981 -2.79490905 50.86496279 -8.625 53.25 C-16.24172477 54.11645282 -23.38681541 54.06394153 -29.625 49.25 C-35.39223906 44.16745599 -37.89528433 38.32557791 -38.9765625 30.8046875 C-39.43360199 23.13123497 -36.88356003 17.03936619 -31.8984375 11.2421875 C-22.7284914 2.52507825 -12.18834131 0.0647455 0 0 Z " fill="#FDFDFD" transform="translate(194.625,89.75)"/>
<path d="M0 0 C2.15239094 5.56718125 4.02356237 11.14421782 5.6875 16.875 C6.02491211 18.01195312 6.02491211 18.01195312 6.36914062 19.171875 C8 24.74356478 8 24.74356478 8 27 C8.66 27 9.32 27 10 27 C10.33 21.72 10.66 16.44 11 11 C13.22050623 14.33075934 14.41118274 17.68130662 15.6953125 21.43359375 C15.96006882 22.19888397 16.22482513 22.96417419 16.49760437 23.75265503 C17.37951283 26.31221904 18.25302054 28.87453744 19.125 31.4375 C19.42602631 32.31828217 19.72705261 33.19906433 20.03720093 34.10653687 C27.10168394 54.82307247 33.52278937 75.73778126 39.89453125 96.67578125 C40.1949382 97.66254852 40.49534515 98.6493158 40.80485535 99.66598511 C41.21819878 101.03075485 41.21819878 101.03075485 41.63989258 102.4230957 C41.99957878 103.60993706 41.99957878 103.60993706 42.36653137 104.820755 C42.96236022 106.87051245 43.49771878 108.92555288 44 111 C20.82473581 122.94339273 -8.20850828 123.21509674 -33.69381714 125.30993652 C-64.62368287 127.43156987 -64.62368287 127.43156987 -93 139 C-93.66 139 -94.32 139 -95 139 C-95.13953598 138.35195908 -95.27907196 137.70391815 -95.4228363 137.03623962 C-99.43818916 118.47611018 -103.89000811 100.05357679 -108.53753662 81.64385986 C-109.41631238 78.15971474 -110.29093627 74.67452807 -111.16601562 71.18945312 C-111.51181918 69.81358558 -111.85763412 68.43772089 -112.20346069 67.06185913 C-112.8758537 64.38613979 -113.54662617 61.71002171 -114.21621704 59.03359985 C-115.65670334 53.28693191 -117.11091464 47.54644642 -118.64404297 41.82373047 C-119.00712807 40.44603737 -119.00712807 40.44603737 -119.37754822 39.04051208 C-119.81212263 37.39698094 -120.25671958 35.75604499 -120.71437073 34.11878967 C-121.94181874 29.43467046 -122.11542346 25.82161916 -121 21 C-113.5087712 12.58519504 -97.61238178 9.83608169 -87.06982422 7.20483398 C-84.97204704 6.68051341 -82.87856667 6.14107569 -80.78515625 5.59960938 C-70.58291568 3 -70.58291568 3 -66 3 C-65.49595192 5.10320063 -64.99689492 7.20759791 -64.5 9.3125 C-64.2215625 10.48425781 -63.943125 11.65601563 -63.65625 12.86328125 C-63 16 -63 16 -63 19 C-62.34 19 -61.68 19 -61 19 C-60.72285156 17.78441406 -60.44570313 16.56882812 -60.16015625 15.31640625 C-59.79446102 13.73172693 -59.42856525 12.14709388 -59.0625 10.5625 C-58.88009766 9.76005859 -58.69769531 8.95761719 -58.50976562 8.13085938 C-57.11328125 2.11328125 -57.11328125 2.11328125 -56 1 C-53.48496275 0.83905446 -50.99463579 0.74017545 -48.4765625 0.68359375 C-47.70699722 0.66276733 -46.93743195 0.64194092 -46.14454651 0.6204834 C-43.6381326 0.55435318 -41.13161089 0.49564496 -38.625 0.4375 C-36.92358051 0.39475056 -35.22216448 0.35186343 -33.52075195 0.30883789 C-22.34637563 0.035299 -11.17780167 -0.13761999 0 0 Z " fill="#FCFCFC" transform="translate(640,633)"/>
<path d="M0 0 C21.78 0 43.56 0 66 0 C66.06058594 5.24777344 66.12117188 10.49554687 66.18359375 15.90234375 C66.22427712 19.30664532 66.2651438 22.71094286 66.30664062 26.11523438 C66.37191958 31.47190528 66.43666329 36.82857717 66.49731445 42.18530273 C66.83804661 72.15770808 67.18730591 102.13054429 69.24731445 132.04418945 C69.44097011 134.86301042 69.62436635 137.6823753 69.80664062 140.50195312 C70.40941202 149.64337114 71.1122099 158.77147103 71.9921875 167.890625 C72.06735092 168.69252762 72.14251434 169.49443024 72.21995544 170.32063293 C74.07077543 188.68913222 81.05818454 203.0061048 94 216 C88.20010798 219.51635965 80.74092997 218.63869536 74.27734375 217.53515625 C62.71149875 214.43748936 53.42692637 207.49016508 46.875 197.5625 C39.69943922 184.88187936 37.13228534 169.20192796 33.58496094 155.19799805 C33.11909623 153.44750556 32.5728223 151.7184669 32 150 C31.98541748 150.92522461 31.97083496 151.85044922 31.95581055 152.80371094 C30.95163198 209.93189072 30.95163198 209.93189072 13.875 228.625 C4.35737188 237.67835357 -5.99264083 241.31535738 -18.875 241.0703125 C-19.57625 241.04710937 -20.2775 241.02390625 -21 241 C-19.69409117 238.18490407 -18.22512526 235.94645496 -16.25 233.5625 C4.13394775 206.46676457 -0.84059844 165.51000801 -0.69667697 133.54278159 C-0.67452648 128.83431495 -0.6472826 124.12587756 -0.62062073 119.41743469 C-0.5710806 110.53582561 -0.52600144 101.65419995 -0.48259836 92.77255899 C-0.43289127 82.64648952 -0.37809936 72.52044947 -0.32291877 62.39440858 C-0.209694 41.59629868 -0.10340066 20.79816122 0 0 Z " fill="#FDFDFD" transform="translate(206,537)"/>
<path d="M0 0 C0.93972656 0.19207031 1.87945313 0.38414062 2.84765625 0.58203125 C5.68897319 1.35202364 7.03377012 1.78560518 9 4 C10.37801396 9.33706995 10.80192275 14.50495368 11 20 C11.66 20 12.32 20 13 20 C13.20625 19.443125 13.4125 18.88625 13.625 18.3125 C15.58139204 15.0222043 17.85741004 13.15667939 21 11 C23.5625 10.8125 23.5625 10.8125 26 12 C30.48914131 16.37533209 32.16073367 19.67099013 32.25 25.875 C32.14534079 36.41069406 29.99952878 47.69121715 22.484375 55.59375 C18.33476346 59.19846305 15.48325182 61 10 61 C9.67 59.35 9.34 57.7 9 56 C8.34 56 7.68 56 7 56 C6.70725222 57.87483151 6.41588984 59.74987933 6.125 61.625 C5.96257812 62.66914063 5.80015625 63.71328125 5.6328125 64.7890625 C5.49480225 65.73241455 5.49480225 65.73241455 5.35400391 66.69482422 C5.08361108 68.45554772 4.78351196 70.21173446 4.47021484 71.96533203 C3.36655403 78.60736345 2.90319688 84.89657476 3.1484375 91.6015625 C3.9594241 116.80355927 3.9594241 116.80355927 -1.09375 122.58984375 C-4.33186771 125.31045034 -7.89254313 127.18059256 -11.73535156 128.91259766 C-15.59922258 130.76788889 -18.99569603 133.3005587 -22.5 135.75 C-24.65785341 137.18066374 -26.82863769 138.58986241 -29 140 C-32.85691628 138.14945936 -36.54423295 136.00656926 -40.25 133.875 C-40.8996875 133.50246094 -41.549375 133.12992188 -42.21875 132.74609375 C-43.81306224 131.83170879 -45.4066079 130.91598744 -47 130 C-45.53880603 127.07761205 -43.58005273 126.90320487 -40.5625 125.75 C-28.47094114 120.81059107 -16.37745676 113.13851315 -9 102 C-8.29485154 99.85266073 -8.29485154 99.85266073 -8 98 C-12.10894295 100.23312117 -15.90647958 102.62016929 -19.6875 105.375 C-32.66432997 114.55951436 -44.13468343 118.26792489 -60 117 C-72.49314643 114.62750344 -82.2856839 107.34943605 -89.53515625 97.05859375 C-101.81458035 77.54686265 -108.36066772 59.14228744 -110.71069336 36.4453125 C-111.80809987 26.75216913 -114.4308557 18.04414235 -118 9 C-82.91869236 -10.92854115 -37.91099266 -11.739879 0 0 Z " fill="#FCFCFC" transform="translate(578,156)"/>
<path d="M0 0 C14.66781244 3.03881762 28.81375147 6.62358703 42.625 12.5 C43.2761377 12.77239502 43.92727539 13.04479004 44.59814453 13.32543945 C50.2298589 15.81630558 54.62802827 18.60060147 57.7265625 24.01953125 C59.69789431 29.37131087 60.40646523 35.09094561 61.375 40.6875 C64.09715354 55.73701559 67.71234276 70.54643389 71.4375 85.375 C71.70818298 86.45768158 71.97886597 87.54036316 72.25775146 88.65585327 C75.57867981 101.91110011 79.08126507 115.10215979 82.84483337 128.23910522 C83.12686111 129.22834991 83.40888885 130.2175946 83.69946289 131.23681641 C84.0767025 132.54750595 84.0767025 132.54750595 84.46156311 133.88467407 C85 136 85 136 85 138 C80.14260338 136.55365721 75.28924507 135.09896783 70.45703125 133.5703125 C51.71289761 127.69732476 32.49750267 123.4576327 13 121 C12.24307861 120.90356201 11.48615723 120.80712402 10.70629883 120.70776367 C1.23093997 119.67477387 -8.29361737 119.80575039 -17.8125 119.8125 C-19.1747168 119.81091385 -19.1747168 119.81091385 -20.56445312 119.80929565 C-32.98548688 119.80504375 -45.18705971 120.17507367 -57.53125 121.66015625 C-59.24828125 121.82837891 -59.24828125 121.82837891 -61 122 C-63.01606926 119.98393074 -62.71654404 116.1275763 -63.05078125 113.35546875 C-63.14968155 112.56625534 -63.24858185 111.77704193 -63.35047913 110.96391296 C-63.67486131 108.37222277 -63.99369975 105.77988221 -64.3125 103.1875 C-64.7560264 99.6207028 -65.20310105 96.0543628 -65.65234375 92.48828125 C-65.76455261 91.59657227 -65.87676147 90.70486328 -65.99237061 89.78613281 C-66.68915594 84.3001238 -67.43824551 78.82503625 -68.25390625 73.35546875 C-68.44364014 72.07969971 -68.63337402 70.80393066 -68.82885742 69.48950195 C-69.1851494 67.13147661 -69.54827677 64.77447096 -69.91918945 62.41870117 C-70.07734131 61.37045166 -70.23549316 60.32220215 -70.3984375 59.2421875 C-70.53942871 58.3435498 -70.68041992 57.44491211 -70.82568359 56.51904297 C-71.01264167 53.81731554 -70.64818179 51.61921961 -70 49 C-66.79544422 47.92707778 -65.23979237 48.03879168 -62.1875 49.4375 C-58.31456111 51.00975452 -55.21548637 51.40533523 -51 51 C-50.39800781 50.65324219 -49.79601562 50.30648437 -49.17578125 49.94921875 C-46.21870454 48.65914758 -44.11364084 49.09068321 -40.9375 49.5 C-36.17683247 50.23292601 -36.17683247 50.23292601 -32 48 C-29.9140625 47.98046875 -29.9140625 47.98046875 -27.625 48.1875 C-24.02424439 48.25179921 -23.21934556 48.15258822 -20.125 46 C-15.07376491 38.86884458 -14.5718742 32.625942 -15 24 C-14.19175781 23.84144531 -13.38351562 23.68289063 -12.55078125 23.51953125 C-7.79052233 22.48019848 -3.85551421 21.55937468 0.25 18.875 C2.69375108 14.86026608 2.68666948 11.58261526 2 7 C1.3649661 4.65785977 0.70352665 2.32248555 0 0 Z " fill="#FCFCFC" transform="translate(452,632)"/>
<path d="M0 0 C0 2.97 0 5.94 0 9 C-1.258125 9.515625 -2.51625 10.03125 -3.8125 10.5625 C-7.08808542 12.22058395 -7.96432633 12.94314509 -10 16.1875 C-11.40818695 21.55621274 -12.27335402 26.44938597 -9.7265625 31.55078125 C3.25585512 49.9670162 33.46951579 61.09287698 53.09448242 70.29541016 C62.90838904 74.89842863 72.25423039 79.54622519 81 86 C81.84175781 86.59683594 82.68351563 87.19367188 83.55078125 87.80859375 C88.16892792 91.6228712 89.54510056 94.90747394 90.4375 100.8125 C90.90037153 106.87387477 91.22363193 112.94093602 91.53515625 119.01171875 C91.58031372 119.88098999 91.62547119 120.75026123 91.67199707 121.64587402 C91.78193849 123.76388459 91.89105582 125.88193791 92 128 C91.22090617 127.99631283 90.44181234 127.99262566 89.63910961 127.98882675 C70.55254897 127.89992037 51.46603044 127.83402331 32.37930584 127.79275131 C23.14854616 127.77225448 13.91792593 127.7443852 4.68725586 127.69824219 C-3.37198707 127.65797471 -11.43112888 127.63247406 -19.49046963 127.62364602 C-23.7453489 127.61849766 -27.99993925 127.60667791 -32.2547245 127.57707977 C-74.40698431 127.18617028 -74.40698431 127.18617028 -114.06469727 140.09912109 C-116 141 -116 141 -119 141 C-116.28223331 124.44633014 -98.09818105 107.67959577 -87 96 C-86.35933594 95.29488281 -85.71867187 94.58976562 -85.05859375 93.86328125 C-73.14686662 81.17973595 -57.43872116 72.04674387 -41.5 65.5 C-40.18962769 64.95533081 -40.18962769 64.95533081 -38.8527832 64.3996582 C-38.02480225 64.0718335 -37.19682129 63.74400879 -36.34375 63.40625 C-35.60318359 63.11041016 -34.86261719 62.81457031 -34.09960938 62.50976562 C-30.87238205 61.72622485 -28.81943747 62.5410515 -25.984375 64.12890625 C-25.24703125 64.60199219 -24.5096875 65.07507813 -23.75 65.5625 C4.32902838 82.65408249 43.8073891 98 77 98 C65.95569204 93.52237028 54.90204574 89.0763813 43.75390625 84.86328125 C43.0546402 84.5990033 42.35537415 84.33472534 41.63491821 84.06243896 C40.93007294 83.79610657 40.22522766 83.52977417 39.49902344 83.25537109 C22.79599979 76.94324259 6.29286372 70.31853145 -10 63 C-10.88526367 62.60409668 -11.77052734 62.20819336 -12.68261719 61.80029297 C-14.96727118 60.76563878 -17.23635563 59.70471104 -19.5 58.625 C-20.6859375 58.06039062 -21.871875 57.49578125 -23.09375 56.9140625 C-26.65758052 54.56691606 -28.15981344 52.86616119 -30 49 C-30.55389132 45.56602034 -30.56997687 42.222142 -30.5 38.75 C-30.48936523 37.81212646 -30.47873047 36.87425293 -30.46777344 35.90795898 C-30.28510252 29.27226447 -29.48704733 23.76331434 -26 18 C-25.4225 16.948125 -24.845 15.89625 -24.25 14.8125 C-18.47331618 7.59164523 -9.7417785 0 0 0 Z " fill="#FDFDFD" transform="translate(465,222)"/>
<path d="M0 0 C16.14100786 -0.23134851 32.19582029 -0.05483395 48.3125 0.875 C49.03411316 0.91429626 49.75572632 0.95359253 50.49920654 0.99407959 C72.30186693 2.2041288 72.30186693 2.2041288 78 8 C79.92024754 10.28006448 81.68712525 12.65040544 83.4375 15.0625 C83.95119141 15.76076904 84.46488281 16.45903809 84.99414062 17.1784668 C86.09590105 18.6765237 87.19527933 20.17633498 88.29248047 21.67773438 C90.00152931 24.00207989 91.73356161 26.30744609 93.47265625 28.609375 C111.14015888 52.09168493 127.65343501 74.47916265 127.25 104.6875 C127.23728936 106.43781915 127.22551155 108.18814528 127.21459961 109.93847656 C127.17123135 115.62613322 127.09014436 121.31291309 127 127 C126.98455139 127.98752258 126.96910278 128.97504517 126.95318604 129.99249268 C126.63185898 150.03997853 126.1863464 170.0864581 125.5 190.125 C125.46463135 191.17075195 125.4292627 192.21650391 125.39282227 193.29394531 C125.11982872 200.54589633 124.59962276 207.76814198 124 215 C115.99960055 218.04361775 108.68562561 218.39835789 100.1875 218.25 C98.98673828 218.24484375 97.78597656 218.2396875 96.54882812 218.234375 C91.53879379 218.18971731 86.90693607 218.03643704 82 217 C81.98382629 216.29448502 81.96765259 215.58897003 81.95098877 214.86207581 C80.91180924 169.76289931 80.91180924 169.76289931 78.0625 124.75 C77.98318237 123.78289093 77.90386475 122.81578186 77.82214355 121.81936646 C76.90414328 110.80985951 75.67708272 99.88989372 73.96192932 88.97406006 C73.23681001 84.25477237 72.76113697 79.77726061 73 75 C74 74 74 74 76.88671875 73.98046875 C89.06543616 74.64385212 100.24233207 76.97570596 111 83 C107.80780741 75.37420658 102.88287145 72.13804722 95.63671875 68.89453125 C88.28217667 66.39943475 80.83218983 65.56343703 73.125 64.9375 C71.27316528 64.78318044 69.42158512 64.62576615 67.5703125 64.46484375 C66.76352051 64.399021 65.95672852 64.33319824 65.12548828 64.26538086 C63 64 63 64 60 63 C59.90203125 61.91203125 59.8040625 60.8240625 59.703125 59.703125 C58.55652491 48.04691081 56.86167131 37.80443829 50 28 C49.96241577 29.24088379 49.96241577 29.24088379 49.92407227 30.50683594 C49.80803651 34.25471192 49.685344 38.00234125 49.5625 41.75 C49.52318359 43.05195313 49.48386719 44.35390625 49.44335938 45.6953125 C49.38051758 47.57089844 49.38051758 47.57089844 49.31640625 49.484375 C49.27974854 50.63647461 49.24309082 51.78857422 49.20532227 52.97558594 C49.03547826 55.47740224 48.72031525 57.61091168 48 60 C43.06258103 58.66278236 39.93085052 56.61394061 36 53.375 C27.10006823 46.24935199 17.26747508 40.92838804 7 36 C7.55167864 33.05771394 8.21891964 30.25309768 9.0625 27.375 C10.62330737 21.07219772 11.43608708 14.00611074 8.375 8.0625 C5.76333901 4.69483189 3.62339152 3.14109499 0 1 C0 0.67 0 0.34 0 0 Z " fill="#FCFCFC" transform="translate(618,361)"/>
<path d="M0 0 C0.33 0 0.66 0 1 0 C1.19027973 12.20803527 1.35209554 24.4163815 1.5 36.625 C1.51187725 37.60439167 1.5237545 38.58378334 1.53599167 39.59285355 C2.12561727 89.03981393 2.08411042 138.48783336 2.0625 187.9375 C2.06207577 188.93662446 2.06165154 189.93574892 2.06121445 190.96514988 C2.04998541 216.97677549 2.02963166 242.98838897 2 269 C0.96721924 269.05406006 -0.06556152 269.10812012 -1.12963867 269.16381836 C-2.49660181 269.24298611 -3.86354414 269.32251352 -5.23046875 269.40234375 C-5.9097644 269.43694702 -6.58906006 269.47155029 -7.28894043 269.50720215 C-15.67760174 270.01444724 -19.76348288 272.91259512 -25.9375 278.3125 C-30.23215554 281.91468395 -30.23215554 281.91468395 -33.63671875 282.29296875 C-35.84986699 282.032394 -37.87330167 281.65752992 -40 281 C-38.22231474 275.41298918 -38.22231474 275.41298918 -36.95703125 273.0625 C-35.26911298 269.4248639 -35.3690124 265.91469858 -36 262 C-37.8471768 257.7255413 -40.18139541 254.65488367 -43.8125 251.75 C-49.99204733 243.98142621 -45.16352142 227.3094946 -44.15429688 217.86914062 C-41.9609896 196.32983224 -41.95457878 174.61948559 -41.87127876 152.98972893 C-41.85932444 149.91669025 -41.84499882 146.84367067 -41.83006287 143.77064514 C-41.82025272 141.69084699 -41.81049247 139.61104861 -41.80078125 137.53125 C-41.79587708 136.49329001 -41.79097292 135.45533003 -41.78592014 134.38591671 C-41.76249838 129.08047127 -41.74799554 123.77522681 -41.74951172 118.46972656 C-41.75030748 113.22711492 -41.72661889 107.98507903 -41.6876297 102.74261856 C-41.6773449 100.78391242 -41.67551222 98.82513848 -41.68328094 96.86642075 C-41.81668289 59.60414854 -26.44940471 27.65840256 -1 1 C-0.67 0.67 -0.34 0.34 0 0 Z " fill="#FDFDFD" transform="translate(793,462)"/>
<path d="M0 0 C0.70849091 0.07327515 1.41698181 0.14655029 2.14694214 0.2220459 C24.98760801 2.62311247 40.11881801 11.302884 56.83203125 26.5546875 C60.7885914 30.10729116 64.83695105 33.54940748 68.89160156 36.98925781 C71.56628134 39.26522756 74.16569369 41.55606652 76.625 44.0625 C75.27370353 44.54970213 73.91875684 45.02678184 72.5625 45.5 C71.80839844 45.76683594 71.05429687 46.03367187 70.27734375 46.30859375 C47.60036298 52.7543335 20.3312934 47.25006563 0.11572266 36.29101562 C-4.11857712 33.90568231 -8.10583958 31.25486081 -12.0625 28.4375 C-22.97028698 20.72773815 -33.46795692 16.8192069 -46.375 14.0625 C-47.22578125 13.86398437 -48.0765625 13.66546875 -48.953125 13.4609375 C-51.89662036 12.97668504 -54.70615367 12.96723795 -57.6875 13 C-58.75613281 13.00902344 -59.82476562 13.01804687 -60.92578125 13.02734375 C-61.73402344 13.03894531 -62.54226563 13.05054688 -63.375 13.0625 C-62.56417969 13.34222656 -61.75335938 13.62195313 -60.91796875 13.91015625 C-46.02578709 19.30185415 -30.66578405 28.30310791 -23.375 43.0625 C-23.375 44.0525 -23.375 45.0425 -23.375 46.0625 C-45.98591885 52.88843777 -67.4095017 41.31868178 -86.9375 31 C-110.06699383 18.79161705 -129.26446977 15.50768324 -155.375 16.0625 C-155.375 16.7225 -155.375 17.3825 -155.375 18.0625 C-154.51455078 18.30943604 -153.65410156 18.55637207 -152.76757812 18.81079102 C-149.10140955 20.16344259 -146.31859459 21.88879431 -143.09375 24.08984375 C-142.51717651 24.47942764 -141.94060303 24.86901154 -141.34655762 25.270401 C-139.51813899 26.50702765 -137.69620584 27.75278067 -135.875 29 C-134.05302291 30.2424328 -132.22967592 31.48271881 -130.40344238 32.71888733 C-128.7456643 33.8417792 -127.09242392 34.97136177 -125.43945312 36.10131836 C-122.49647922 37.98475601 -119.52807829 39.56301642 -116.375 41.0625 C-116.375 41.3925 -116.375 41.7225 -116.375 42.0625 C-137.20152977 46.92594575 -160.22414105 39.2682878 -178.2734375 29.1015625 C-188.96506634 22.07255714 -198.6013614 12.51550737 -202.375 0.0625 C-201.47265625 0.1346875 -200.5703125 0.206875 -199.640625 0.28125 C-174.23334686 2.14361535 -149.75092925 0.52379946 -124.54248047 -2.45019531 C-82.95848775 -7.33743725 -41.49854473 -4.49049093 0 0 Z " fill="#FCFCFC" transform="translate(509.375,776.9375)"/>
<path d="M0 0 C7.07818331 4.87063109 10.60843533 9.77150212 13 18 C13.53314599 22.28853481 13.52780571 26.52035153 13.48583984 30.83764648 C13.48963654 32.0827449 13.49343323 33.32784332 13.49734497 34.610672 C13.50344619 37.99484194 13.49184603 41.37801734 13.47143888 44.76206851 C13.45375597 48.3133822 13.45739497 51.86468213 13.4581604 55.41603088 C13.45629395 61.36981074 13.4390103 67.3233853 13.41162109 73.27709961 C13.380076 80.15963989 13.36962873 87.04195648 13.3710922 93.92456383 C13.37244216 101.26514486 13.35857716 108.60563982 13.34019899 115.94619489 C13.3359375 118.05859469 13.33451686 120.17098061 13.33372116 122.28338432 C13.33134176 126.21170858 13.31193096 130.13984636 13.29052734 134.06811523 C13.2918869 135.82371262 13.2918869 135.82371262 13.29327393 137.61477661 C13.28474396 138.68146072 13.27621399 139.74814484 13.26742554 140.84715271 C13.26407385 141.77531516 13.26072216 142.70347761 13.25726891 143.6597662 C13 146 13 146 11 149 C8.97518921 149.36076355 8.97518921 149.36076355 6.45849609 149.34057617 C5.04725967 149.34023628 5.04725967 149.34023628 3.60751343 149.33988953 C2.58976837 149.32440567 1.57202332 149.30892181 0.5234375 149.29296875 C-0.51694672 149.28872391 -1.55733093 149.28447906 -2.62924194 149.28010559 C-5.96142147 149.26327482 -9.29300241 149.22561422 -12.625 149.1875 C-14.88019962 149.17245887 -17.13540869 149.15876947 -19.390625 149.14648438 C-24.92728855 149.11335699 -30.46360152 149.0631142 -36 149 C-36.04690998 134.24766861 -36.0820813 119.49534721 -36.10362434 104.74295616 C-36.11389707 97.89176298 -36.12787992 91.04061639 -36.15087891 84.18945312 C-36.17309139 77.56937395 -36.18459171 70.94933021 -36.18975449 64.32921219 C-36.19343059 61.81205105 -36.20060875 59.29489235 -36.21146011 56.77775192 C-36.38577632 14.64081907 -36.38577632 14.64081907 -23.8203125 1.55859375 C-16.71697105 -4.52345182 -7.95312914 -4.35807999 0 0 Z " fill="#FEFEFE" transform="translate(730,138)"/>
<path d="M0 0 C0.78713379 -0.00161133 1.57426758 -0.00322266 2.38525391 -0.00488281 C16.25545464 0.25545464 16.25545464 0.25545464 19.375 3.375 C19.49927269 5.51897659 19.55305667 7.667051 19.58032227 9.81445312 C19.59021903 10.49072628 19.6001158 11.16699944 19.61031246 11.86376572 C19.64215336 14.12789075 19.66683414 16.39203525 19.69140625 18.65625 C19.71207402 20.24900792 19.73311754 21.84176101 19.7545166 23.43450928 C19.81038514 27.70082173 19.85969476 31.96718648 19.90742874 36.2335968 C19.93735674 38.86241645 19.96917396 41.49120614 20.00167847 44.11999512 C20.3156581 69.54032935 20.47588403 94.95222419 20.375 120.375 C2.885 120.375 -14.605 120.375 -32.625 120.375 C-32.70521762 103.6095177 -32.70521762 103.6095177 -32.72265625 96.24609375 C-32.73443356 91.29731755 -32.74807291 86.34861787 -32.77587891 81.39990234 C-32.86620509 64.79874012 -32.84109989 48.21348227 -31.9296875 31.6328125 C-31.87684601 30.43187958 -31.82400452 29.23094666 -31.76956177 27.99362183 C-31.21499715 19.51742056 -29.26054073 12.4382514 -23.5 6 C-15.70686313 1.59518351 -8.90346773 0.01734554 0 0 Z " fill="#FDFDFD" transform="translate(343.625,179.625)"/>
<path d="M0 0 C19.8 0 39.6 0 60 0 C61.30125639 7.15691013 62.51995936 14.26068457 63.515625 21.45703125 C63.79734546 23.46013765 64.0791693 25.46322952 64.36108398 27.46630859 C64.50617401 28.50261414 64.65126404 29.53891968 64.80075073 30.60662842 C67.4256893 49.33835839 70.19081632 68.03975157 73.22167969 86.71020508 C73.40275017 87.83198402 73.40275017 87.83198402 73.58747864 88.97642517 C73.9094046 90.96757477 74.23471633 92.95817614 74.56030273 94.94873047 C75 98 75 98 75 101 C58.5 101 42 101 25 101 C25 97.32965255 26.0752892 95.9000569 28 92.8125 C28.556875 91.91144531 29.11375 91.01039063 29.6875 90.08203125 C30.3371875 89.05142578 30.3371875 89.05142578 31 88 C30.26652344 87.73316406 29.53304688 87.46632813 28.77734375 87.19140625 C18.44466466 82.75896304 12.82579901 74.32122305 8.3125 64.4375 C5.45260595 57.14614074 4.10416328 49.71248205 3 42 C2.86319824 41.04802734 2.72639648 40.09605469 2.58544922 39.11523438 C2.14084651 35.93334263 1.72182528 32.74911417 1.3125 29.5625 C1.18085449 28.57548096 1.04920898 27.58846191 0.91357422 26.5715332 C-0.1762683 17.54402881 0 9.29881566 0 0 Z " fill="#FDFDFD" transform="translate(286,665)"/>
<path d="M0 0 C16.57783036 5.01919755 30.71273092 19.22487829 43 31 C44.12728516 32.06541016 44.12728516 32.06541016 45.27734375 33.15234375 C50.67237773 38.37644596 55.30932553 44.14661166 60 50 C61.58213244 51.91765808 63.16544462 53.8343435 64.75 55.75 C68.00965506 59.72894846 71.08246075 63.76486238 74 68 C73.67 68.66 73.34 69.32 73 70 C72.13125244 69.91435791 71.26250488 69.82871582 70.36743164 69.74047852 C67.00351354 69.41239404 63.63907954 69.09088946 60.27416992 68.77319336 C58.8442468 68.63697262 57.41453954 68.49845784 55.98510742 68.35717773 C29.9300946 65.78785109 3.7453841 65.76190996 -22.41088867 65.46777344 C-26.89049333 65.41662981 -31.3700482 65.36143952 -35.84960938 65.30664062 C-44.5663636 65.20057869 -53.28316075 65.09882731 -62 65 C-62.33893581 61.16714075 -62.67012787 57.33364909 -63 53.5 C-63.09539063 52.42234375 -63.19078125 51.3446875 -63.2890625 50.234375 C-63.78162326 44.46437756 -64.11244203 38.79076447 -64 33 C-62.87464844 32.85304688 -61.74929688 32.70609375 -60.58984375 32.5546875 C-49.97478012 31.05254488 -40.72634197 28.65251065 -31 24 C-30.35901367 23.69400879 -29.71802734 23.38801758 -29.05761719 23.07275391 C-17.43618912 17.41745273 -7.21779766 11.03208098 0 0 Z " fill="#FDFDFD" transform="translate(628,286)"/>
<path d="M0 0 C15.02521479 -0.09666835 30.04071162 0.2053194 45.0625 0.5 C47.58658572 0.54832493 50.11067424 0.59650311 52.63476562 0.64453125 C58.75654386 0.76133058 64.87828499 0.87993515 71 1 C70.88406494 2.19560547 70.76812988 3.39121094 70.64868164 4.62304688 C68.29423586 29.08494743 66.3130965 53.41922581 66 78 C65.06542969 78.08636719 64.13085938 78.17273438 63.16796875 78.26171875 C47.67681318 79.85245353 33.09945777 83.7083753 18.78564453 89.85229492 C15.04299343 91.41925601 12.8771376 92.26654943 9 91 C8.76692708 88.90234375 8.53385417 86.8046875 8.30078125 84.70703125 C8.22548691 84.02983536 8.15019257 83.35263947 8.07261658 82.65492249 C7.64142306 78.77608745 7.21111789 74.89715672 6.78222656 71.01806641 C5.85895033 62.67640511 4.9270247 54.33590232 3.97111511 45.99790955 C3.50752144 41.94965496 3.04818959 37.90092153 2.58920288 33.85214233 C2.36449728 31.87992865 2.13781773 29.90793879 1.90908813 27.93618774 C1.58529852 25.14291372 1.26854054 22.34891783 0.953125 19.5546875 C0.85644028 18.73613785 0.75975555 17.9175882 0.66014099 17.07423401 C0.02514197 11.36473492 -0.10391889 5.7423229 0 0 Z " fill="#FDFDFD" transform="translate(506,551)"/>
<path d="M0 0 C8.12812182 6.90664154 16.85071452 15.75494707 18.42236328 26.77197266 C19.05959415 34.82877185 18.70958843 41.37493961 15.125 48.6875 C12.155 47.6975 12.155 47.6975 9.125 46.6875 C9.455 40.0875 9.785 33.4875 10.125 26.6875 C8.145 25.6975 6.165 24.7075 4.125 23.6875 C4.125 30.2875 4.125 36.8875 4.125 43.6875 C1.485 43.3575 -1.155 43.0275 -3.875 42.6875 C-3.545 35.0975 -3.215 27.5075 -2.875 19.6875 C-4.525 19.3575 -6.175 19.0275 -7.875 18.6875 C-8.535 18.3575 -9.195 18.0275 -9.875 17.6875 C-9.875 24.9475 -9.875 32.2075 -9.875 39.6875 C-12.185 39.3575 -14.495 39.0275 -16.875 38.6875 C-16.875 31.0975 -16.875 23.5075 -16.875 15.6875 C-19.185 15.3575 -21.495 15.0275 -23.875 14.6875 C-23.875 21.9475 -23.875 29.2075 -23.875 36.6875 C-26.185 36.3575 -28.495 36.0275 -30.875 35.6875 C-30.90005615 35.09211426 -30.9251123 34.49672852 -30.95092773 33.88330078 C-31.06677494 31.19280864 -31.18955196 28.5026766 -31.3125 25.8125 C-31.35181641 24.87535156 -31.39113281 23.93820313 -31.43164062 22.97265625 C-31.47353516 22.07675781 -31.51542969 21.18085938 -31.55859375 20.2578125 C-31.59525146 19.43039551 -31.63190918 18.60297852 -31.66967773 17.75048828 C-31.75738327 15.62570571 -31.75738327 15.62570571 -32.875 13.6875 C-34.525 13.3575 -36.175 13.0275 -37.875 12.6875 C-37.875 19.9475 -37.875 27.2075 -37.875 34.6875 C-40.185 34.6875 -42.495 34.6875 -44.875 34.6875 C-44.875 27.4275 -44.875 20.1675 -44.875 12.6875 C-47.515 12.6875 -50.155 12.6875 -52.875 12.6875 C-52.875 19.9475 -52.875 27.2075 -52.875 34.6875 C-55.185 34.6875 -57.495 34.6875 -59.875 34.6875 C-59.875 27.4275 -59.875 20.1675 -59.875 12.6875 C-62.515 12.6875 -65.155 12.6875 -67.875 12.6875 C-67.875 19.9475 -67.875 27.2075 -67.875 34.6875 C-69.855 34.6875 -71.835 34.6875 -73.875 34.6875 C-73.875 27.7575 -73.875 20.8275 -73.875 13.6875 C-76.185 13.6875 -78.495 13.6875 -80.875 13.6875 C-81.205 21.2775 -81.535 28.8675 -81.875 36.6875 C-84.845 37.1825 -84.845 37.1825 -87.875 37.6875 C-88.37 27.2925 -88.37 27.2925 -88.875 16.6875 C-91.185 17.0175 -93.495 17.3475 -95.875 17.6875 C-95.875 24.9475 -95.875 32.2075 -95.875 39.6875 C-98.845 40.1825 -98.845 40.1825 -101.875 40.6875 C-102.37 30.7875 -102.37 30.7875 -102.875 20.6875 C-104.855 21.3475 -106.835 22.0075 -108.875 22.6875 C-108.875 29.6175 -108.875 36.5475 -108.875 43.6875 C-112.34 44.1825 -112.34 44.1825 -115.875 44.6875 C-116.205 38.7475 -116.535 32.8075 -116.875 26.6875 C-118.525 27.3475 -120.175 28.0075 -121.875 28.6875 C-121.545 34.9575 -121.215 41.2275 -120.875 47.6875 C-122.855 48.3475 -124.835 49.0075 -126.875 49.6875 C-130.61507497 39.62491735 -131.69138114 30.03481344 -127.13671875 20.0625 C-118.59126247 3.97693525 -105.53865479 -4.71637314 -88.44921875 -10.28125 C-60.59215315 -18.31869843 -24.31251617 -17.84291441 0 0 Z " fill="#FBFBFB" transform="translate(585.875,107.3125)"/>
<path d="M0 0 C7.55510146 2.09314939 13.4542535 5.36250141 19.47265625 10.34765625 C20.10816406 10.8478125 20.74367187 11.34796875 21.3984375 11.86328125 C31.54637152 20.77366234 34.82331957 34.6769156 37.47265625 47.34765625 C37.82457031 46.4040625 38.17648438 45.46046875 38.5390625 44.48828125 C45.01197438 27.49494057 54.1716638 10.21942204 71.421875 2.1953125 C78.90845886 -0.89914216 86.43162204 -1.37561138 94.47265625 -0.65234375 C96.86328125 0.36328125 96.86328125 0.36328125 98.47265625 1.34765625 C97.89257812 1.77175781 97.3125 2.19585937 96.71484375 2.6328125 C85.462405 11.08142576 78.20151669 21.18139421 75.82421875 35.421875 C75.53608951 37.81975054 75.28733885 40.21327499 75.05859375 42.6171875 C73.8452059 55.25939496 72.27448404 65.35621579 62.47265625 74.34765625 C52.60965599 82.33030034 41.96232184 83.45798246 29.64794922 82.62890625 C21.54013363 81.58062302 15.1349446 76.85551204 9.97265625 70.765625 C4.2282753 61.50580258 3.02518853 51.92249274 1.49414062 41.27148438 C-0.1054102 31.00096781 -2.37948371 20.68022882 -9.90234375 13.03515625 C-10.67191406 12.23722656 -11.44148437 11.43929688 -12.234375 10.6171875 C-12.99105469 9.86824219 -13.74773437 9.11929687 -14.52734375 8.34765625 C-15.23246094 7.62964844 -15.93757812 6.91164063 -16.6640625 6.171875 C-18.26964047 4.54675652 -19.88848798 2.93908532 -21.52734375 1.34765625 C-15.6112691 -2.59639351 -6.81201681 -1.2598082 0 0 Z " fill="#FDFDFD" transform="translate(200.52734375,355.65234375)"/>
<path d="M0 0 C6.10392779 3.17076517 11.4712531 7.33931124 16.91015625 11.51171875 C31.84507006 23.10885674 31.84507006 23.10885674 49.91015625 27.51171875 C51.81146944 36.47324159 53.23239898 45.38770216 54.09765625 54.51171875 C54.18128418 55.38272217 54.26491211 56.25372559 54.35107422 57.15112305 C54.80925124 62.29305165 54.98782248 67.3499018 54.91015625 72.51171875 C35.25007872 72.93524702 17.19119318 68.52523565 -0.71484375 60.63671875 C-5.66761056 58.54812066 -8.74166558 57.56284843 -14.08984375 58.51171875 C-18.80419407 60.77082961 -22.9405338 63.56228879 -26.96484375 66.88671875 C-29.08984375 68.51171875 -29.08984375 68.51171875 -33.08984375 68.51171875 C-31.74890236 64.57875149 -30.0591052 62.08484266 -27.21484375 59.07421875 C-24.84485448 56.50280182 -22.6422547 54.03485559 -20.77734375 51.07421875 C-19.08984375 48.51171875 -19.08984375 48.51171875 -16.08984375 46.51171875 C-14.046875 46.31640625 -14.046875 46.31640625 -11.90234375 46.38671875 C-10.64421875 46.42796875 -9.38609375 46.46921875 -8.08984375 46.51171875 C-8.74984375 45.52171875 -9.40984375 44.53171875 -10.08984375 43.51171875 C-14.76736656 42.96600775 -16.87599429 42.86263542 -21.0703125 45.10546875 C-24.56344304 47.88912775 -26.43134864 50.63778229 -28.65234375 54.44921875 C-31.37001229 59.03376514 -33.97856104 63.00013692 -38.08984375 66.51171875 C-39.07984375 66.51171875 -40.06984375 66.51171875 -41.08984375 66.51171875 C-41.812403 56.6760653 -34.74524613 47.60451656 -28.6875 40.30859375 C-24.03935493 35.08085113 -19.56639909 33.51140147 -12.9296875 31.63671875 C-9.83376468 30.41027339 -8.25490731 29.00387825 -6.08984375 26.51171875 C-19.49328936 26.82723276 -19.49328936 26.82723276 -30.86328125 33.203125 C-34.77896186 38.12257146 -37.45874817 43.83041501 -40.08984375 49.51171875 C-42.02734375 49.19921875 -42.02734375 49.19921875 -44.08984375 48.51171875 C-45.51864951 44.22530148 -45.99339512 40.60370813 -44.15136719 36.33886719 C-42.83655343 33.96157767 -41.42941793 31.67464162 -39.96484375 29.38671875 C-39.49046875 28.60167969 -39.01609375 27.81664062 -38.52734375 27.0078125 C-35.03977923 21.41828341 -31.5665929 16.67063513 -25.08984375 14.51171875 C-22.94696845 14.31056227 -20.80030491 14.14825204 -18.65234375 14.01171875 C-13.28105166 13.75975948 -13.28105166 13.75975948 -8.08984375 12.51171875 C-7.75984375 11.85171875 -7.42984375 11.19171875 -7.08984375 10.51171875 C-14.12029747 8.68900853 -20.49265727 7.04619833 -27.46484375 9.88671875 C-36.18980309 15.53111158 -42.868675 24.34426257 -49.08984375 32.51171875 C-50.07984375 32.18171875 -51.06984375 31.85171875 -52.08984375 31.51171875 C-52.69414049 24.26015783 -50.65038193 19.72263363 -46.13671875 14.0625 C-33.12837994 -0.78792875 -19.62270444 -7.692532 0 0 Z " fill="#FCFCFC" transform="translate(631.08984375,408.48828125)"/>
<path d="M0 0 C3.59147775 1.58870075 6.37644653 3.80780266 9.4375 6.25 C15.59086615 10.94658896 21.8214815 14.04754481 29 17 C29.01458252 17.64437012 29.02916504 18.28874023 29.04418945 18.95263672 C29.11955474 21.92730199 29.2159163 24.90095095 29.3125 27.875 C29.33505859 28.88820313 29.35761719 29.90140625 29.38085938 30.9453125 C29.72172215 40.61342037 31.06294372 49.05764723 37.8984375 56.2421875 C44.28552966 61.58455083 51.43743609 64.01096837 59.640625 64.31640625 C60.71054687 64.35830078 61.78046875 64.40019531 62.8828125 64.44335938 C63.99398437 64.48267578 65.10515625 64.52199219 66.25 64.5625 C67.93996094 64.62727539 67.93996094 64.62727539 69.6640625 64.69335938 C72.44256799 64.79931933 75.22126814 64.9001526 78 65 C77.67 69.62 77.34 74.24 77 79 C33.77 79 -9.46 79 -54 79 C-54 75.37 -54 71.74 -54 68 C-53.154375 67.90203125 -52.30875 67.8040625 -51.4375 67.703125 C-42.93871504 66.58283062 -36.47809916 65.39905145 -30.25 59.3125 C-25.13526335 52.45840847 -22.12007463 43.73956733 -21.94140625 35.19921875 C-21.77151756 27.81405737 -21.77151756 27.81405737 -19.44140625 25.35546875 C-18.06441274 24.42405209 -16.6683953 23.52034331 -15.2578125 22.640625 C-7.96954827 17.34465445 -3.62483176 8.03388192 0 0 Z " fill="#FCFCFC" transform="translate(245,746)"/>
<path d="M0 0 C4.23614128 3.44026019 6.88165482 6.95746447 8.625 12.1875 C9.43454969 20.04411341 8.51929237 27.23801693 4.625 34.1875 C1.43941584 37.75082141 -2.40327454 41.77145844 -7.328125 42.4609375 C-11.36937341 42.63963216 -14.53576305 42.61254285 -17.9375 40.25 C-20.76796852 36.69377032 -21.01524517 35.25962233 -20.71875 30.87890625 C-20.04812194 25.62819334 -19.27790797 20.40340587 -18.375 15.1875 C-22.4274561 15.00688914 -23.98759045 14.93955789 -27.5 17.1875 C-35.42212329 24.59251341 -37.3355864 36.68642216 -38.12109375 46.98828125 C-40.27502823 74.61454999 -40.27502823 74.61454999 -50.27734375 83.5390625 C-50.80312012 83.97766602 -51.32889648 84.41626953 -51.87060547 84.86816406 C-54.26839918 86.97100036 -56.15646846 89.43832083 -58.125 91.9375 C-62.24566327 97.03469388 -62.24566327 97.03469388 -64.35546875 99.52734375 C-72.81100274 109.67060908 -79.8898529 121.17791478 -85.375 133.1875 C-86.47999009 129.87252974 -86.31785172 128.05517704 -85.95703125 124.60546875 C-85.83924316 123.46102295 -85.72145508 122.31657715 -85.60009766 121.13745117 C-85.46394043 119.89584229 -85.3277832 118.6542334 -85.1875 117.375 C-85.04876465 116.08634033 -84.9100293 114.79768066 -84.76708984 113.4699707 C-75.44957617 28.01578544 -75.44957617 28.01578544 -48.0859375 4.23046875 C-34.21893054 -6.21973966 -15.04240078 -10.5936316 0 0 Z " fill="#FCFCFC" transform="translate(844.375,97.8125)"/>
<path d="M0 0 C4.54256043 3.50118294 7.83811076 7.87890212 8.9765625 13.5234375 C9.07635355 15.21421734 9.13085704 16.90797664 9.15234375 18.6015625 C9.57714706 38.64901099 11.96062681 55.51070562 24.9765625 71.5234375 C13.00837665 72.35681214 3.31769231 69.06607866 -6.0234375 61.5234375 C-14.90047464 53.7006803 -19.61191022 40.77723149 -22.0234375 29.5234375 C-24.16762798 32.73972321 -25.41747335 36.00079667 -26.7734375 39.5859375 C-29.27112777 45.98396184 -32.09604556 51.85514359 -36.0234375 57.5234375 C-36.46042969 58.15636719 -36.89742187 58.78929687 -37.34765625 59.44140625 C-44.35158082 68.5324602 -55.04521395 73.19515101 -66.0234375 75.5234375 C-68.79995904 75.77774353 -71.23477261 75.74215631 -74.0234375 75.5234375 C-73.64832031 74.98976563 -73.27320313 74.45609375 -72.88671875 73.90625 C-62.02935241 58.09879976 -59.73676475 43.63816292 -58.93286133 24.73681641 C-58.45981496 15.85591183 -57.52605786 6.4658523 -50.7734375 0.0234375 C-47.10923047 -2.71092774 -43.37366654 -4.12157313 -39.0234375 -5.4765625 C-38.43949219 -5.66089844 -37.85554688 -5.84523438 -37.25390625 -6.03515625 C-24.90811965 -8.47836796 -10.77817485 -6.46690491 0 0 Z " fill="#FDFDFD" transform="translate(264.0234375,453.4765625)"/>
<path d="M0 0 C8.69081498 6.82952017 12.85648001 16.03505189 17.5078125 25.80517578 C18.35362894 27.57454915 19.22245807 29.33287535 20.09375 31.08984375 C20.78984375 32.53037109 20.78984375 32.53037109 21.5 34 C21.90347656 34.83015625 22.30695313 35.6603125 22.72265625 36.515625 C23.53909789 39.06756282 23.39478936 40.27745834 22.4375 42.75 C21.4375 43.75 21.4375 43.75 18.125 44.125 C14.4375 43.75 14.4375 43.75 12.3125 41.875 C10.77187389 39.30728982 9.55574951 36.83597463 8.3125 34.125 C4.7455182 26.72434617 -1.00177316 19.26244008 -8.5625 15.75 C-5.7907119 24.21736559 -2.75230387 32.58040393 0.296875 40.95117188 C0.88082031 42.56282227 0.88082031 42.56282227 1.4765625 44.20703125 C2.00564209 45.6607312 2.00564209 45.6607312 2.54541016 47.14379883 C4.2246388 52.04959132 4.56360281 56.3237095 4.5 61.5 C4.49548828 62.19738281 4.49097656 62.89476562 4.48632812 63.61328125 C4.4746002 65.32555803 4.45666653 67.03779033 4.4375 68.75 C3.1175 69.08 1.7975 69.41 0.4375 69.75 C-2.00103313 66.77010552 -3.43149291 63.93991152 -4.796875 60.34765625 C-5.20292969 59.29787598 -5.60898437 58.2480957 -6.02734375 57.16650391 C-6.45144531 56.05968262 -6.87554687 54.95286133 -7.3125 53.8125 C-11.30072959 43.60655031 -15.46177224 33.90109164 -21.5625 24.75 C-20.92371147 37.09991154 -15.66196981 48.10060416 -10.15405273 58.9765625 C-6.87240783 65.61703042 -6.87240783 65.61703042 -7.5625 69.75 C-8.2225 70.41 -8.8825 71.07 -9.5625 71.75 C-12.35488375 71.59225631 -13.36094094 70.96721665 -15.26904297 68.91088867 C-19.81636001 62.25570767 -23.34674396 55.38848863 -26.6875 48.0625 C-31.21589722 36.37572528 -31.21589722 36.37572528 -39.5625 27.75 C-35.9552188 39.45999997 -32.05553568 50.58721882 -26.26171875 61.40234375 C-24.69825391 64.4825492 -23.5555801 67.44813468 -22.5625 70.75 C-23.75 72.3125 -23.75 72.3125 -25.5625 73.75 C-27.875 73.875 -27.875 73.875 -30.5625 72.75 C-41.14603531 62.85669525 -45.72593528 46.78508726 -50.82568359 33.59082031 C-51.55319865 31.69958802 -51.55319865 31.69958802 -52.5625 29.75 C-52.3401493 41.73672404 -49.77796412 52.4269248 -43.5625 62.75 C-43.375 65.5625 -43.375 65.5625 -43.5625 67.75 C-45.75 68.5 -45.75 68.5 -48.5625 68.75 C-58.41316043 63.69837927 -62.27468904 47.68408785 -65.5625 37.75 C-71.35277258 19.76190094 -71.35277258 19.76190094 -69.5625 12.75 C-64.08624751 2.87833432 -52.58763886 -2.33115642 -42.2890625 -5.5234375 C-28.19281863 -9.27974317 -12.41292217 -8.13260418 0 0 Z " fill="#FCFCFC" transform="translate(423.5625,603.25)"/>
<path d="M0 0 C18.96686487 -0.70669809 35.20122199 9.06996385 51.59765625 17.4765625 C67.96567516 25.86388912 84.17385171 32.06120853 102.796875 32.8828125 C105.125 33.19140625 105.125 33.19140625 107.125 35.19140625 C106.95703125 37.1875 106.95703125 37.1875 106.125 39.19140625 C94.7546871 46.27103504 80.15745747 48.26484558 67.04394531 45.80029297 C56.88063473 43.36548547 47.4366654 38.83386012 38.125 34.19140625 C38.52332031 34.78308594 38.92164063 35.37476563 39.33203125 35.984375 C39.86183594 36.77457031 40.39164063 37.56476562 40.9375 38.37890625 C41.45957031 39.15621094 41.98164062 39.93351563 42.51953125 40.734375 C44.12040633 43.18437604 45.63520362 45.67262138 47.125 48.19140625 C15.85809632 48.96026454 -17.05857622 33.74250147 -41.8046875 14.70703125 C-42.875 13.19140625 -42.875 13.19140625 -42.5625 11.00390625 C-42.2221875 10.10671875 -42.2221875 10.10671875 -41.875 9.19140625 C-40.89402344 8.9490625 -39.91304687 8.70671875 -38.90234375 8.45703125 C-37.53899821 8.11874858 -36.17572233 7.78018508 -34.8125 7.44140625 C-34.09384766 7.26311279 -33.37519531 7.08481934 -32.63476562 6.90112305 C-28.33824817 5.8284033 -24.05995782 4.70583175 -19.79077148 3.52929688 C-13.06345742 1.68436507 -6.94972223 0.46268531 0 0 Z " fill="#FCFCFC" transform="translate(591.875,771.80859375)"/>
<path d="M0 0 C-0.14346403 4.08341997 -0.29025559 8.16671473 -0.4375 12.25 C-0.47681641 13.37019531 -0.51613281 14.49039062 -0.55664062 15.64453125 C-0.74926148 20.94901322 -0.94623365 26.24741555 -1.27148438 31.54541016 C-1.81507891 40.64148569 -2.00860635 49.63095555 -1.7890625 58.7421875 C-1.7462119 61.76819117 -1.71080043 64.79417644 -1.67871094 67.8203125 C-1.64270442 69.8681013 -1.58154598 71.91559216 -1.49609375 73.96191406 C-0.7852803 92.02460092 -0.7852803 92.02460092 -6.22607422 98.30249023 C-9.30927704 101.34100126 -12.66186656 103.908187 -16.14135742 106.47138977 C-29.38441831 117.36292888 -37.54607594 137.24117421 -43 153 C-43.33 153 -43.66 153 -44 153 C-44.0466247 144.22805454 -44.0820207 135.45615265 -44.10362434 126.68410969 C-44.11400021 122.60959261 -44.12804411 118.53516117 -44.15087891 114.46069336 C-44.17283096 110.51844139 -44.18461503 106.57627107 -44.18975449 102.63396263 C-44.19341057 101.14029851 -44.20054809 99.64663815 -44.21146011 98.15300941 C-44.45642023 63.1883334 -26.78477864 27.01209011 -2.78125 1.65625 C-1 0 -1 0 0 0 Z " fill="#FDFDFD" transform="translate(798,251)"/>
<path d="M0 0 C0.20885981 11.20486327 0.3686104 22.40926091 0.46630955 33.61567688 C0.51321002 38.81984381 0.57678327 44.02267567 0.67895508 49.22607422 C0.77700545 54.25123127 0.83061134 59.27510742 0.85389519 64.30114746 C0.87047933 66.21500816 0.9028671 68.12880148 0.95157051 70.04211426 C1.31849195 85.05877229 1.31849195 85.05877229 -1.97575378 89.90892029 C-4.22268893 91.91469954 -6.42696023 93.4511263 -9 95 C-23.50795213 110.46152644 -33.29256062 129.43496157 -41 149 C-42.30086376 145.09740871 -41.86242943 141.58038375 -41.58984375 137.54296875 C-41.18057018 130.75307113 -40.88262787 123.97687188 -40.75390625 117.17578125 C-40.73733978 116.36406464 -40.72077332 115.55234802 -40.70370483 114.71603394 C-40.63770801 111.41941292 -40.57530886 108.12279955 -40.52319336 104.82592773 C-40.27396953 89.64118232 -39.63065929 74.91506048 -34.5625 60.4375 C-34.21687012 59.43009766 -33.87124023 58.42269531 -33.51513672 57.38476562 C-13.16979122 0 -13.16979122 0 0 0 Z " fill="#FCFCFC" transform="translate(794,358)"/>
<path d="M0 0 C3.65545915 2.81992563 4.9516015 5.54430638 6 10 C6.47072704 15.27214284 5.92582459 18.56407239 3 23 C-4.24594073 30.874315 -12.71606778 33.06727659 -22.95874023 34.70898438 C-29.37888103 35.84467441 -34.54717567 38.43024848 -40 42 C-39.01 42.31453125 -38.02 42.6290625 -37 42.953125 C-30.04636113 45.1959221 -23.42412932 47.46017364 -17 51 C-19.7094555 53.20492564 -22.00174642 54.52529707 -25.3515625 55.5 C-26.61673706 55.86907471 -26.61673706 55.86907471 -27.9074707 56.24560547 C-28.80425537 56.49455566 -29.70104004 56.74350586 -30.625 57 C-31.54692139 57.26055176 -32.46884277 57.52110352 -33.41870117 57.78955078 C-42.18425747 60.1901887 -51.00688097 61.74821054 -60 63 C-59.33613281 63.70125 -58.67226563 64.4025 -57.98828125 65.125 C-53.02348259 70.45944061 -48.60688617 75.62783443 -45 82 C-56.01713342 82.83148177 -64.4055642 77.87839623 -73.75 72.625 C-81.97827616 68.00058713 -90.0889383 64.1577732 -99 61 C-99.85319824 60.69545898 -100.70639648 60.39091797 -101.58544922 60.07714844 C-107.37818096 58.01593101 -113.18330056 55.9925195 -119 54 C-116.32189166 51.32189166 -114.57611071 51.51625289 -110.83203125 51.10546875 C-108.91946533 50.88322632 -108.91946533 50.88322632 -106.96826172 50.65649414 C-106.2901947 50.58044952 -105.61212769 50.50440491 -104.91351318 50.42605591 C-63.6669939 46.08211562 -63.6669939 46.08211562 -30.58398438 23.23730469 C-27.9719912 19.84702384 -25.44012193 16.40332924 -22.9296875 12.9375 C-10.2014497 -4.37204987 -10.2014497 -4.37204987 0 0 Z " fill="#FBFBFB" transform="translate(741,715)"/>
<path d="M0 0 C0.9583374 0.00523682 1.9166748 0.01047363 2.90405273 0.01586914 C4.45576172 0.02070312 4.45576172 0.02070312 6.03881836 0.02563477 C7.12743164 0.03401367 8.21604492 0.04239258 9.33764648 0.05102539 C10.97636719 0.05779297 10.97636719 0.05779297 12.64819336 0.06469727 C15.35723144 0.07652713 18.06616248 0.09300996 20.77514648 0.11352539 C20.95577637 1.23919922 21.13640625 2.36487305 21.32250977 3.5246582 C26.03669393 32.84675439 26.03669393 32.84675439 31.99633789 61.93481445 C32.23143066 62.97089844 32.46652344 64.00698242 32.70874023 65.07446289 C32.9155542 65.95924316 33.12236816 66.84402344 33.33544922 67.75561523 C33.77514648 70.11352539 33.77514648 70.11352539 33.77514648 74.11352539 C16.28514648 74.11352539 -1.20485352 74.11352539 -19.22485352 74.11352539 C-16.84510366 63.40465106 -14.42957258 52.75221331 -11.78735352 42.11352539 C-9.08595467 31.12424073 -6.75445007 20.10748608 -4.73486328 8.97290039 C-4.54851318 7.95196289 -4.36216309 6.93102539 -4.17016602 5.87915039 C-4.0104834 4.97970703 -3.85080078 4.08026367 -3.6862793 3.15356445 C-3.05069162 0.34352709 -2.91125649 0.14854979 0 0 Z " fill="#FCFCFC" transform="translate(604.224853515625,551.886474609375)"/>
<path d="M0 0 C21.12 0 42.24 0 64 0 C58.67014263 29.31421552 47.36068006 52.76890852 25 73 C23.28989104 70.43483656 22.56891682 68.97204754 21.76464844 66.11645508 C21.54045227 65.33888351 21.3162561 64.56131195 21.08526611 63.76017761 C20.84572205 62.91763931 20.60617798 62.07510101 20.359375 61.20703125 C17.05287969 49.88945237 13.18869193 38.79769285 9.25 27.6875 C8.23926986 24.82731273 7.22991621 21.96665453 6.22283936 19.10517883 C5.60410845 17.34800161 4.98320462 15.59158733 4.35968018 13.83610535 C4.07888611 13.04029556 3.79809204 12.24448578 3.50878906 11.42456055 C3.26485413 10.73653854 3.02091919 10.04851654 2.76959229 9.33964539 C1.75495023 6.25502168 0.89207843 3.12227449 0 0 Z " fill="#FDFDFD" transform="translate(669,665)"/>
<path d="M0 0 C-0.42564114 5.51093268 -0.8863482 11.01578207 -1.4765625 16.51171875 C-2.41431019 25.30720658 -3.12642854 34.03351526 -3.4375 42.875 C-4.09478164 59.33116135 -7.15482281 72.18556422 -18.66015625 84.4375 C-31.95016275 98.99216489 -36.9214515 115.91798284 -39.96142578 134.98510742 C-40.24505293 136.66848316 -40.61490567 138.33690031 -41 140 C-41.66 140.33 -42.32 140.66 -43 141 C-43.86658127 98.38197773 -42.2262108 42.98396604 -13 9 C-4.06521739 0 -4.06521739 0 0 0 Z " fill="#FBFBFB" transform="translate(853,446)"/>
<path d="M0 0 C-0.18980053 5.95595615 -0.40250821 11.91053831 -0.63476562 17.86499023 C-0.71043891 19.88267737 -0.78028644 21.90059309 -0.84375 23.91870117 C-1.61800827 48.25339661 -6.0635879 68.02990959 -21.1171875 87.77734375 C-30.77295053 100.47558306 -34.07892201 114.78678596 -38 130 C-38.33 130 -38.66 130 -39 130 C-40.44057437 40.39627427 -40.44057437 40.39627427 -16 12 C-4.07465008 0 -4.07465008 0 0 0 Z " fill="#FCFCFC" transform="translate(852,296)"/>
<path d="M0 0 C-0.13277344 1.15628906 -0.26554688 2.31257812 -0.40234375 3.50390625 C-1.31372728 11.95688049 -2.04048769 20.37196736 -2.25 28.875 C-2.26720596 29.55094711 -2.28441193 30.22689423 -2.30213928 30.92332458 C-2.38320486 34.27734764 -2.4439612 37.62970881 -2.48217773 40.98461914 C-2.70935493 52.28323694 -3.46417314 63.75614307 -12 72 C-14.70570357 74.16138435 -17.46163982 76.18075698 -20.31640625 78.140625 C-21.20199219 78.75421875 -22.08757813 79.3678125 -23 80 C-23.87527344 80.60457031 -24.75054688 81.20914063 -25.65234375 81.83203125 C-34.77539302 90.25681052 -36.50501319 108.41086999 -39 120 C-41.11326517 116.83010225 -41.25557151 116.04265526 -41.265625 112.4140625 C-41.26989502 111.49463867 -41.27416504 110.57521484 -41.27856445 109.62792969 C-41.26913818 108.63696289 -41.25971191 107.64599609 -41.25 106.625 C-41.24250732 105.5927832 -41.23501465 104.56056641 -41.22729492 103.49707031 C-40.78141948 70.92574467 -37.19564366 32.06918559 -13 8 C-4.55279503 0 -4.55279503 0 0 0 Z " fill="#FCFCFC" transform="translate(853,607)"/>
<path d="M0 0 C11.22 0 22.44 0 34 0 C33.01 24.42 32.02 48.84 31 74 C15 71 15 71 9 66 C7.84570312 63.74169922 7.84570312 63.74169922 7.28125 61.4296875 C7.06082031 60.55924805 6.84039062 59.68880859 6.61328125 58.79199219 C6.30970703 57.40995605 6.30970703 57.40995605 6 56 C5.78730469 55.05543945 5.57460938 54.11087891 5.35546875 53.13769531 C4.70653967 50.13888653 4.09781194 47.13439343 3.5 44.125 C2.22131688 37.77933603 0.93293318 31.48723514 -0.8125 25.25 C-3.12178625 16.32775768 -2.2243048 8.8972192 0 0 Z " fill="#FDFDFD" transform="translate(434,551)"/>
<path d="M0 0 C1.02582241 5.76995657 2.0461516 11.54086704 3.0625 17.3125 C3.21795288 18.19525604 3.37340576 19.07801208 3.53356934 19.98751831 C6.36644013 36.10803152 9.0317609 52.25283945 11.60180664 68.41723633 C11.87460182 70.12329942 12.14794442 71.82927509 12.421875 73.53515625 C12.55234726 74.34833817 12.68281952 75.16152008 12.81724548 75.99934387 C13.84900052 82.31932071 15.09410967 88.57754121 16.45800781 94.83374023 C16.99263529 97.95697617 17.09910544 100.83847691 17 104 C13.38132441 105.2062252 10.07493749 105.10816918 6.3125 105.0625 C5.61060547 105.05798828 4.90871094 105.05347656 4.18554688 105.04882812 C2.45699462 105.03706927 0.72848635 105.01913454 -1 105 C-1.23187012 104.35450195 -1.46374023 103.70900391 -1.70263672 103.04394531 C-2.75754645 100.11170748 -3.81623165 97.18084665 -4.875 94.25 C-5.23980469 93.23421875 -5.60460937 92.2184375 -5.98046875 91.171875 C-6.33496094 90.1921875 -6.68945312 89.2125 -7.0546875 88.203125 C-7.37937012 87.30239258 -7.70405273 86.40166016 -8.03857422 85.47363281 C-8.89266547 83.05176578 -8.89266547 83.05176578 -10.10009766 81.2277832 C-11.54436536 77.65237821 -11.32004305 73.9548657 -11.34375 70.15234375 C-11.35769302 69.27581146 -11.37163605 68.39927917 -11.38600159 67.4961853 C-11.41579456 65.61735507 -11.4417162 63.7384602 -11.46414185 61.85952759 C-11.65997883 45.90106356 -12.20660495 30.07670949 -13.59765625 14.17578125 C-13.97838168 9.76242499 -14.07879484 5.42826998 -14 1 C-12.04175306 0.83232136 -10.08339945 0.66588795 -8.125 0.5 C-6.48917969 0.36078125 -6.48917969 0.36078125 -4.8203125 0.21875 C-3.21670436 0.09437042 -1.60842449 0 0 0 Z " fill="#FBFBFB" transform="translate(665,550)"/>
<path d="M0 0 C6.27 0 12.54 0 19 0 C19 27.72 19 55.44 19 84 C15.17665473 83.23533095 11.73152908 82.34403247 8.04296875 81.15234375 C6.37524414 80.61577148 6.37524414 80.61577148 4.67382812 80.06835938 C3.52333984 79.69517578 2.37285156 79.32199219 1.1875 78.9375 C0.01767578 78.56044922 -1.15214844 78.18339844 -2.35742188 77.79492188 C-5.23908292 76.86573321 -8.11989868 75.93400972 -11 75 C-10.01161623 67.8785941 -9.02052235 60.75757049 -8.02622509 53.63698769 C-7.56431564 50.32847734 -7.10351047 47.01982238 -6.64428711 43.7109375 C-4.61649262 29.10417774 -2.51713222 14.53107875 0 0 Z " fill="#FAFAFA" transform="translate(479,551)"/>
<path d="M0 0 C0.66 0.33 1.32 0.66 2 1 C1.89941001 7.31752782 1.69876958 13.62651995 1.43237305 19.93920898 C1.35334277 22.08075249 1.29619115 24.22323116 1.26245117 26.3659668 C0.92657581 46.09059235 0.92657581 46.09059235 -5.52064514 52.90202332 C-7.77157495 54.97539208 -10.09509398 56.91570312 -12.51211548 58.79202271 C-15.47683324 61.19900503 -17.58930852 64.26086053 -19.75 67.375 C-20.41092651 68.3043335 -20.41092651 68.3043335 -21.08520508 69.25244141 C-29.45372279 81.19283229 -36.03231607 93.71499245 -42 107 C-42.33 107 -42.66 107 -43 107 C-43.34946361 66.44609192 -37.18617019 37.72087865 -8 8 C-7.18660156 7.17113281 -6.37320313 6.34226563 -5.53515625 5.48828125 C-3.70379676 3.64404753 -1.86161347 1.81360625 0 0 Z " fill="#FCFDFC" transform="translate(800,189)"/>
<path d="M0 0 C10.52833301 1.41333653 22.53732659 8.49760325 29.29296875 16.5390625 C32.25678502 20.80776716 32.71808077 25.10693178 32.5078125 30.23046875 C30.48217468 41.27798576 18.68715856 49.97632775 10.046875 56.05078125 C-0.56188184 62.83766543 -13.99433962 70.20982887 -27 69 C-30.06902386 63.59851801 -30.06902386 63.59851801 -29.76538086 60.96557617 C-28.43235924 57.54224059 -25.345134 55.57176476 -22.5625 53.3125 C-21.27119965 52.23810286 -19.98083921 51.16257507 -18.69140625 50.0859375 C-18.05734863 49.55967773 -17.42329102 49.03341797 -16.77001953 48.49121094 C-14.4519707 46.53829476 -12.22500658 44.4953525 -10 42.4375 C-5.40207398 38.25338732 -0.56068921 34.42768786 4.35546875 30.62866211 C6.67976909 28.83222604 8.92020316 27.07979684 11 25 C10.98165269 22.94059969 10.98165269 22.94059969 10 21 C8.03814555 19.79701672 6.05111611 19.05805801 3.91015625 18.22265625 C1.23995267 16.51350754 0.82660669 15.03231883 0 12 C-0.1953125 8.88671875 -0.1953125 8.88671875 -0.125 5.6875 C-0.10695313 4.61886719 -0.08890625 3.55023438 -0.0703125 2.44921875 C-0.04710937 1.64097656 -0.02390625 0.83273438 0 0 Z " fill="#FBFBFB" transform="translate(591,242)"/>
<path d="M0 0 C7.26 0.66 14.52 1.32 22 2 C23.7078444 21.10494482 24.25566707 40.01272326 24.125 59.1875 C24.11492949 61.81054338 24.10581098 64.43359059 24.09765625 67.05664062 C24.07601272 73.37117995 24.04287098 79.68557086 24 86 C4.34038311 66.8752566 2.16705102 30.69105176 0 5 C0 3.35 0 1.7 0 0 Z " fill="#FBFBFB" transform="translate(666,490)"/>
<path d="M0 0 C7.58334001 14.43383623 4.16512822 32.74834588 1 48 C0.67 48.99 0.34 49.98 0 51 C4.48949137 52.75199663 8.18031481 53.53552058 13 53 C13.639375 52.34 14.27875 51.68 14.9375 51 C17.36790975 48.64323903 17.9926213 48.72718124 21.25 48.75 C22.4875 48.8325 23.725 48.915 25 49 C24.45275433 45.1692803 22.71844729 43.63075544 20 41 C20 40.34 20 39.68 20 39 C27.31564786 39.68321424 30.44538349 43.57512641 35 49 C38.9676197 54.44721121 41.70442863 59.20185843 42 66 C37.78540627 62.04881838 34.30274333 57.67620362 30.76953125 53.109375 C29.1709214 50.91970191 29.1709214 50.91970191 27 50 C26.7215625 51.1446875 26.7215625 51.1446875 26.4375 52.3125 C24.45144513 56.02555911 21.79359995 56.72828183 18 58 C17.2575 58.27972656 16.515 58.55945313 15.75 58.84765625 C11.42003317 60.42019488 7.65743764 61.63510513 3 61 C-0.20005038 59.4371847 -2.61488243 57.63618257 -5 55 C-5.27585937 55.71542969 -5.55171875 56.43085938 -5.8359375 57.16796875 C-6.98248522 59.95738855 -8.26227115 62.62290358 -9.625 65.3125 C-10.07101562 66.19550781 -10.51703125 67.07851562 -10.9765625 67.98828125 C-11.31429688 68.65214844 -11.65203125 69.31601563 -12 70 C-12.33 70 -12.66 70 -13 70 C-13.62217851 63.06715372 -11.35839737 57.35060798 -9.0625 50.875 C-8.32161083 48.74830258 -7.58323513 46.62072747 -6.84765625 44.4921875 C-6.51773682 43.55745605 -6.18781738 42.62272461 -5.84790039 41.65966797 C-4.33239736 36.90588448 -3.8827374 32.67089642 -3.9375 27.6875 C-3.94652344 26.61886719 -3.95554687 25.55023438 -3.96484375 24.44921875 C-3.97644531 23.64097656 -3.98804688 22.83273438 -4 22 C-6.54217303 23.51259295 -9.04757867 25.0321156 -11.5 26.6875 C-14.328711 28.17257327 -15.85429317 28.49669055 -19 28 C-20.8125 26.625 -20.8125 26.625 -22 25 C-22 24.34 -22 23.68 -22 23 C-22.969375 23.185625 -23.93875 23.37125 -24.9375 23.5625 C-25.948125 23.706875 -26.95875 23.85125 -28 24 C-29 23 -29 23 -29.0625 20.4375 C-29.041875 19.633125 -29.02125 18.82875 -29 18 C-23.42792381 14.85937524 -18.50739194 12.65138972 -12 13 C-9.41883821 13.74967567 -7.39231636 14.7274913 -5 16 C-5 15.34 -5 14.68 -5 14 C-13.08025395 11.99781318 -23.45138128 9.49229404 -31 14 C-32 13 -32 13 -32.25 10.125 C-32 7 -32 7 -30.9453125 5.44140625 C-28.10684133 3.33820171 -25.0048356 2.62651674 -21.625 1.8125 C-20.92052734 1.6381543 -20.21605469 1.46380859 -19.49023438 1.28417969 C-12.97404577 -0.21436774 -6.67190753 -0.41128197 0 0 Z " fill="#060606" transform="translate(505,165)"/>
<path d="M0 0 C7.625 1.75 7.625 1.75 11 4 C12.23027134 7.04689383 12.69246482 10.34294495 13.3125 13.5625 C13.52052246 14.62243164 13.72854492 15.68236328 13.94287109 16.77441406 C17.67824076 37.00651947 19.6910889 57.56755754 22 78 C22.09279236 78.81960205 22.18558472 79.6392041 22.28118896 80.48364258 C24.90824938 103.77785966 26.17575043 126.55489206 26 150 C25.67 150 25.34 150 25 150 C18.62246347 114.92841292 12.57811084 79.81269043 6.875 44.625 C6.58493384 42.83772731 6.29486428 41.05045517 6.00479126 39.26318359 C5.31445107 35.0068689 4.62632381 30.75020223 3.9401989 26.49320602 C3.68660414 24.91994965 3.43266308 23.34674904 3.17834663 21.77360916 C2.82817817 19.60533206 2.47994572 17.43675311 2.13232422 15.26806641 C1.83900711 13.44343369 1.83900711 13.44343369 1.5397644 11.5819397 C0.95883202 7.72680446 0.4685133 3.87025629 0 0 Z " fill="#F8F8F8" transform="translate(621,475)"/>
<path d="M0 0 C1.33741991 2.67483983 0.84153154 4.15879333 0.40063477 7.1105957 C0.24320297 8.1766655 0.08577118 9.24273529 -0.07643127 10.34111023 C-0.25616989 11.50342667 -0.43590851 12.6657431 -0.62109375 13.86328125 C-0.80473984 15.07212479 -0.98838593 16.28096832 -1.17759705 17.52644348 C-3.22545752 30.79216122 -5.59427608 43.99441354 -8.0625 57.1875 C-8.4115892 59.06569931 -8.4115892 59.06569931 -8.76773071 60.98184204 C-13.46342403 86.15726413 -19.00775256 111.10441016 -25 136 C-25.33 136 -25.66 136 -26 136 C-27.82131693 101.79971551 -20.60398313 66.79177431 -15.72167969 33.05175781 C-15.20292951 29.45460449 -14.70784768 25.85489078 -14.22363281 22.25292969 C-14.0284758 20.82507645 -14.0284758 20.82507645 -13.82937622 19.36837769 C-13.57983784 17.54023395 -13.33515594 15.71141839 -13.09616089 13.88186646 C-11.95807204 5.62667818 -11.95807204 5.62667818 -10 2 C-7.6171875 1.07421875 -7.6171875 1.07421875 -4.875 0.6875 C-3.96492187 0.54699219 -3.05484375 0.40648437 -2.1171875 0.26171875 C-1.41851563 0.17535156 -0.71984375 0.08898437 0 0 Z " fill="#F8F8F8" transform="translate(605,483)"/>
<path d="M0 0 C1.09441406 -0.02416992 1.09441406 -0.02416992 2.2109375 -0.04882812 C11.41978162 -0.05705031 17.22220808 3.95972989 23.625 10.3125 C26.03212873 12.92022279 28.35668551 15.58343413 30.625 18.3125 C25.95979711 23.63301567 18.86084278 25.8490083 11.9921875 26.60058594 C9.09431082 26.77721272 6.2155696 26.85296486 3.3125 26.875 C2.38203857 26.88942139 1.45157715 26.90384277 0.49291992 26.91870117 C-5.56790235 26.83039206 -10.34654479 25.82308843 -15.375 22.3125 C-18.21784446 19.11429998 -19.23631366 17.07527488 -20 12.875 C-19.17008837 8.14450371 -17.06394686 5.34527844 -13.375 2.3125 C-9.065014 -0.01597186 -4.79015554 -0.02093599 0 0 Z " fill="#FCFCFC" transform="translate(724.375,776.6875)"/>
<path d="M0 0 C3 1 3 1 3.88769531 2.6796875 C5.79252114 8.73633313 6.85570555 14.72278088 7.75 21 C9.0812359 29.69951881 10.98389061 38.00700339 13.5 46.4375 C17.17067766 58.80435029 19.32219736 71.22297916 21 84 C21.1038501 84.70592285 21.2077002 85.4118457 21.31469727 86.13916016 C22.24920742 93.12269564 22.18609525 100.15328083 22.18530273 107.18603516 C22.1875162 109.3911394 22.2058069 111.59576335 22.22460938 113.80078125 C22.22753923 115.20833164 22.22952675 116.61588438 22.23046875 118.0234375 C22.23457764 119.29106934 22.23868652 120.55870117 22.24291992 121.86474609 C22 125 22 125 20 128 C19.72905518 126.34121826 19.72905518 126.34121826 19.45263672 124.64892578 C15.11047049 98.17406947 10.7594815 72.0281564 2.33959961 46.48852539 C-1.00069574 36.20565539 -2.12866908 26.33143902 -2.25 15.5625 C-2.2595874 14.81645508 -2.2691748 14.07041016 -2.27905273 13.30175781 C-2.24945675 8.51258957 -1.50985045 4.54752577 0 0 Z " fill="#050505" transform="translate(236,584)"/>
<path d="M0 0 C2.99302316 2.99302316 4.87401813 5.90552048 6 10 C5.75039819 13.1399908 5.47830173 14.55392071 3.14453125 16.73046875 C-4.37386656 21.42789318 -10.96146353 24.48194616 -20 23 C-27.77112746 19.87012784 -33.41629578 14.06924372 -39 8 C-37.54253764 4.65685181 -35.69015913 2.3921789 -33.125 -0.1875 C-32.10792969 -1.22970703 -32.10792969 -1.22970703 -31.0703125 -2.29296875 C-23.00843966 -8.94021108 -7.69263839 -5.60441719 0 0 Z " fill="#FBFBFB" transform="translate(808,744)"/>
<path d="M0 0 C15.94416046 -0.07676226 31.87221864 0.16274733 47.8125 0.5 C50.17382413 0.54837249 52.53515225 0.59655063 54.89648438 0.64453125 C60.59770454 0.76078938 66.29886489 0.8796459 72 1 C71.67 4.63 71.34 8.26 71 12 C47.57 12 24.14 12 0 12 C0 8.04 0 4.08 0 0 Z " fill="#FCFCFC" transform="translate(507,531)"/>
<path d="M0 0 C5.14877182 4.30976583 5.14877182 4.30976583 7.1171875 6.97265625 C7.12109375 9.62109375 7.12109375 9.62109375 6.1171875 11.97265625 C4.4453125 13.30078125 4.4453125 13.30078125 2.3671875 14.22265625 C1.69171875 14.5371875 1.01625 14.85171875 0.3203125 15.17578125 C-9.17657353 18.61082513 -20.1543047 18.102374 -29.3984375 14.24609375 C-39.14212766 9.25168653 -39.14212766 9.25168653 -40.59375 4.78515625 C-40.68914063 4.18703125 -40.78453125 3.58890625 -40.8828125 2.97265625 C-30.56650502 -7.34365123 -11.85675116 -8.33828436 0 0 Z " fill="#FCFCFC" transform="translate(795.8828125,780.02734375)"/>
<path d="M0 0 C3.44307461 4.28348623 5.02633571 8.81063212 6.875 13.9375 C7.22506104 14.90300781 7.57512207 15.86851562 7.93579102 16.86328125 C12.8744552 30.8730309 17.11248531 45.92386874 17.203125 60.85546875 C17.20882507 61.59775223 17.21452515 62.34003571 17.22039795 63.10481262 C17.22980306 64.67052811 17.23636397 66.236263 17.24023438 67.80200195 C17.24990088 70.16328697 17.28094992 72.52368574 17.3125 74.88476562 C17.37024008 83.3722219 16.94089682 90.91475162 14 99 C13.67 99 13.34 99 13 99 C12.87995605 98.03215576 12.75991211 97.06431152 12.63623047 96.06713867 C10.39038211 78.0611029 7.97921467 60.11959907 4.8125 42.25 C-0.1560892 14.15729047 -0.1560892 14.15729047 0 0 Z " fill="#060606" transform="translate(712,459)"/>
<path d="M0 0 C7.85787368 7.16884371 7.85787368 7.16884371 8.09765625 11.9453125 C8.06510417 13.96354167 8.03255208 15.98177083 8 18 C2.2621538 20.8689231 -7.75629448 19.63333564 -13.9609375 18.421875 C-21.01945379 15.90913457 -26.47080986 10.91950758 -32 6 C-23.26707041 -3.027961 -11.554948 -6.20468159 0 0 Z " fill="#FBFBFB" transform="translate(778,807)"/>
<path d="M0 0 C5.02720907 3.580889 9.27453399 8.37846459 10.96875 14.40234375 C6.21768244 13.93502563 1.63469457 13.3473448 -3.03125 12.33984375 C-16.87523376 9.76965267 -29.50756922 10.82741134 -42.03125 17.40234375 C-42.69125 17.40234375 -43.35125 17.40234375 -44.03125 17.40234375 C-42.68531289 11.42040103 -39.5362872 7.40499106 -35.03125 3.40234375 C-24.71164236 -3.03354059 -11.29190049 -5.91982097 0 0 Z " fill="#040404" transform="translate(394.03125,472.59765625)"/>
<path d="M0 0 C5.28 1.32 10.56 2.64 16 4 C18.21824405 15.56655826 20.41458587 27.18430263 20 39 C18.06280622 39.05406122 16.12518079 39.09282025 14.1875 39.125 C13.10855469 39.14820313 12.02960937 39.17140625 10.91796875 39.1953125 C8 39 8 39 5 37 C4.38188418 34.53168893 3.95024693 32.2352354 3.61328125 29.7265625 C3.50654587 29.00640961 3.39981049 28.28625671 3.2898407 27.54428101 C2.95170637 25.23945337 2.63228334 22.93243743 2.3125 20.625 C2.0864311 19.0779573 1.85923075 17.53107949 1.63085938 15.984375 C0 4.75546984 0 4.75546984 0 0 Z " fill="#F9F9F9" transform="translate(641,484)"/>
<path d="M0 0 C5.65592129 -0.02489739 11.31181 -0.04295273 16.96777344 -0.05493164 C18.88802649 -0.05993062 20.8082758 -0.066732 22.72851562 -0.07543945 C25.50391572 -0.08770084 28.27926507 -0.09327281 31.0546875 -0.09765625 C31.8998996 -0.10281754 32.74511169 -0.10797882 33.61593628 -0.11329651 C39.47399477 -0.11383604 45.17808763 0.34327374 51 1 C51.495 6.445 51.495 6.445 52 12 C46.6287823 11.88080143 41.25771443 11.75650133 35.88671875 11.62768555 C34.06350832 11.58465185 32.2402657 11.542958 30.41699219 11.50268555 C27.78050072 11.44420915 25.14416662 11.3807475 22.5078125 11.31640625 C21.30561569 11.29133751 21.30561569 11.29133751 20.07913208 11.26576233 C15.88639111 11.15855803 11.71130885 10.94663049 7.53076172 10.60522461 C6.711633 10.53847031 5.89250427 10.471716 5.04855347 10.40293884 C3 10 3 10 1 8 C0.43479997 5.34462628 0.26211802 2.70855287 0 0 Z " fill="#F6F6F6" transform="translate(423,530)"/>
<path d="M0 0 C2.85252144 2.29610367 5.2196981 4.43863771 7.58203125 7.2734375 C7.58203125 8.5934375 7.58203125 9.9134375 7.58203125 11.2734375 C2.00869792 9.50010417 2.00869792 9.50010417 -0.41796875 8.2109375 C-7.816561 4.74284739 -17.58063758 5.3937979 -25.16796875 7.8359375 C-30.46920569 9.95643227 -33.75877145 12.98780153 -37.41796875 17.2734375 C-38.40989998 18.28144169 -39.40749841 19.28401863 -40.41796875 20.2734375 C-40.61132812 19.46519531 -40.8046875 18.65695313 -41.00390625 17.82421875 C-41.26429688 16.75558594 -41.5246875 15.68695313 -41.79296875 14.5859375 C-42.04820312 13.53019531 -42.3034375 12.47445312 -42.56640625 11.38671875 C-43.33702364 8.56936984 -44.27295418 5.95675425 -45.41796875 3.2734375 C-33.44334341 -2.16541905 -12.09269902 -7.6978355 0 0 Z " fill="#080808" transform="translate(563.41796875,162.7265625)"/>
<path d="M0 0 C4.71303522 3.32054754 8.66358275 7.12197237 9.75 12.9375 C3.94280347 18.06149694 -0.95523226 19.2072126 -8.625 19.0625 C-9.87023437 19.04445313 -11.11546875 19.02640625 -12.3984375 19.0078125 C-13.33945312 18.98460937 -14.28046875 18.96140625 -15.25 18.9375 C-16.25399524 16.31396482 -17.25334445 13.68882205 -18.25 11.0625 C-18.67925781 9.94294922 -18.67925781 9.94294922 -19.1171875 8.80078125 C-21.25 3.1640625 -21.25 3.1640625 -21.25 0.9375 C-14.10787475 -1.17868526 -7.22577653 -2.3622731 0 0 Z " fill="#FBFBFB" transform="translate(757.25,754.0625)"/>
<path d="M0 0 C5.75493012 3.54149546 8.84317928 7.61179475 10.625 14.08203125 C11 16 11 16 11 18 C1.87936377 19.92013394 -6.86100603 20.02908577 -15 15 C-19.01023529 11.10364563 -21.14233797 7.54107489 -22 2 C-20.53626953 1.80083984 -20.53626953 1.80083984 -19.04296875 1.59765625 C-17.13451172 1.33275391 -17.13451172 1.33275391 -15.1875 1.0625 C-13.29064453 0.80146484 -13.29064453 0.80146484 -11.35546875 0.53515625 C-2.82728934 -0.82498412 -2.82728934 -0.82498412 0 0 Z " fill="#F8F8F8" transform="translate(811,804)"/>
<path d="M0 0 C4.03012018 2.12497246 6.36092627 3.74768608 8 8 C8.08203125 10.25390625 8.08203125 10.25390625 7.8125 12.5625 C7.73644531 13.32691406 7.66039062 14.09132813 7.58203125 14.87890625 C6.88619346 17.41474463 6.05370586 18.38742428 4 20 C-0.07094774 21.35698258 -3.74353744 21.52387231 -8 21 C-12.3934329 18.80328355 -15.05384852 16.54102011 -17 12 C-17.5625426 8.14256502 -17.3564248 6.56009611 -15.25 3.25 C-10.45842235 -1.54157765 -6.35821443 -1.53170157 0 0 Z " fill="#030303" transform="translate(556,664)"/>
<path d="M0 0 C4.06838212 1.79686877 6.12427563 4.18072065 8.5625 7.875 C9.375 10.75 9.375 10.75 9.5625 12.875 C5.74960026 15.37690271 1.78180646 15.25957481 -2.625 15.25 C-3.76739136 15.24758301 -3.76739136 15.24758301 -4.93286133 15.24511719 C-10.84707819 15.11625889 -15.40002509 14.1024731 -20.4375 10.875 C-21.05367187 10.4934375 -21.66984375 10.111875 -22.3046875 9.71875 C-23.70985327 8.81219144 -25.07911127 7.85025345 -26.4375 6.875 C-18.70714323 -1.29709145 -10.95385779 -3.49857055 0 0 Z " fill="#FBFBFB" transform="translate(729.4375,812.125)"/>
<path d="M0 0 C3.02508145 1.73602105 5.41790069 3.83580137 7 7 C7.57538625 14.01971231 7.57538625 14.01971231 5.3125 17.875 C1.69457195 21.19958254 -0.57225644 22.02549542 -5.5 21.9375 C-9.66166007 20.82276962 -11.27978168 19.28026327 -14 16 C-15.57455739 12.85088521 -15.34799118 10.47991184 -15 7 C-11.36615891 0.89840116 -7.02513109 -1.19909473 0 0 Z " fill="#FBFBFB" transform="translate(614,369)"/>
<path d="M0 0 C0.95043457 11.35429868 1.11033706 22.61076383 1 34 C-2.3401695 32.96543422 -3.06699353 31.88459098 -4.859375 28.796875 C-5.50045908 27.45305123 -6.13004652 26.10370189 -6.75 24.75 C-9.76844437 18.41804823 -13.00966622 12.30316957 -16.56152344 6.25488281 C-19 2.08761723 -19 2.08761723 -19 1 C-16.20837429 0.83262201 -13.41670379 0.66606598 -10.625 0.5 C-9.8309375 0.45230469 -9.036875 0.40460937 -8.21875 0.35546875 C-2.2265625 0 -2.2265625 0 0 0 Z " fill="#040404" transform="translate(618,657)"/>
<path d="M0 0 C3.0035119 2.47460786 3.61197615 4.56973396 4.3515625 8.33984375 C4.66867187 9.93602539 4.66867187 9.93602539 4.9921875 11.56445312 C5.20101562 12.67755859 5.40984375 13.79066406 5.625 14.9375 C5.8415625 16.01580078 6.058125 17.09410156 6.28125 18.20507812 C7.69111092 25.46760243 8.49943253 32.61941073 9 40 C4.38 40 -0.24 40 -5 40 C-5.38160863 31.4615069 -3.92501616 23.31640374 -2.5 14.9375 C-2.25845268 13.48513597 -2.0175619 12.03266259 -1.77734375 10.58007812 C-1.19245988 7.05209255 -0.59870465 3.52566975 0 0 Z " fill="#F4F4F4" transform="translate(612,484)"/>
<path d="M0 0 C1.87890625 0.99609375 1.87890625 0.99609375 4.69140625 3.24609375 C5.02140625 4.56609375 5.35140625 5.88609375 5.69140625 7.24609375 C2.72140625 6.58609375 -0.24859375 5.92609375 -3.30859375 5.24609375 C-3.39109375 5.98859375 -3.47359375 6.73109375 -3.55859375 7.49609375 C-4.45769778 10.79280852 -5.73229309 12.06014167 -8.30859375 14.24609375 C-11.35843371 15.77101373 -13.95093065 15.48171923 -17.30859375 15.24609375 C-19.24609375 14.05859375 -19.24609375 14.05859375 -20.30859375 12.24609375 C-20.49609375 9.55859375 -20.49609375 9.55859375 -20.30859375 7.24609375 C-22.28859375 7.57609375 -24.26859375 7.90609375 -26.30859375 8.24609375 C-26.05078125 6.3828125 -26.05078125 6.3828125 -25.30859375 4.24609375 C-23.56640625 3.015625 -23.56640625 3.015625 -21.43359375 2.05859375 C-20.38558594 1.57326172 -20.38558594 1.57326172 -19.31640625 1.078125 C-13.2941568 -1.41747642 -6.27734172 -2.049961 0 0 Z " fill="#050505" transform="translate(555.30859375,174.75390625)"/>
<path d="M0 0 C5.76262764 0.48021897 11.50287362 1.84863196 16.75 4.3125 C17.6953125 6.390625 17.6953125 6.390625 17.75 8.3125 C17.42 8.6425 17.09 8.9725 16.75 9.3125 C15.26656795 9.21959819 13.78711148 9.06133936 12.3125 8.875 C2.92781832 7.76455449 2.92781832 7.76455449 -6.25 9.3125 C-9.01731942 9.57866965 -11.78427101 9.75618808 -14.55859375 9.93359375 C-17.22821177 10.30943257 -18.89307204 11.07498445 -21.25 12.3125 C-23.5 11.9375 -23.5 11.9375 -25.25 11.3125 C-24.7735009 7.02400812 -22.52412061 4.9460318 -19.25 2.3125 C-16 1.5625 -16 1.5625 -12.25 1.3125 C-10.74951399 1.1289299 -9.24952446 0.94126588 -7.75 0.75 C-5.16757384 0.49002421 -2.58357468 0.24842064 0 0 Z " fill="#070707" transform="translate(523.25,229.6875)"/>
<path d="M0 0 C2.8125 0.1875 2.8125 0.1875 6 1 C10.01775165 6.12609693 10.12121231 10.90907052 10.0625 17.25 C10.05347656 18.51328125 10.04445313 19.7765625 10.03515625 21.078125 C10.02355469 22.04234375 10.01195312 23.0065625 10 24 C8.1953125 24.609375 8.1953125 24.609375 6 25 C2.38765096 22.97708454 0.3075208 21.46128121 -2 18 C-2.60600367 11.8241097 -2.55189742 5.74176919 0 0 Z " fill="#040404" transform="translate(767,612)"/>
<path d="M0 0 C5.61 0 11.22 0 17 0 C17.33 2.97 17.66 5.94 18 9 C13.96423344 10.00894164 10.36293071 10.11303696 6.25 10.0625 C5.55261719 10.05798828 4.85523438 10.05347656 4.13671875 10.04882812 C2.42444197 10.0371002 0.71220967 10.01916653 -1 10 C-0.67 6.7 -0.34 3.4 0 0 Z " fill="#F3F3F3" transform="translate(605,533)"/>
<path d="M0 0 C2.79326603 2.79326603 3.19961605 5.3762718 3.375 9.1875 C3.31454651 14.4814981 1.4182619 18.03220826 -2 22 C-5.01911664 24.30027934 -6.20801854 25 -10 25 C-9.37265918 18.35018727 -9.37265918 18.35018727 -7.4453125 16.5390625 C-5.77989785 15.1022488 -5.77989785 15.1022488 -5.91796875 12.94921875 C-6.00691406 12.20285156 -6.09585938 11.45648438 -6.1875 10.6875 C-6.31414144 7.8169607 -6.32302826 6.46881977 -4.67578125 4.078125 C-3 2.4375 -3 2.4375 0 0 Z " fill="#070707" transform="translate(599,179)"/>
<path d="M0 0 C4.95 0 9.9 0 15 0 C15 3.63 15 7.26 15 11 C10.05 11 5.1 11 0 11 C0 7.37 0 3.74 0 0 Z " fill="#F7F7F7" transform="translate(484,531)"/>
<path d="M0 0 C4.95 0.33 9.9 0.66 15 1 C15 3.31 15 5.62 15 8 C11.84493858 8.93619813 9.03413498 9.1057123 5.75 9.0625 C4.85796875 9.05347656 3.9659375 9.04445313 3.046875 9.03515625 C2.37140625 9.02355469 1.6959375 9.01195312 1 9 C0.67 6.03 0.34 3.06 0 0 Z " fill="#F7F7F7" transform="translate(648,533)"/>
<path d="M0 0 C3.77143982 0.1097568 7.54187097 0.24041479 11.3125 0.375 C12.9202832 0.42140625 12.9202832 0.42140625 14.56054688 0.46875 C15.58857422 0.50742188 16.61660156 0.54609375 17.67578125 0.5859375 C18.62364502 0.6173584 19.57150879 0.6487793 20.5480957 0.68115234 C23 1 23 1 26 3 C18.4679418 6.11671374 11.13692202 7.0667944 3 6 C1.0859375 4.6640625 1.0859375 4.6640625 0 3 C0 2.01 0 1.02 0 0 Z " fill="#070706" transform="translate(505,246)"/>
<path d="M0 0 C2.64 0 5.28 0 8 0 C9.32 3.63 10.64 7.26 12 11 C9.36 11 6.72 11 4 11 C3.32880451 9.5437455 2.66318193 8.08492133 2 6.625 C1.62875 5.81289063 1.2575 5.00078125 0.875 4.1640625 C0 2 0 2 0 0 Z " fill="#131313" transform="translate(642,706)"/>
<path d="M0 0 C1.4540625 0.0309375 1.4540625 0.0309375 2.9375 0.0625 C5.9375 6.5625 5.9375 6.5625 5.9375 11.0625 C3.6275 11.0625 1.3175 11.0625 -1.0625 11.0625 C-2.0525 7.7625 -3.0425 4.4625 -4.0625 1.0625 C-3.0625 0.0625 -3.0625 0.0625 0 0 Z " fill="#101010" transform="translate(571.0625,729.9375)"/>
<path d="M0 0 C1.98 0 3.96 0 6 0 C8.20536179 4.0271824 9.45660208 7.43545749 10 12 C7.69 12 5.38 12 3 12 C2.01 8.04 1.02 4.08 0 0 Z " fill="#131313" transform="translate(553,730)"/>
<path d="M0 0 C2.31 0 4.62 0 7 0 C7.50615298 1.26839526 8.00469099 2.53983102 8.5 3.8125 C8.7784375 4.52019531 9.056875 5.22789062 9.34375 5.95703125 C10 8 10 8 10 11 C7.69 11 5.38 11 3 11 C2.49632243 9.54293274 1.99717444 8.08429904 1.5 6.625 C1.2215625 5.81289063 0.943125 5.00078125 0.65625 4.1640625 C0 2 0 2 0 0 Z " fill="#0C0C0C" transform="translate(627,706)"/>
<path d="M0 0 C2.31 0 4.62 0 7 0 C7.66 3.3 8.32 6.6 9 10 C6.36 10 3.72 10 1 10 C-0.1577506 6.52674819 -0.06866652 3.63932552 0 0 Z " fill="#131313" transform="translate(422,703)"/>
<path d="M0 0 C2.64 0 5.28 0 8 0 C8.99 2.97 9.98 5.94 11 9 C8.03 9 5.06 9 2 9 C1.34 6.03 0.68 3.06 0 0 Z " fill="#090909" transform="translate(584,730)"/>
<path d="M0 0 C2.64 0 5.28 0 8 0 C8.66 3.3 9.32 6.6 10 10 C7.36 10 4.72 10 2 10 C1.34 6.7 0.68 3.4 0 0 Z " fill="#0B0C0C" transform="translate(471,728)"/>
<path d="M0 0 C2.64 0 5.28 0 8 0 C9.31626692 3.61973402 10 6.09567131 10 10 C7.69 10 5.38 10 3 10 C2.01 6.7 1.02 3.4 0 0 Z " fill="#080808" transform="translate(648,728)"/>
<path d="M0 0 C2.64 0 5.28 0 8 0 C8.66 3.3 9.32 6.6 10 10 C7.69 10 5.38 10 3 10 C2.01 6.7 1.02 3.4 0 0 Z " fill="#050505" transform="translate(634,728)"/>
<path d="M0 0 C1.98 0 3.96 0 6 0 C7.59138085 4.17737474 8.21278058 7.53160785 8 12 C6.02 12 4.04 12 2 12 C1.34 8.04 0.68 4.08 0 0 Z " fill="#090A0A" transform="translate(504,727)"/>
<path d="M0 0 C2.64 0 5.28 0 8 0 C8.33 2.97 8.66 5.94 9 9 C6.69 9.33 4.38 9.66 2 10 C0 3.375 0 3.375 0 0 Z " fill="#080808" transform="translate(405,704)"/>
<path d="M0 0 C2.31 0 4.62 0 7 0 C7.99 2.97 8.98 5.94 10 9 C7.36 9 4.72 9 2 9 C1.34 6.03 0.68 3.06 0 0 Z " fill="#060606" transform="translate(441,728)"/>
<path d="M0 0 C2.31 0 4.62 0 7 0 C7.66 3.3 8.32 6.6 9 10 C6.69 10 4.38 10 2 10 C1.34 6.7 0.68 3.4 0 0 Z " fill="#0D0D0D" transform="translate(488,728)"/>
<path d="M0 0 C2.31 0 4.62 0 7 0 C9 5.625 9 5.625 9 9 C6.36 9 3.72 9 1 9 C0.67 6.03 0.34 3.06 0 0 Z " fill="#070707" transform="translate(437,703)"/>
<path d="M0 0 C2.31 0 4.62 0 7 0 C7.99 3.3 8.98 6.6 10 10 C8.02 10 6.04 10 4 10 C3.32845067 8.71086513 2.66291141 7.41859796 2 6.125 C1.62875 5.40570312 1.2575 4.68640625 0.875 3.9453125 C0 2 0 2 0 0 Z " fill="#0B0B0B" transform="translate(576,707)"/>
<path d="M0 0 C0.66 2.97 1.32 5.94 2 9 C-0.64 9 -3.28 9 -6 9 C-6.66 6.36 -7.32 3.72 -8 1 C-5.07175348 0.02391783 -3.04386724 -0.08226668 0 0 Z " fill="#060606" transform="translate(431,728)"/>
<path d="M0 0 C1.98 0 3.96 0 6 0 C7.31626692 3.61973402 8 6.09567131 8 10 C6.02 10 4.04 10 2 10 C0.68373308 6.38026598 0 3.90432869 0 0 Z " fill="#080808" transform="translate(484,703)"/>
<path d="M0 0 C2.31 0 4.62 0 7 0 C7.66 3.3 8.32 6.6 9 10 C7.02 10 5.04 10 3 10 C2.49596232 8.70990357 1.99690074 7.41786211 1.5 6.125 C1.2215625 5.40570312 0.943125 4.68640625 0.65625 3.9453125 C0 2 0 2 0 0 Z " fill="#050505" transform="translate(618,729)"/>
<path d="M0 0 C2.31 0 4.62 0 7 0 C7.66 2.97 8.32 5.94 9 9 C6.69 9 4.38 9 2 9 C1.34 6.03 0.68 3.06 0 0 Z " fill="#030303" transform="translate(562,707)"/>
<path d="M0 0 C1.98 0 3.96 0 6 0 C6.66 3.3 7.32 6.6 8 10 C6.02 10 4.04 10 2 10 C0.39644899 6.49223216 -0.22036864 3.85645121 0 0 Z " fill="#121111" transform="translate(549,707)"/>
<path d="M0 0 C2.31 0 4.62 0 7 0 C7.33 3.3 7.66 6.6 8 10 C6.02 10 4.04 10 2 10 C1.34 6.7 0.68 3.4 0 0 Z " fill="#070808" transform="translate(498,703)"/>
<path d="M0 0 C1.98 0 3.96 0 6 0 C6.66 3.3 7.32 6.6 8 10 C6.02 10 4.04 10 2 10 C0.68373308 6.38026598 0 3.90432869 0 0 Z " fill="#080808" transform="translate(612,707)"/>
<path d="M0 0 C1.65 0 3.3 0 5 0 C5.99 3.3 6.98 6.6 8 10 C5.69 10 3.38 10 1 10 C-0.60725635 6.78548731 -0.05748185 3.56387464 0 0 Z " fill="#070707" transform="translate(468,703)"/>
<path d="M0 0 C2.31 0 4.62 0 7 0 C7.33 2.97 7.66 5.94 8 9 C6.02 9 4.04 9 2 9 C0 2.25 0 2.25 0 0 Z " fill="#040404" transform="translate(408,729)"/>
<path d="M0 0 C0 8.58 0 17.16 0 26 C-0.33 26 -0.66 26 -1 26 C-4.75667182 8.7023303 -4.75667182 8.7023303 -3 1 C-1 0 -1 0 0 0 Z " fill="#ECECEC" transform="translate(647,599)"/>
<path d="M0 0 C1.56897703 2.82527536 2.31184205 5.11842048 2.6328125 8.328125 C2.71660156 9.12734375 2.80039062 9.9265625 2.88671875 10.75 C2.96535156 11.575 3.04398438 12.4 3.125 13.25 C3.21136719 14.09046875 3.29773438 14.9309375 3.38671875 15.796875 C3.59811722 17.86388223 3.79999462 19.93185928 4 22 C1 20 1 20 0 17 C-0.07973476 15.66474283 -0.10771338 14.32587917 -0.09765625 12.98828125 C-0.09443359 12.23095703 -0.09121094 11.47363281 -0.08789062 10.69335938 C-0.07951172 9.90767578 -0.07113281 9.12199219 -0.0625 8.3125 C-0.05798828 7.51521484 -0.05347656 6.71792969 -0.04882812 5.89648438 C-0.0370585 3.93095743 -0.01912348 1.96546915 0 0 Z " fill="#121212" transform="translate(560,392)"/>
<path d="M0 0 C1.41965142 0.42771549 2.8356224 0.86765543 4.25 1.3125 C5.43335938 1.67794922 5.43335938 1.67794922 6.640625 2.05078125 C9.12697232 3.05108323 10.9342834 4.30857609 13 6 C11.10388566 5.85786703 9.20811606 5.71113093 7.3125 5.5625 C6.25675781 5.48128906 5.20101562 5.40007812 4.11328125 5.31640625 C1.34913703 5.03548319 -1.28945741 4.59843148 -4 4 C-2.68 2.68 -1.36 1.36 0 0 Z " fill="#0E0E0E" transform="translate(531,315)"/>
<path d="M0 0 C3.31012244 3.31012244 3.50351065 4.53159589 4 9 C2.35 9 0.7 9 -1 9 C-0.67 6.03 -0.34 3.06 0 0 Z " fill="#E3E3E3" transform="translate(612,484)"/>
<path d="M0 0 C0.33 0 0.66 0 1 0 C1 3.63 1 7.26 1 11 C-1.31 11 -3.62 11 -6 11 C-5.01 10.34 -4.02 9.68 -3 9 C-0.87491756 5.81237635 -0.4979837 3.73487777 0 0 Z " fill="#ADADAD" transform="translate(547,131)"/>
</svg>
