<?xml version="1.0" encoding="UTF-8"?>
<svg version="1.1" xmlns="http://www.w3.org/2000/svg" width="734" height="770">
<path d="M0 0 C242.22 0 484.44 0 734 0 C734 254.1 734 508.2 734 770 C491.78 770 249.56 770 0 770 C0 515.9 0 261.8 0 0 Z " fill="#040404" transform="translate(0,0)"/>
<path d="M0 0 C1.31102692 -0.00175232 2.62205383 -0.00350464 3.97280884 -0.00531006 C7.5695694 -0.00986274 11.16630118 -0.00809699 14.76306224 -0.00493097 C18.60169082 -0.00236626 22.44031723 -0.00475891 26.27894592 -0.00631714 C32.78476387 -0.00813944 39.2905705 -0.0057439 45.79638672 -0.00097656 C52.33024856 0.00375869 58.86408751 0.00394137 65.39794922 -0.00097656 C109.21271628 -0.03319132 153.00542571 0.29790216 196.81274414 1.12939453 C194.94974946 4.30295219 193.0708459 7.01290516 190.62524414 9.75439453 C187.43214857 13.95625413 187.10385419 17.33338976 187.42602539 22.52392578 C188.37881058 28.9431957 191.28297995 33.05273528 195.60571289 37.64892578 C196.81274414 39.12939453 196.81274414 39.12939453 196.81274414 41.12939453 C195.21940175 42.56489179 193.56023332 43.9276678 191.87524414 45.25439453 C190.87235352 46.06263672 189.86946289 46.87087891 188.83618164 47.70361328 C186.98805073 49.18641599 185.13925656 50.6683931 183.28930664 52.14892578 C177.0564768 57.37131393 171.26567893 63.84922855 169.81274414 72.12939453 C169.1989893 79.35359088 169.07894209 84.31358058 173.81274414 90.12939453 C176.36701095 95.23792815 177.32050643 99.51788465 177.81274414 105.12939453 C178.47274414 105.12939453 179.13274414 105.12939453 179.81274414 105.12939453 C181.14273761 107.78938148 181.11156444 110.10308644 181.31274414 113.06689453 C181.53680874 116.35984391 181.76662108 118.99102535 182.81274414 122.12939453 C183.02842939 127.63228299 182.5436548 132.71890354 181.50024414 138.12939453 C181.30047974 139.21111938 181.30047974 139.21111938 181.09667969 140.31469727 C180.67537551 142.58756788 180.24424945 144.85844099 179.81274414 147.12939453 C179.52302634 148.68265786 179.23395789 150.23604246 178.94555664 151.78955078 C178.24330388 155.57122227 177.5277596 159.35002711 176.81274414 163.12939453 C171.53274414 163.12939453 166.25274414 163.12939453 160.81274414 163.12939453 C160.79728294 161.45500809 160.79728294 161.45500809 160.7815094 159.74679565 C160.68293972 149.12854802 160.58014225 138.51034824 160.47340488 127.89217949 C160.4186859 122.43578662 160.3653591 116.97938818 160.31542969 111.52294922 C160.26701896 106.23846815 160.21466977 100.95403836 160.15980339 95.66962051 C160.13972062 93.67265253 160.1209605 91.67567071 160.10367012 89.67867661 C160.2753614 62.74456879 160.2753614 62.74456879 156.81274414 36.12939453 C156.79212921 36.90136169 156.77151428 37.67332886 156.75027466 38.46868896 C154.97805791 104.52294056 154.97805791 104.52294056 153.81274414 125.00439453 C153.74200684 126.2712207 153.67126953 127.53804688 153.59838867 128.84326172 C152.91884625 139.96872422 151.82292583 151.01739591 150.81274414 162.12939453 C133.65274414 162.12939453 116.49274414 162.12939453 98.81274414 162.12939453 C96.56750338 150.90319072 96.56750338 150.90319072 96.03149414 145.96533203 C95.91161133 144.90572266 95.79172852 143.84611328 95.66821289 142.75439453 C95.43038932 140.58000756 95.19341609 138.40552741 94.95727539 136.23095703 C94.29253737 130.3698261 93.40849561 124.81082001 91.81274414 119.12939453 C90.65941154 123.33038961 90.48382286 127.50026649 90.27758789 131.83251953 C90.23461075 132.67030945 90.19163361 133.50809937 90.14735413 134.37127686 C90.01127999 137.04047727 89.88069123 139.70991378 89.75024414 142.37939453 C89.65880907 144.19191282 89.56701636 146.0044131 89.47485352 147.81689453 C89.25000389 152.25419649 89.03007261 156.6917181 88.81274414 161.12939453 C84.85274414 161.12939453 80.89274414 161.12939453 76.81274414 161.12939453 C75.46758469 154.46505129 74.13584129 147.79815105 72.81274414 141.12939453 C72.59714844 140.05069092 72.59714844 140.05069092 72.37719727 138.95019531 C70.69144991 130.47742784 69.32968409 122.00095939 68.14624023 113.44506836 C66.2609205 99.95969646 64.06161951 86.52039889 61.91815186 73.07417297 C61.12940918 68.12608966 60.3473971 63.17701697 59.57055664 58.22705078 C59.21384637 55.96532248 58.85708021 53.70360299 58.50024414 51.44189453 C58.34112549 50.42192383 58.18200684 49.40195312 58.01806641 48.35107422 C57.79848267 46.96710449 57.79848267 46.96710449 57.57446289 45.55517578 C57.45031006 44.7653833 57.32615723 43.97559082 57.19824219 43.16186523 C56.82356083 40.93867123 56.82356083 40.93867123 55.81274414 38.12939453 C54.82599608 72.74527552 59.32576192 106.434745 64.52587891 140.60375977 C64.67688553 141.6010762 64.82789215 142.59839264 64.98347473 143.62593079 C65.26797918 145.4979675 65.55585144 147.36949669 65.84770203 149.24040222 C66.45666708 153.23875031 66.99854041 157.07005922 66.81274414 161.12939453 C62.59521896 161.15412517 58.37773228 161.17226906 54.16015625 161.18432617 C52.72557846 161.18935295 51.29100578 161.19617532 49.85644531 161.20483398 C47.79368832 161.21697205 45.7309991 161.22263939 43.66821289 161.22705078 C42.4270874 161.2322876 41.18596191 161.23752441 39.90722656 161.24291992 C36.81274414 161.12939453 36.81274414 161.12939453 33.81274414 160.12939453 C32.21018572 156.33589875 31.6270655 152.15718132 30.81274414 148.12939453 C30.6406543 147.31535156 30.46856445 146.50130859 30.29125977 145.66259766 C27.10090066 130.3376797 25.24361795 114.93754173 27.31933594 99.31713867 C27.83660587 95.31339987 27.94205789 91.3803863 27.94555664 87.34033203 C27.94699173 86.27995224 27.94699173 86.27995224 27.94845581 85.19815063 C27.9491307 83.71754873 27.94732515 82.23694373 27.94311523 80.75634766 C27.93774087 78.50302453 27.94309205 76.24989922 27.94946289 73.99658203 C27.9488023 72.54866493 27.94752153 71.10074795 27.94555664 69.65283203 C27.94386475 67.70256104 27.94386475 67.70256104 27.94213867 65.71289062 C27.82332363 62.42238663 27.44011577 59.3572122 26.81274414 56.12939453 C26.15274414 56.12939453 25.49274414 56.12939453 24.81274414 56.12939453 C24.78696289 56.80099609 24.76118164 57.47259766 24.73461914 58.16455078 C24.29087343 65.98052641 23.18551908 73.60315986 21.87524414 81.31689453 C21.62049316 82.8590564 21.62049316 82.8590564 21.3605957 84.43237305 C21.19140625 85.39844482 21.0222168 86.3645166 20.84790039 87.35986328 C20.69716064 88.23022217 20.5464209 89.10058105 20.39111328 89.99731445 C19.81274414 92.12939453 19.81274414 92.12939453 17.81274414 94.12939453 C17.43762695 93.53771484 17.06250977 92.94603516 16.67602539 92.33642578 C13.71837701 87.76957829 10.83595383 83.79761513 6.81274414 80.12939453 C6.94551758 80.86802734 7.07829102 81.60666016 7.21508789 82.36767578 C7.47999023 83.88941406 7.47999023 83.88941406 7.75024414 85.44189453 C8.0112793 86.92109375 8.0112793 86.92109375 8.27758789 88.43017578 C9.50852186 96.93889453 9.97037013 105.39405506 9.98071289 113.98486328 C9.98570549 115.46458366 9.98570549 115.46458366 9.99079895 116.97419739 C9.99582041 119.04049214 9.99820877 121.10679486 9.99804688 123.1730957 C10.00024594 126.31947108 10.0184869 129.46550221 10.03735352 132.61181641 C10.04028603 134.63199751 10.04227177 136.65218026 10.04321289 138.67236328 C10.05039841 139.60275925 10.05758392 140.53315521 10.06498718 141.491745 C10.04567669 147.04548587 9.38325034 151.79698717 7.81274414 157.12939453 C1.89046535 155.96435608 -3.51715107 154.37438174 -9.12084961 152.12939453 C-17.51016324 149.39351646 -25.65016202 148.76984722 -34.43725586 148.81689453 C-35.53827637 148.82253418 -36.63929688 148.82817383 -37.77368164 148.83398438 C-51.07561571 149.03205239 -63.6031141 150.79417504 -74.09350586 159.75830078 C-78.06382895 163.95244111 -79.75770216 168.59927891 -81.18725586 174.12939453 C-80.67678711 173.76587891 -80.16631836 173.40236328 -79.64038086 173.02783203 C-73.44054791 168.7407135 -67.09329451 165.15716517 -60.18725586 162.12939453 C-58.77186523 161.50291016 -58.77186523 161.50291016 -57.32788086 160.86376953 C-41.65086335 155.21367693 -18.18968751 155.16383065 -2.81225586 161.94189453 C4.651404 165.5784437 7.24511999 173.79554262 9.81274414 181.12939453 C12.3281169 188.74052553 14.57343555 196.43352805 16.81274414 204.12939453 C17.13629883 205.23331543 17.45985352 206.33723633 17.79321289 207.47460938 C18.76839345 210.81498824 19.73058338 214.15881155 20.68774414 217.50439453 C20.98600098 218.53137451 21.28425781 219.55835449 21.59155273 220.61645508 C23.24495791 226.48137309 24.32210964 232.05307493 24.81274414 238.12939453 C24.03930664 237.80326172 23.26586914 237.47712891 22.46899414 237.14111328 C19.25480427 235.7925856 16.03548938 234.45733999 12.81274414 233.12939453 C12.04317383 232.81099609 11.27360352 232.49259766 10.48071289 232.16455078 C-3.56000699 226.59811154 -20.19440412 228.01306548 -34.18725586 233.12939453 C-48.41524635 239.32570792 -60.02811241 248.25879417 -66.37475586 262.69189453 C-68.3584886 268.03860766 -69.58264123 273.58922089 -70.79345703 279.15307617 C-71.63073168 282.97917026 -72.59611834 286.5458149 -74.18725586 290.12939453 C-77.18725586 289.12939453 -77.18725586 289.12939453 -78.17944336 287.51220703 C-87.28413262 264.22676281 -90.66762829 238.84215019 -93.18725586 214.12939453 C-93.26073242 213.41090332 -93.33420898 212.69241211 -93.40991211 211.95214844 C-95.16667538 193.80048537 -94.70352674 175.40008317 -92.45629883 157.32373047 C-92.21016607 155.31625207 -91.99589184 153.30493371 -91.78491211 151.29345703 C-87.31806787 112.07031045 -70.87284048 73.87612111 -57.24975586 37.12939453 C-56.82512054 35.97996368 -56.40048523 34.83053284 -55.96298218 33.64627075 C-54.74250048 30.34688667 -53.5148762 27.05025375 -52.28491211 23.75439453 C-51.91651215 22.75665512 -51.54811218 21.75891571 -51.16854858 20.73094177 C-46.8347047 9.18043756 -46.8347047 9.18043756 -42.55444336 6.44970703 C-38.52174104 4.8684386 -34.54440636 3.8875645 -30.31225586 3.00439453 C-29.5478418 2.83552734 -28.78342773 2.66666016 -27.99584961 2.49267578 C-18.58927204 0.4644324 -9.60834856 -0.01587746 0 0 Z " fill="#FBFBFB" transform="translate(256.187255859375,283.87060546875)"/>
<path d="M0 0 C0.99837891 -0.00773438 1.99675781 -0.01546875 3.02539062 -0.0234375 C17.1873676 0.01380636 28.99310059 4.92308465 39.3046875 14.75390625 C43.04458428 18.88849802 45.87797358 23.38056736 48.5625 28.25 C49.201875 29.384375 49.84125 30.51875 50.5 31.6875 C52.42605476 38.14544832 52.90771707 45.22365675 49.9375 51.4375 C47.79899093 55.10568994 45.33511241 58.57780215 42.95703125 62.09375 C40.00575361 66.65707004 37.64018944 71.50051986 37.8125 77.08984375 C39.2435648 81.21160852 42.86146596 83.76893552 46.0078125 86.65234375 C52.37312397 93.12471703 54.72493209 100.89678233 54.66015625 109.76171875 C54.6587413 110.48994339 54.65732635 111.21816803 54.65586853 111.96846008 C54.65027659 114.29151539 54.63772562 116.61447388 54.625 118.9375 C54.61998396 120.51367048 54.61542123 122.08984248 54.61132812 123.66601562 C54.6003098 127.52738098 54.58305074 131.38867408 54.5625 135.25 C55.37061398 132.85616714 56.17623858 130.46154384 56.98046875 128.06640625 C57.207948 127.39339478 57.43542725 126.7203833 57.6697998 126.02697754 C60.85269019 116.53043744 61.75390151 107.91227655 61.875 97.9375 C61.89280518 96.98157959 61.91061035 96.02565918 61.92895508 95.04077148 C61.92276649 89.62194926 61.46389924 85.98772787 58.5625 81.25 C58.2325 80.26 57.9025 79.27 57.5625 78.25 C55.84730253 77.22348627 55.84730253 77.22348627 53.5625 76.25 C51.21294852 74.94413341 48.89097143 73.5933489 46.5625 72.25 C48.67456752 65.41684036 51.82529822 60.58769215 56.5625 55.25 C57.17222656 54.54875 57.78195313 53.8475 58.41015625 53.125 C62.1303693 49.33603558 64.88138424 47.76662924 70.25 47.5 C74.23376219 47.75346205 75.33151832 48.06713951 78.5625 50.625 C79.5525 51.924375 79.5525 51.924375 80.5625 53.25 C82.0475 54.24 82.0475 54.24 83.5625 55.25 C83.32123003 49.51133714 83.32123003 49.51133714 80.5 44.75 C79.860625 44.255 79.22125 43.76 78.5625 43.25 C80.79445882 30.69523162 91.82826867 20.44125261 101.86401367 13.38696289 C118.14062304 2.32311052 135.8359168 -2.53178758 155.44921875 0.9375 C167.14222422 3.97136088 177.73420714 10.29469861 184.13671875 20.84375 C189.49844133 31.29065932 190.12000932 42.84155439 187.984375 54.37109375 C184.93872503 63.02350844 176.9822709 71.98552919 168.79663086 76.14794922 C160.1627466 79.76233334 149.39123904 79.73407009 140.38671875 77.44140625 C133.0486 74.14324712 126.74794141 67.65477642 123.5625 60.25 C123.15591447 57.11332818 123.2380195 53.97295529 123.25 50.8125 C123.23388672 49.96623047 123.21777344 49.11996094 123.20117188 48.24804688 C123.19654317 42.33718939 124.01153975 38.87198466 128.24609375 34.51953125 C128.82488281 34.03871094 129.40367187 33.55789062 130 33.0625 C130.57621094 32.57394531 131.15242187 32.08539063 131.74609375 31.58203125 C137.35672269 27.46757003 142.7706453 27.52044016 149.5625 28.25 C153.4662053 29.54715599 156.62696866 31.31446866 159.5625 34.25 C159.7578125 36.6328125 159.7578125 36.6328125 159.6875 39.375 C159.66945312 40.28507812 159.65140625 41.19515625 159.6328125 42.1328125 C159.60960937 42.83148438 159.58640625 43.53015625 159.5625 44.25 C158.2425 44.91 156.9225 45.57 155.5625 46.25 C155.211875 45.755 154.86125 45.26 154.5 44.75 C151.56814656 42.48017799 149.15354465 42.9235414 145.5625 43.25 C143.19848616 45.17872076 143.19848616 45.17872076 143.3125 48.625 C143.54461112 51.99061121 143.98702188 53.41163863 145.5625 56.25 C153.05428776 56.69950727 159.35765459 56.8998962 165.5625 52.25 C170.6315786 46.79099227 170.97920757 42.96203495 170.8984375 35.65234375 C170.31744167 29.76807207 168.22138655 25.43178796 163.625 21.66015625 C161.64097128 20.36377385 159.7054459 19.26059381 157.5625 18.25 C156.84964844 17.8890625 156.13679687 17.528125 155.40234375 17.15625 C145.79172743 14.08931329 133.92120842 14.9211659 124.875 19.1875 C106.04186558 30.24893065 96.3212374 51.99519739 90.6953125 72.3762207 C75.38517079 131.94481307 78.62880461 197.21809163 77.5625 258.25 C55.1225 258.25 32.6825 258.25 9.5625 258.25 C9.51351562 251.26328125 9.46453125 244.2765625 9.4140625 237.078125 C9.37861437 232.61196599 9.34261925 228.14582443 9.3046875 223.6796875 C9.24473073 216.61428529 9.18663468 209.54890704 9.140625 202.48339844 C9.10334047 196.77742832 9.05687326 191.0715958 9.00443649 185.36574554 C8.98611882 183.2052531 8.97093066 181.04473143 8.95915604 178.88419342 C8.88212784 165.21966115 8.17040682 151.8200671 6.5625 138.25 C6.40584608 136.85781313 6.25018113 135.46551451 6.09565735 134.0730896 C3.55172563 111.42285112 -1.25546034 89.85967687 -8.4375 68.25 C-6.53677734 67.8478125 -6.53677734 67.8478125 -4.59765625 67.4375 C9.18452232 64.40096882 9.18452232 64.40096882 19.5625 55.25 C22.68696169 50.2523078 23.10952225 46.11052389 23.0625 40.375 C23.05391968 39.17182129 23.05391968 39.17182129 23.04516602 37.94433594 C22.86133268 31.88588248 21.99127571 27.63426541 17.5625 23.25 C17.00820313 22.68023437 16.45390625 22.11046875 15.8828125 21.5234375 C10.23223581 16.22445224 4.78757686 14.95350688 -2.9375 14.875 C-4.2059375 14.84664062 -5.474375 14.81828125 -6.78125 14.7890625 C-10.99511198 15.32029724 -13.0715899 16.74536689 -16.4375 19.25 C-17.0975 19.25 -17.7575 19.25 -18.4375 19.25 C-19.47626383 22.36629149 -19.57111625 24.6094429 -19.5625 27.875 C-19.56507812 28.85726562 -19.56765625 29.83953125 -19.5703125 30.8515625 C-19.70755965 33.20225011 -19.70755965 33.20225011 -18.4375 34.25 C-15.06403665 34.38956727 -15.06403665 34.38956727 -11.4375 33.25 C-10.05280179 31.62860212 -10.05280179 31.62860212 -8.9375 29.6875 C-7.75390625 27.7890625 -7.75390625 27.7890625 -6.4375 26.25 C-2.875 25.5625 -2.875 25.5625 0.5625 26.25 C3.28184855 28.35798422 4.41244657 29.60559875 5.19921875 32.984375 C5.29417185 38.62312826 5.12135629 42.40357851 1.375 46.8125 C-2.2290624 50.46367433 -5.55950974 53.02357564 -10.7421875 53.6484375 C-19.09645483 53.59359548 -24.57212224 53.48613022 -31.125 48 C-37.63335369 40.26033615 -39.19720858 33.20908889 -38.4375 23.25 C-36.94105292 16.35691701 -33.51307008 11.32808789 -27.69140625 7.39453125 C-18.31348058 1.71626165 -10.86122463 -0.08381652 0 0 Z " fill="#FAFAFA" transform="translate(46.4375,14.75)"/>
<path d="M0 0 C2.61318786 5.55502819 4.71776999 10.92848831 6.25 16.875 C6.58515625 18.15117188 6.9203125 19.42734375 7.265625 20.7421875 C8 24 8 24 8 27 C8.66 27 9.32 27 10 27 C10.33 22.05 10.66 17.1 11 12 C13.78280939 14.78280939 14.47941012 15.68476994 15.65405273 19.17333984 C15.94122665 20.01206635 16.22840057 20.85079285 16.52427673 21.7149353 C16.82435135 22.62111603 17.12442596 23.52729675 17.43359375 24.4609375 C17.75280289 25.40248688 18.07201202 26.34403625 18.40089417 27.31411743 C19.42140909 30.3316808 20.42937628 33.35327736 21.4375 36.375 C22.1118568 38.37135517 22.78697894 40.36745198 23.46289062 42.36328125 C26.78475408 52.20068172 30.01019811 62.05600954 33 72 C33.62368772 74.03701508 34.25014645 76.07316736 34.87666321 78.10931396 C35.76150441 80.98841666 36.64063055 83.86924888 37.51928711 86.75024414 C37.96872297 88.22137891 38.41959437 89.69207582 38.87182617 91.16235352 C39.53663823 93.32460171 40.19653199 95.48829891 40.85546875 97.65234375 C41.15701118 98.62747169 41.15701118 98.62747169 41.46464539 99.62229919 C42.60645968 103.3929796 43.43838484 107.10091463 44 111 C21.84836144 123.46029669 -4.68191329 123.68688891 -29.35864258 125.22949219 C-46.8948601 126.34111601 -63.11366634 127.67636754 -79.625 134.125 C-81.49096674 134.83913542 -83.35811678 135.55018838 -85.2265625 136.2578125 C-86.02658691 136.5686377 -86.82661133 136.87946289 -87.65087891 137.19970703 C-90.08363276 138.02849181 -92.47197314 138.5509094 -95 139 C-98.67264917 125.64304686 -101.85442112 112.18417862 -105.00585938 98.69628906 C-109.36621937 80.03902779 -113.79371712 61.44325711 -119 43 C-123.24276868 27.90924322 -123.24276868 27.90924322 -122 22 C-116.06928574 13.30161909 -103.47293114 10.73683358 -93.875 8.3125 C-92.74707031 8.01794922 -91.61914062 7.72339844 -90.45703125 7.41992188 C-87.30782677 6.60039205 -84.15435976 5.79939977 -81 5 C-80.19336914 4.78666016 -79.38673828 4.57332031 -78.55566406 4.35351562 C-74.16355563 3.20315312 -70.50625931 2.8122392 -66 3 C-65.49193553 4.72681437 -64.99389533 6.45657979 -64.5 8.1875 C-64.2215625 9.15042969 -63.943125 10.11335937 -63.65625 11.10546875 C-63.03322392 13.85345876 -62.87697188 16.19598416 -63 19 C-62.34 19 -61.68 19 -61 19 C-60.89042969 18.3709375 -60.78085937 17.741875 -60.66796875 17.09375 C-60.43013672 15.80984375 -60.43013672 15.80984375 -60.1875 14.5 C-60.03667969 13.6646875 -59.88585937 12.829375 -59.73046875 11.96875 C-58.79453708 8.16496355 -57.42316027 4.64952881 -56 1 C-37.34803047 -0.31219886 -18.68560811 -0.09926157 0 0 Z " fill="#FAFAFA" transform="translate(492,558)"/>
<path d="M0 0 C21.78 0 43.56 0 66 0 C66.12117188 7.08726562 66.24234375 14.17453125 66.3671875 21.4765625 C66.44841505 26.03387167 66.53008106 30.59116494 66.61328125 35.1484375 C66.7445777 42.34238228 66.87446795 49.53632822 66.99462891 56.73046875 C67.40618647 81.26854295 67.82440352 105.73123156 69.80059814 130.20042419 C70.06050562 133.84949099 70.19704137 137.49653661 70.30358887 141.15293884 C71.07490976 166.50385032 73.13760878 190.94841739 90 211 C90.57234375 211.52980469 91.1446875 212.05960938 91.734375 212.60546875 C93 214 93 214 93 217 C84.99295209 219.66901597 74.90730827 219.33907826 67.20849609 215.85058594 C52.11950652 208.07104072 44.56968504 196.67823904 39.421875 180.859375 C36.7373159 172.05135877 34.87294219 163.00897763 33 154 C32.95512451 155.16869629 32.91024902 156.33739258 32.86401367 157.54150391 C32.69169642 161.94423962 32.50324211 166.34617074 32.31030273 170.74804688 C32.22951176 172.64077213 32.15289791 174.53368109 32.08081055 176.42675781 C31.24779464 198.14262077 28.66286731 214.98728402 12.52685547 230.61425781 C2.83051635 239.41445302 -8.28868189 241.58970032 -21 241 C-17.36105477 234.56186613 -17.36105477 234.56186613 -15.609375 231.8359375 C1.07564022 205.5789925 -0.38637979 175.13670207 -0.39249516 145.20966339 C-0.38932628 140.08877586 -0.36362719 134.96799732 -0.34051514 129.84716797 C-0.30025168 120.19003425 -0.27968492 110.53296753 -0.26654124 100.87576294 C-0.25056962 89.86447369 -0.21211237 78.85329686 -0.17194796 67.84207344 C-0.08995567 45.22806459 -0.03857704 22.61412746 0 0 Z " fill="#FBFBFB" transform="translate(58,462)"/>
<path d="M0 0 C2.57154019 -0.00967927 5.14227027 -0.04077264 7.71362305 -0.07226562 C18.04473494 -0.13842653 27.3311502 0.7819303 37.40698242 3.24023438 C39.06384028 3.59763467 40.7212968 3.9522844 42.37963867 4.30273438 C43.74346038 4.61286718 45.10677312 4.92524966 46.46948242 5.24023438 C47.16235352 5.39234375 47.85522461 5.54445313 48.5690918 5.70117188 C52.8640426 6.69450647 56.62642131 7.95365065 60.40698242 10.24023438 C62.87675698 15.7410959 62.62113439 21.32726058 62.40698242 27.24023438 C63.06698242 27.24023438 63.72698242 27.24023438 64.40698242 27.24023438 C64.74729492 26.40492187 64.74729492 26.40492187 65.09448242 25.55273438 C67.23684217 21.77810054 69.60528584 18.79460255 73.84448242 17.49023438 C77.93454997 18.68732732 79.98825621 21.85707936 82.40698242 25.24023438 C85.45646647 31.33920248 83.88508788 41.59048419 82.16479492 48.08398438 C79.33904454 56.1242638 75.84990649 62.6107487 68.34448242 67.05273438 C65.40698242 68.24023438 65.40698242 68.24023438 61.40698242 68.24023438 C61.07698242 66.59023437 60.74698242 64.94023437 60.40698242 63.24023438 C59.74698242 63.24023438 59.08698242 63.24023438 58.40698242 63.24023438 C56.64550066 74.44059955 55.34149769 85.52432935 55.12573242 96.86132812 C55.10969467 97.68652451 55.09365692 98.51172089 55.07713318 99.36192322 C55.00543984 103.49845534 54.96695421 107.63313602 54.96191406 111.77026367 C54.9451701 113.3149443 54.92817279 114.8596222 54.91088867 116.40429688 C54.92333618 117.45773537 54.92333618 117.45773537 54.93603516 118.53245544 C54.85938141 123.54358032 53.52145213 126.36375605 50.40698242 130.24023438 C48.39135742 131.78710937 48.39135742 131.78710937 46.15698242 132.99023438 C40.59563841 136.10757967 35.22815832 139.47602399 29.85327148 142.90136719 C28.86085449 143.52736816 28.86085449 143.52736816 27.84838867 144.16601562 C27.25743408 144.54153564 26.66647949 144.91705566 26.05761719 145.30395508 C24.40698242 146.24023438 24.40698242 146.24023438 21.40698242 147.24023438 C19.59765625 146.52758789 19.59765625 146.52758789 17.61401367 145.36914062 C16.54570312 144.75522461 16.54570312 144.75522461 15.45581055 144.12890625 C14.71782227 143.69126953 13.97983398 143.25363281 13.21948242 142.80273438 C12.46989258 142.36896484 11.72030273 141.93519531 10.94799805 141.48828125 C9.09571 140.41466206 7.25063993 139.32860756 5.40698242 138.24023438 C5.40698242 137.25023437 5.40698242 136.26023438 5.40698242 135.24023438 C6.45756836 134.73234375 7.5081543 134.22445312 8.59057617 133.70117188 C28.23737762 124.264538 28.23737762 124.264538 42.40698242 108.24023438 C42.40698242 107.58023438 42.40698242 106.92023438 42.40698242 106.24023438 C41.94960693 106.54727295 41.49223145 106.85431152 41.02099609 107.1706543 C23.96197763 118.56687476 9.46546764 126.29408015 -11.59301758 124.24023438 C-23.30934483 121.69585642 -33.27433256 112.30821364 -39.71899414 102.53222656 C-45.72114568 92.92172867 -49.94240766 82.93215014 -53.59301758 72.24023438 C-53.89852539 71.43457031 -54.2040332 70.62890625 -54.51879883 69.79882812 C-57.9497921 60.52634887 -59.17127954 50.36836346 -60.53051758 40.61523438 C-61.56035426 33.62456333 -63.55919422 26.99323229 -65.59301758 20.24023438 C-65.93703096 18.90961659 -66.27586448 17.57750877 -66.59301758 16.24023438 C-57.11212217 11.22594823 -48.00642971 7.01176267 -37.59301758 4.24023438 C-36.6365332 3.9540625 -35.68004883 3.66789062 -34.69458008 3.37304688 C-23.26000497 0.00993655 -11.83192598 0.02683737 0 0 Z " fill="#F8F8F8" transform="translate(378.593017578125,73.759765625)"/>
<path d="M0 0 C13.74082761 1.77386407 26.67187276 5.93454988 39.5625 10.875 C40.38298828 11.17809082 41.20347656 11.48118164 42.04882812 11.79345703 C48.46755901 14.33868032 54.7647672 17.72882876 58.07885742 24.06152344 C58.8935189 26.36059338 59.47967843 28.61717453 60 31 C60.19948242 31.85625977 60.39896484 32.71251953 60.60449219 33.59472656 C61.23559581 36.43113591 61.81063244 39.27459257 62.375 42.125 C62.81178438 44.26837512 63.24930213 46.41160091 63.6875 48.5546875 C63.90664063 49.63331055 64.12578125 50.71193359 64.3515625 51.82324219 C69.45657385 76.83318483 75.26008473 101.7246048 82.97265625 126.0703125 C83.24980469 126.95460938 83.52695312 127.83890625 83.8125 128.75 C84.04582031 129.46671875 84.27914062 130.1834375 84.51953125 130.921875 C85.07652987 133.33100726 85.08185799 135.53564379 85 138 C78.44307577 136.4725347 72.02552739 134.71671874 65.625 132.625 C38.91664364 124.07910227 11.59398558 120.31477239 -16.375 120.6875 C-18.60546024 120.69904752 -20.8359304 120.70881577 -23.06640625 120.71679688 C-33.85813106 120.7789028 -44.61152489 120.97677888 -55.37338257 121.83586121 C-57.24517692 121.96634681 -59.1236752 121.99322962 -61 122 C-63.38418369 119.61581631 -63.36680921 118.73999939 -63.74609375 115.46533203 C-63.85961182 114.52319855 -63.97312988 113.58106506 -64.09008789 112.61038208 C-64.20473389 111.58653412 -64.31937988 110.56268616 -64.4375 109.5078125 C-64.56310303 108.45149628 -64.68870605 107.39518005 -64.81811523 106.30685425 C-65.22022681 102.9138035 -65.61065208 99.51953701 -66 96.125 C-66.39131721 92.76643553 -66.78514103 89.40819022 -67.18188477 86.05026245 C-67.42816566 83.96029106 -67.67106752 81.86991753 -67.90991211 79.77908325 C-68.61675559 73.71642046 -69.51229117 67.71844969 -70.58862305 61.70993042 C-71.19542669 57.71263394 -71.26045523 54.03705611 -71 50 C-70.34 49.34 -69.68 48.68 -69 48 C-62.91304348 48.54347826 -62.91304348 48.54347826 -60 50 C-58.33555539 50.0955931 -56.66718037 50.12984645 -55 50.125 C-53.6696875 50.12886719 -53.6696875 50.12886719 -52.3125 50.1328125 C-49.97323034 50.15127902 -49.97323034 50.15127902 -48 49 C-44.65229954 48.9295221 -41.31648843 49.00324799 -37.96875 49.0625 C-35.07005775 49.21348248 -35.07005775 49.21348248 -33 48 C-31.37664577 47.87273355 -29.7511442 47.77194369 -28.125 47.6875 C-24.87656373 47.3743414 -23.31021828 47.20681218 -20.5625 45.375 C-15.97893621 38.40798304 -15.39179666 32.2277298 -15 24 C-14.18015625 23.75765625 -13.3603125 23.5153125 -12.515625 23.265625 C-11.43796875 22.93046875 -10.3603125 22.5953125 -9.25 22.25 C-8.18265625 21.92515625 -7.1153125 21.6003125 -6.015625 21.265625 C-2.76568668 19.90166125 -1.09389058 18.82700336 1 16 C1.5188938 13.3574216 1.5188938 13.3574216 1.3125 10.5625 C1.28800781 9.63566406 1.26351562 8.70882812 1.23828125 7.75390625 C1.00902183 5.10426865 0.57897977 2.59364107 0 0 Z " fill="#F9F9F9" transform="translate(304,557)"/>
<path d="M0 0 C0.49016156 3.12477995 0.70089893 5.89826073 0 9 C-1.90013505 10.7049157 -3.83027615 11.72653183 -6.0859375 12.91015625 C-8.17655238 13.9159778 -8.17655238 13.9159778 -9.5 16.1875 C-10.58981605 22.3177153 -11.29343973 28.75913332 -7.61328125 34.171875 C7.22192649 50.98271573 29.79685962 59.46762105 49.77661133 68.3671875 C83.97992654 83.69966429 83.97992654 83.69966429 89.56542969 95.23217773 C91.82158361 101.43844731 91.5714031 107.9720373 91.6875 114.5 C91.72166016 115.799375 91.75582031 117.09875 91.79101562 118.4375 C91.87304465 121.62491371 91.94234455 124.81206783 92 128 C91.17707868 128.00331015 90.35415735 128.00662029 89.50629902 128.01003075 C69.43981562 128.09141556 49.37340643 128.18355818 29.30702686 128.28752708 C19.6028938 128.3375499 9.89876876 128.38399362 0.19458008 128.421875 C-8.26816193 128.45491949 -16.7308398 128.4948186 -25.19351083 128.54279006 C-29.6702607 128.56793178 -34.1469687 128.58974875 -38.62376976 128.60334396 C-42.84677686 128.6162771 -47.06963948 128.63844986 -51.2925663 128.66738319 C-52.83353222 128.67637184 -54.37452135 128.68212853 -55.91551208 128.68421364 C-67.78636907 128.70313455 -79.24310762 129.56676242 -90.62109375 133.12890625 C-91.25435074 133.32346909 -91.88760773 133.51803192 -92.54005432 133.7184906 C-94.50864442 134.32462391 -96.47319354 134.94264136 -98.4375 135.5625 C-100.42733001 136.18397386 -102.41793754 136.8027044 -104.40992737 137.41722107 C-106.19874972 137.9699646 -107.98508385 138.53074235 -109.77124023 139.09204102 C-112.84251468 139.95571358 -115.84534631 140.54149383 -119 141 C-116.99858097 124.79573989 -103.17601239 111.84064684 -92 101.00390625 C-90.10202079 99.10222005 -88.3987622 97.13164636 -86.6875 95.0625 C-74.70987898 81.21251523 -58.31463526 72.68230178 -42 65 C-40.21722656 64.14341797 -40.21722656 64.14341797 -38.3984375 63.26953125 C-33.97378971 61.61664558 -30.75733565 61.24040892 -26.35717773 63.14233398 C-25.47489502 63.67157471 -24.5926123 64.20081543 -23.68359375 64.74609375 C-22.68295898 65.33189209 -21.68232422 65.91769043 -20.65136719 66.52124023 C-19.59079102 67.15360596 -18.53021484 67.78597168 -17.4375 68.4375 C7.68970344 82.93550914 34.32102494 92.5252663 63 97 C64.01449219 97.18175781 65.02898437 97.36351562 66.07421875 97.55078125 C68.57693386 97.93504325 70.85199031 98.10600017 73.375 98.0625 C74.57125 98.041875 75.7675 98.02125 77 98 C72.15509068 95.64640064 67.33345225 93.73958088 62.15625 92.2421875 C54.3254967 89.86786117 46.77972783 86.90904558 39.1875 83.875 C37.72750769 83.29504011 36.26746465 82.71520792 34.80737305 82.13549805 C23.43691589 77.61131652 12.0889248 73.03298473 0.83935547 68.21484375 C-1.12256706 67.37541757 -3.08727877 66.54249117 -5.05419922 65.71484375 C-8.08679017 64.43393851 -11.10687508 63.12707559 -14.125 61.8125 C-15.03209717 61.43262939 -15.93919434 61.05275879 -16.8737793 60.66137695 C-22.42008003 58.19863618 -27.23435719 55.62269576 -30 50 C-30.83083171 46.07206529 -30.85714367 42.31532558 -30.75 38.3125 C-30.73187256 37.2412085 -30.71374512 36.16991699 -30.69506836 35.06616211 C-30.2405119 23.00434567 -26.37091959 15.21369219 -17.4375 6.9140625 C-12.11322952 2.73314497 -6.89528829 -0.37899634 0 0 Z " fill="#FAFAFA" transform="translate(317,147)"/>
<path d="M0 0 C42.25403 -0.37940488 42.25403 -0.37940488 58.3125 0.8125 C59.3339209 0.88259277 60.3553418 0.95268555 61.40771484 1.02490234 C69.51318283 1.72540941 74.47218668 3.82439606 80 10 C82.06386287 12.51569318 84.04015026 15.09022776 86 17.6875 C86.56178955 18.42863037 87.1235791 19.16976074 87.70239258 19.93334961 C109.61977922 48.96847389 127.91361307 74.36459161 127.3125 111.9375 C127.29466684 113.96637754 127.27834775 115.99526887 127.26342773 118.02416992 C127.21614153 123.51072062 127.13954979 128.99646985 127.05395508 134.48254395 C126.9983068 138.11038331 126.9487267 141.73826718 126.90039062 145.36621094 C126.79914593 152.84850115 126.68522054 160.33053216 126.5625 167.8125 C126.54321442 168.99311005 126.52392883 170.17372009 126.50405884 171.3901062 C126.31660453 182.4154778 126.10634353 193.4363707 125.52734375 204.44921875 C125.49024796 205.18227737 125.45315216 205.915336 125.41493225 206.67060852 C125.23969585 209.66214904 124.95325071 212.14024786 124 215 C117.46098966 219.52700716 107.38785806 218.15007072 99.875 218.125 C98.12509766 218.13080078 98.12509766 218.13080078 96.33984375 218.13671875 C95.21449219 218.13542969 94.08914063 218.13414062 92.9296875 218.1328125 C91.40190674 218.13112061 91.40190674 218.13112061 89.84326172 218.12939453 C87.12483905 218.00568132 84.64728907 217.61128642 82 217 C81.25068658 206.52474072 80.85084409 196.08496682 80.66952515 185.58581543 C80.10732889 155.30351295 78.05892591 125.10017406 74.27026367 95.04785156 C73.42950501 88.33137325 72.66925671 81.77656261 73 75 C74.54785999 73.45214001 75.96529128 73.79276651 78.125 73.75 C89.47343752 73.89611722 99.99235024 76.73610106 110 82 C106.50050672 75.60962097 101.46787624 71.60595229 94.57519531 69.12841797 C87.36968895 67.16140545 80.23168256 66.1078781 72.8125 65.3125 C71.09836914 65.11817383 71.09836914 65.11817383 69.34960938 64.91992188 C66.56716944 64.60558766 63.78411276 64.29908776 61 64 C59.12514417 57.84089916 58.0675586 51.68043846 57.07421875 45.328125 C55.96671987 39.87058023 53.43123762 34.9737946 51 30 C50.94465088 30.80219971 50.88930176 31.60439941 50.83227539 32.4309082 C50.5797202 36.0583997 50.32118254 39.68544053 50.0625 43.3125 C49.97548828 44.57513672 49.88847656 45.83777344 49.79882812 47.13867188 C49.71181641 48.34716797 49.62480469 49.55566406 49.53515625 50.80078125 C49.456604 51.91622314 49.37805176 53.03166504 49.29711914 54.1809082 C49 57 49 57 48 60 C42.48252024 58.56065745 38.7315613 55.85318595 34.25 52.5 C25.58439906 46.17918607 16.47088573 41.00683082 7 36 C7.144375 35.29617188 7.28875 34.59234375 7.4375 33.8671875 C10.23153232 20.73495669 10.23153232 20.73495669 8.01953125 7.921875 C6.61821961 6.12486669 6.61821961 6.12486669 4 4 C2.65945312 2.67391945 1.32481389 1.34179868 0 0 Z " fill="#F9F9F9" transform="translate(470,286)"/>
<path d="M0 0 C0.66 0 1.32 0 2 0 C2.74318822 34.60008552 3.14629074 69.1816795 3.10139394 103.78949237 C3.09495098 109.64018287 3.09454068 115.49087449 3.09336853 121.34156799 C3.09031473 132.31869119 3.08218567 143.2958039 3.07201904 154.27292258 C3.06066783 166.81325667 3.05530062 179.35359138 3.05032361 191.89392936 C3.03999473 217.59595863 3.02251658 243.29797871 3 269 C1.36538818 269.16761841 1.36538818 269.16761841 -0.30224609 269.33862305 C-1.75103928 269.49992593 -3.19976644 269.66182268 -4.6484375 269.82421875 C-5.36443115 269.8960437 -6.0804248 269.96786865 -6.81811523 270.04187012 C-14.74767602 270.95647029 -20.33417633 274.42610676 -26.0625 279.875 C-30.06389617 282.76962702 -33.21981177 282.47801882 -38 282 C-39 279 -39 279 -37.5625 275.4375 C-35.64463235 270.61619381 -35.22186603 266.13568421 -36 261 C-37.51976394 258.07304722 -39.20299721 255.92211369 -41.34375 253.4453125 C-47.12459772 246.68978697 -46.65373552 239.65213771 -46 231 C-45.51742892 227.54532449 -44.83282679 224.13133184 -44.1630497 220.70886517 C-43.23907195 215.8123974 -42.65860037 210.97302502 -42.41552734 205.9934082 C-42.37603155 205.22980893 -42.33653576 204.46620966 -42.29584312 203.67947102 C-41.84545824 194.03741442 -41.83127889 184.38829806 -41.80076981 174.73756981 C-41.78874864 171.26479764 -41.76924562 167.79213745 -41.74765015 164.31941223 C-41.68678437 154.45899267 -41.63212753 144.59859117 -41.59863281 134.73803711 C-41.57747826 128.66763893 -41.54202804 122.59745795 -41.49787521 116.52718544 C-41.48389641 114.24192193 -41.47503473 111.95662015 -41.47182083 109.67131615 C-41.4097865 69.80495912 -31.84814632 34.43010255 -3.7421875 4.8828125 C-1.8290245 2.91465743 -1.8290245 2.91465743 0 0 Z " fill="#FBFBFB" transform="translate(644,387)"/>
<path d="M0 0 C1.00243744 0.00188324 2.00487488 0.00376648 3.03768921 0.00570679 C105.25050372 0.231081 105.25050372 0.231081 144.64453125 36.83203125 C147.55196814 39.51969338 150.54422645 42.09511469 153.56640625 44.65234375 C155.125 46.125 155.125 46.125 157.125 49.125 C138.64631451 58.15902402 115.79106042 55.03896831 96.98608398 48.71801758 C86.24865303 44.9036569 76.78225227 39.45343914 67.5625 32.78125 C56.2980525 25.12720234 41.05182476 18.89696597 27.3125 19.0625 C25.84876953 19.07603516 25.84876953 19.07603516 24.35546875 19.08984375 C23.61941406 19.10144531 22.88335937 19.11304688 22.125 19.125 C23.15238281 19.6096875 24.17976562 20.094375 25.23828125 20.59375 C37.59964908 26.52612958 49.93387977 32.85779491 57.125 45.125 C57.8359375 48.4296875 57.8359375 48.4296875 58.125 51.125 C43.06060408 56.92792601 26.82843313 51.84625173 12.75 45.625 C7.37949331 43.19102616 2.07578035 40.62135361 -3.2265625 38.04296875 C-4.32693848 37.50929688 -5.42731445 36.975625 -6.56103516 36.42578125 C-8.71843673 35.37553006 -10.87199289 34.31733047 -13.02099609 33.25 C-21.63307624 29.03590138 -30.11113244 26.32952237 -39.5 24.5 C-41.31371094 24.14035156 -41.31371094 24.14035156 -43.1640625 23.7734375 C-50.40537091 22.50811414 -57.5420834 21.90605446 -64.875 21.5625 C-66.18017578 21.49772461 -66.18017578 21.49772461 -67.51171875 21.43164062 C-69.63268219 21.32675782 -71.75382433 21.22549925 -73.875 21.125 C-72.49003406 23.89493188 -70.95157842 24.1134198 -68.125 25.375 C-58.90402096 29.83532882 -50.61159912 35.81633857 -42.17993164 41.59448242 C-39.78749858 43.18310257 -37.34798353 44.66559256 -34.875 46.125 C-42.30839928 51.08059952 -56.13121454 49.02681668 -64.65527344 47.68847656 C-84.29543991 43.46980736 -104.63074492 33.39270266 -115.9375 16.375 C-118.17366615 12.72277754 -119.56062836 9.1917422 -120.875 5.125 C-119.02660522 5.14071045 -119.02660522 5.14071045 -117.14086914 5.15673828 C-91.01491414 5.35925389 -65.33344527 5.29666846 -39.41894531 1.59570312 C-26.32178277 -0.14384836 -13.18459625 -0.03737785 0 0 Z " fill="#F9F9F9" transform="translate(279.875,696.875)"/>
<path d="M0 0 C7.20459114 3.23157389 12.44955593 8.79228357 15.8964119 15.84250259 C17.62591929 20.83399201 17.29679802 26.01484135 17.24755859 31.24169922 C17.25135529 32.51737259 17.25515198 33.79304596 17.25906372 35.1073761 C17.26870168 38.5843923 17.25352853 42.06088974 17.23315763 45.53784323 C17.21551702 49.18172657 17.21911293 52.82559559 17.21987915 56.46951294 C17.21801062 62.58067452 17.20069988 68.69163652 17.17333984 74.80273438 C17.14180928 81.87156765 17.13134678 88.94018321 17.13281095 96.00908172 C17.13416015 103.53985943 17.12029706 111.0705531 17.10191774 118.60130548 C17.09765214 120.77162017 17.09623504 122.94192134 17.09543991 125.11223984 C17.09306354 129.14638358 17.07366463 133.18026796 17.05224609 137.21435547 C17.05360565 139.02213722 17.05360565 139.02213722 17.05499268 140.86643982 C17.04219772 142.50660316 17.04219772 142.50660316 17.02914429 144.17990112 C17.0257926 145.13370604 17.02244091 146.08751095 17.01898766 147.07021904 C16.76171875 149.33984375 16.76171875 149.33984375 14.76171875 151.33984375 C12.73690796 151.58035278 12.73690796 151.58035278 10.22021484 151.56689453 C9.27939056 151.56674347 8.33856628 151.56659241 7.36923218 151.56643677 C6.35148712 151.5561142 5.33374207 151.54579163 4.28515625 151.53515625 C3.24477203 151.53232635 2.20438782 151.52949646 1.13247681 151.52658081 C-2.19955819 151.51536079 -5.53132711 151.4902529 -8.86328125 151.46484375 C-11.11848571 151.45481631 -13.37369437 151.44569005 -15.62890625 151.4375 C-21.16545579 151.41541553 -26.70184952 151.38192014 -32.23828125 151.33984375 C-32.3319027 134.69307758 -32.40234738 118.04639739 -32.44552994 101.39943123 C-32.46611717 93.66919252 -32.49416382 85.9391178 -32.54003906 78.20898438 C-32.58002499 71.46798172 -32.60574194 64.72709788 -32.61463523 57.98597991 C-32.61983023 54.419643 -32.63195893 50.8536459 -32.66120148 47.28741837 C-32.69365332 43.29709325 -32.69423318 39.30735134 -32.69238281 35.31689453 C-32.70676392 34.14660202 -32.72114502 32.97630951 -32.73596191 31.77055359 C-32.6817723 20.93814004 -29.84020699 13.08828224 -22.30078125 5.2578125 C-15.78790168 -0.7986721 -8.68463306 -2.56143628 0 0 Z " fill="#FDFDFD" transform="translate(578.23828125,60.66015625)"/>
<path d="M0 0 C1.13630859 -0.020625 2.27261719 -0.04125 3.44335938 -0.0625 C4.53583984 -0.06765625 5.62832031 -0.0728125 6.75390625 -0.078125 C7.74849854 -0.0874707 8.74309082 -0.09681641 9.76782227 -0.10644531 C12.9546545 0.31904852 14.27712897 0.86271636 16.4375 3.25 C16.98339844 5.93286133 16.98339844 5.93286133 17.046875 9.33203125 C17.07174736 10.30687973 17.07174736 10.30687973 17.09712219 11.30142212 C17.14768447 13.55520789 17.16778163 15.80824557 17.1875 18.0625 C17.21579299 19.69606116 17.24504956 21.32960585 17.27514648 22.96313477 C17.79105398 55.38218544 17.51013966 87.82849798 17.4375 120.25 C-0.0525 120.25 -17.5425 120.25 -35.5625 120.25 C-35.64271762 99.75885496 -35.64271762 99.75885496 -35.66015625 90.9140625 C-35.67203641 84.91728097 -35.68597345 78.92056144 -35.71337891 72.92382812 C-35.73537148 68.0802989 -35.74712328 63.23683632 -35.75225449 58.39326096 C-35.75590349 56.56042814 -35.76302626 54.7275983 -35.77396011 52.89479446 C-35.82642539 43.72167633 -35.68981845 34.61398428 -34.80029297 25.47802734 C-34.73934008 24.76482141 -34.67838718 24.05161549 -34.61558723 23.31679726 C-33.7542022 15.64951729 -30.60428931 9.16773549 -24.5625 4.25 C-16.3653287 0.15141435 -8.99316466 0.04094782 0 0 Z " fill="#FCFCFC" transform="translate(198.5625,104.75)"/>
<path d="M0 0 C19.8 0 39.6 0 60 0 C61.83663094 7.95873408 63.5112749 15.48391889 64.5 23.515625 C64.62181641 24.45573425 64.74363281 25.39584351 64.86914062 26.36444092 C65.25219349 29.32555009 65.62684901 32.28762814 66 35.25 C67.69016366 48.57104247 69.5601436 61.79523378 72 75 C72.5845699 78.37162693 73.14327739 81.74665636 73.6875 85.125 C73.81705078 85.89585937 73.94660156 86.66671875 74.08007812 87.4609375 C74.20189453 88.21890625 74.32371094 88.976875 74.44921875 89.7578125 C74.55580811 90.4089502 74.66239746 91.06008789 74.7722168 91.73095703 C75.0809237 94.80611454 75 97.9093862 75 101 C58.5 101 42 101 25 101 C25.93444237 95.3933458 26.77519915 93.36908502 30 89 C29.35933594 88.5875 28.71867187 88.175 28.05859375 87.75 C15.07402332 79.080719 7.50042038 67.89995473 4.19311523 52.64282227 C3.52190413 49.21740935 2.92516492 45.78464596 2.37451172 42.33789062 C2.04952621 40.30916752 1.68636035 38.28663142 1.31640625 36.265625 C-0.69437189 24.00681204 0 12.78219496 0 0 Z " fill="#FBFBFB" transform="translate(138,590)"/>
<path d="M0 0 C8.07212268 2.47074477 14.36099488 5.81359692 21 11 C21.90878906 11.70511719 22.81757813 12.41023437 23.75390625 13.13671875 C29.1378727 17.42741802 34.09350862 21.95268206 38.88671875 26.890625 C40.84655566 28.84683929 42.86912076 30.6097746 45 32.375 C49.06275086 35.86768108 52.30816254 39.84612233 55.63671875 44.03125 C57.68486138 46.60412339 59.77137536 49.13161632 61.88989258 51.64599609 C65.20117821 55.57966636 68.49700943 59.53007442 71.6875 63.5625 C72.40486328 64.46162109 72.40486328 64.46162109 73.13671875 65.37890625 C73.56404297 66.18134766 73.56404297 66.18134766 74 67 C73.67 67.99 73.34 68.98 73 70 C70.97913345 69.8755382 68.95831133 69.75035514 66.9375 69.625 C66.26431229 69.58422836 65.59112457 69.54345673 64.89753723 69.50144958 C60.08502609 69.20581963 55.27626551 68.87646784 50.46777344 68.52124023 C31.47521934 67.15471822 12.55220214 66.62593904 -6.48504639 66.45739746 C-13.07738518 66.39784079 -19.66957194 66.32378392 -26.26171875 66.24609375 C-26.95652218 66.23820202 -27.65132561 66.23031029 -28.36718369 66.22217941 C-39.59612234 66.09035093 -50.79263217 65.71140268 -62 65 C-63.43396662 54.24449804 -64.28457917 43.86143818 -64 33 C-62.80246094 32.78085938 -61.60492188 32.56171875 -60.37109375 32.3359375 C-37.12260832 27.88833854 -15.19179095 18.91428277 0 0 Z " fill="#FAFAFA" transform="translate(480,211)"/>
<path d="M0 0 C7.05769049 -0.02572329 14.11536854 -0.04302027 21.1730957 -0.05493164 C23.5653529 -0.05990648 25.95760715 -0.06668874 28.34985352 -0.07543945 C42.60357058 -0.12620693 56.77590548 0.03754887 71 1 C70.70903855 4.95838548 70.4170436 8.91669423 70.125 12.875 C69.99073608 14.70285034 69.99073608 14.70285034 69.85375977 16.56762695 C69.40664597 22.62611653 68.94972086 28.68331444 68.45703125 34.73828125 C67.29091264 49.15220091 66.48479261 63.54687409 66 78 C65.28682617 78.11480713 64.57365234 78.22961426 63.83886719 78.34790039 C47.87050681 80.97127388 31.62506191 83.68746905 17 91 C14.3276379 91.13415472 11.67749512 91.04318541 9 91 C7.13273661 77.22759034 5.46612516 63.43535998 3.85839844 49.63037109 C3.53715595 46.87622395 3.21109898 44.12271146 2.88085938 41.36962891 C2.39771059 37.34128609 1.92892525 33.31138267 1.4609375 29.28125 C1.24067398 27.46651184 1.24067398 27.46651184 1.01596069 25.6151123 C0.03561562 17.02293237 -0.15959203 8.6356071 0 0 Z " fill="#FBFBFB" transform="translate(358,476)"/>
<path d="M0 0 C0.79535156 0.19335938 1.59070313 0.38671875 2.41015625 0.5859375 C20.42561227 5.77169493 33.32298295 16.21004584 43 32 C44.42152285 36.26456854 44.22445293 40.34495685 44.25 44.8125 C44.2809375 46.14764648 44.2809375 46.14764648 44.3125 47.50976562 C44.3438557 52.79712054 43.89611202 56.38908481 41 61 C38.03 60.01 38.03 60.01 35 59 C35 52.4 35 45.8 35 39 C33.68 38.34 32.36 37.68 31 37 C30.67 43.27 30.34 49.54 30 56 C27.36 55.67 24.72 55.34 22 55 C21.97293555 52.10410348 21.95312971 49.20846205 21.9375 46.3125 C21.92912109 45.49587891 21.92074219 44.67925781 21.91210938 43.83789062 C21.89557949 39.75500916 21.96964902 35.98348293 23 32 C21.02 31.67 19.04 31.34 17 31 C16.67 37.93 16.34 44.86 16 52 C13.69 51.67 11.38 51.34 9 51 C9 43.41 9 35.82 9 28 C6.69 27.67 4.38 27.34 2 27 C2 34.26 2 41.52 2 49 C-0.31 48.67 -2.62 48.34 -5 48 C-5.99 37.605 -5.99 37.605 -7 27 C-8.65 26.34 -10.3 25.68 -12 25 C-12 32.26 -12 39.52 -12 47 C-14.31 47 -16.62 47 -19 47 C-19 39.74 -19 32.48 -19 25 C-21.64 25 -24.28 25 -27 25 C-27 32.26 -27 39.52 -27 47 C-29.31 47 -31.62 47 -34 47 C-34 39.74 -34 32.48 -34 25 C-36.64 25 -39.28 25 -42 25 C-42 32.26 -42 39.52 -42 47 C-43.98 47 -45.96 47 -48 47 C-48 40.07 -48 33.14 -48 26 C-50.31 26 -52.62 26 -55 26 C-54.98839844 26.65484375 -54.97679687 27.3096875 -54.96484375 27.984375 C-54.89504853 35.0436634 -55.31351231 41.97575988 -56 49 C-58.97 49.495 -58.97 49.495 -62 50 C-62.85373239 42.97195301 -63.12109311 36.07721931 -63 29 C-66.465 29.495 -66.465 29.495 -70 30 C-70 37.26 -70 44.52 -70 52 C-72.97 52.495 -72.97 52.495 -76 53 C-76.88021369 46.28837062 -77.11381955 39.76594019 -77 33 C-78.65 33.66 -80.3 34.32 -82 35 C-82.33 41.93 -82.66 48.86 -83 56 C-86.465 56.495 -86.465 56.495 -90 57 C-90.66 51.39 -91.32 45.78 -92 40 C-93.485 40.495 -93.485 40.495 -95 41 C-95 47.27 -95 53.54 -95 60 C-97.97 60.99 -97.97 60.99 -101 62 C-105.05203017 54.97648104 -104.8529642 45.84392573 -104 38 C-99.51283683 23.85344742 -88.02347256 13.78642107 -75.5234375 6.5703125 C-52.89288731 -4.70993079 -24.2158631 -6.22112209 0 0 Z " fill="#F7F7F7" transform="translate(412,20)"/>
<path d="M0 0 C14.18682414 5.40206613 23.86908992 14.57272636 30.07080078 28.3125 C32.25646602 33.50391879 33.69277302 38.81733168 34.69970703 44.35546875 C35.19599609 43.32808594 35.69228516 42.30070312 36.20361328 41.2421875 C44.05357645 25.15686748 51.59663377 11.26756493 67.69970703 2.35546875 C68.32232422 1.99195313 68.94494141 1.6284375 69.58642578 1.25390625 C76.4795838 -2.0610057 85.25476415 -1.06080763 92.69970703 -0.64453125 C93.68970703 -0.14953125 93.68970703 -0.14953125 94.69970703 0.35546875 C93.24355211 3.87192798 91.40042763 5.62189957 88.44970703 7.98046875 C77.85454127 17.18108621 73.89931079 29.72585522 72.41088867 43.29345703 C71.0010828 56.06214013 68.66047766 66.60942625 58.69970703 75.35546875 C50.67409077 81.4192677 43.50052438 82.86640812 33.69970703 82.79296875 C32.75353516 82.81294922 31.80736328 82.83292969 30.83251953 82.85351562 C22.25266447 82.8475739 15.71004631 80.0886553 9.36376953 74.29296875 C1.5637955 65.21130884 -0.32953168 53.3618339 -1.93310547 41.88671875 C-4.1984085 26.02792817 -9.76467031 15.45756311 -21.30029297 4.35546875 C-21.96029297 4.02546875 -22.62029297 3.69546875 -23.30029297 3.35546875 C-23.30029297 2.36546875 -23.30029297 1.37546875 -23.30029297 0.35546875 C-17.20508345 -2.69213601 -6.45342531 -1.80821936 0 0 Z " fill="#FAFAFA" transform="translate(55.30029296875,280.64453125)"/>
<path d="M0 0 C3.35868488 2.29393655 6.62734146 4.67536839 9.87890625 7.1171875 C11.86308774 8.59107949 13.84960353 10.06169583 15.83862305 11.52905273 C17.12330786 12.47944356 18.40369779 13.43567767 19.67895508 14.39868164 C25.36811967 18.64440794 30.60112754 21.26279663 37.62890625 22.6796875 C43.66002213 23.89830338 43.66002213 23.89830338 45.87890625 26.1171875 C46.88620002 30.24609875 47.39688959 34.47533695 48.00390625 38.6796875 C48.18276367 39.89503174 48.36162109 41.11037598 48.54589844 42.36254883 C49.84297579 51.68359376 50.3557063 60.72687539 49.87890625 70.1171875 C29.41583469 70.92141302 11.51300709 65.78693108 -7.47265625 58.4375 C-12.01558319 56.79348575 -15.38195262 56.02528938 -20.12109375 57.1171875 C-24.03151639 59.13276105 -27.56320315 61.53917496 -31.12109375 64.1171875 C-34.12109375 66.1171875 -34.12109375 66.1171875 -38.12109375 66.1171875 C-36.57207331 61.29597597 -33.81614624 57.8721417 -30.68359375 53.9921875 C-30.19310547 53.37214844 -29.70261719 52.75210938 -29.19726562 52.11328125 C-23.00198854 44.33783227 -23.00198854 44.33783227 -20.078125 43.60546875 C-17.09960938 43.36132812 -17.09960938 43.36132812 -14.12109375 43.1171875 C-15.67092636 41.56735489 -17.15777753 41.83585789 -19.30859375 41.7421875 C-23.25643559 41.82326482 -25.71218662 42.44251992 -28.65625 45.296875 C-31.22261867 48.4860158 -33.31899758 51.9604118 -35.45703125 55.4453125 C-37.47397549 58.68378634 -39.42167282 61.41776657 -42.12109375 64.1171875 C-43.44109375 64.1171875 -44.76109375 64.1171875 -46.12109375 64.1171875 C-47.29177269 55.5322086 -42.67689096 48.69093471 -37.8359375 41.921875 C-31.01094976 33.41211294 -23.1564457 29.88960083 -13.12109375 26.1171875 C-12.62609375 25.6221875 -12.62609375 25.6221875 -12.12109375 25.1171875 C-21.01691324 24.17156889 -27.79506663 25.88277866 -35.12109375 31.1171875 C-37.63446786 33.89751317 -39.39097037 36.80589175 -41.12109375 40.1171875 C-41.91053913 41.47265032 -42.70197939 42.82695476 -43.49609375 44.1796875 C-44.03234375 45.1490625 -44.56859375 46.1184375 -45.12109375 47.1171875 C-48.99609375 46.2421875 -48.99609375 46.2421875 -50.12109375 45.1171875 C-51.71926888 38.33248175 -49.61321647 33.21796187 -46.18359375 27.4921875 C-37.1792261 13.35028276 -37.1792261 13.35028276 -30.09814453 11.62402344 C-26.3159345 10.97030812 -22.54757633 10.61061118 -18.71875 10.37109375 C-15.28698135 10.3597713 -15.28698135 10.3597713 -13.12109375 9.1171875 C-18.70076582 6.70435634 -24.14582053 6.43579669 -30.12109375 7.1171875 C-40.48322409 11.33229137 -46.96774083 21.21446412 -53.12109375 30.1171875 C-54.44109375 29.7871875 -55.76109375 29.4571875 -57.12109375 29.1171875 C-57.76068426 22.08169186 -56.30321534 17.80299326 -52.12109375 12.1171875 C-38.01325299 -4.38773771 -19.82382705 -11.9588043 0 0 Z " fill="#F7F7F7" transform="translate(488.12109375,335.8828125)"/>
<path d="M0 0 C5.17525697 3.3351656 9.66854738 7.79470465 11.63671875 13.69921875 C12.30945974 22.18016669 12.44214113 30.38718415 7.63671875 37.69921875 C4.23213203 41.6194379 0.92259937 44.21765156 -4.21875 45.30078125 C-8.67681685 45.52940006 -11.58640749 45.11050486 -15.55078125 43.01171875 C-19.74311094 35.34987483 -17.55589648 25.7844874 -15.36328125 17.69921875 C-19.41400042 17.93749635 -21.7933758 18.26184945 -25.05078125 20.76171875 C-34.0255957 32.16215872 -34.83323014 46.16405354 -35.44726562 60.1640625 C-36.10924898 71.43783955 -38.67877877 79.07165157 -47.11328125 86.69921875 C-48.37717318 87.90391656 -49.63760625 89.11225375 -50.89453125 90.32421875 C-51.49652344 90.90171875 -52.09851563 91.47921875 -52.71875 92.07421875 C-56.33148974 95.64405185 -59.35299812 99.62215504 -62.36328125 103.69921875 C-63.15089844 104.73175781 -63.93851563 105.76429687 -64.75 106.828125 C-71.32812378 115.60656148 -76.45425724 124.90488581 -81.36328125 134.69921875 C-82.02328125 134.36921875 -82.68328125 134.03921875 -83.36328125 133.69921875 C-82.76791885 119.07653737 -80.95922024 104.58927065 -79.22454834 90.06646729 C-78.98809955 88.07268665 -78.75596531 86.07845234 -78.52539062 84.08398438 C-78.07460281 80.19186319 -77.61469289 76.30091923 -77.15234375 72.41015625 C-77.01784821 71.24205414 -76.88335266 70.07395203 -76.74478149 68.87045288 C-73.50889468 42.15489695 -66.5324041 23.09716705 -45.11328125 6.13671875 C-31.63193869 -3.26550514 -15.34392171 -7.30563257 0 0 Z " fill="#F9F9F9" transform="translate(693.36328125,20.30078125)"/>
<path d="M0 0 C5.37159193 3.0108286 10.53301322 6.24062372 15.66210938 9.64453125 C19.9620573 12.45325144 24.37425831 14.76583277 29 17 C29.04898438 18.18335938 29.09796875 19.36671875 29.1484375 20.5859375 C29.51857024 40.28049305 29.51857024 40.28049305 38.94140625 56.85546875 C50.49599245 65.22685946 64.34372863 64.63228239 78 65 C77.67 69.62 77.34 74.24 77 79 C33.77 79 -9.46 79 -54 79 C-54 75.37 -54 71.74 -54 68 C-52.91460937 67.75765625 -51.82921875 67.5153125 -50.7109375 67.265625 C-49.26547493 66.92772466 -47.82017061 66.58914687 -46.375 66.25 C-45.66214844 66.09273437 -44.94929688 65.93546875 -44.21484375 65.7734375 C-39.34285149 64.61131091 -36.06542044 62.90561581 -32 60 C-31.34 60 -30.68 60 -30 60 C-29.72285156 59.29746094 -29.44570312 58.59492187 -29.16015625 57.87109375 C-28.3858528 55.95488823 -27.58088689 54.05079367 -26.74609375 52.16015625 C-24.20087664 46.13520949 -22.72785245 41.06629333 -22.5 34.5 C-22.23426798 28.33365439 -22.23426798 28.33365439 -19.9375 25.0625 C-18.968125 24.381875 -17.99875 23.70125 -17 23 C-8.60564541 17.03799652 -4.63727495 8.94178248 0 0 Z " fill="#FAFAFA" transform="translate(97,671)"/>
<path d="M0 0 C1.1763501 0.00628418 1.1763501 0.00628418 2.37646484 0.01269531 C13.38495061 0.22487445 24.36620961 2.68918859 32.75 10.1875 C37.69451521 15.46837678 40.90559103 21.95921032 44.25 28.3125 C44.81098389 29.3629248 44.81098389 29.3629248 45.38330078 30.43457031 C46.52047886 32.57394983 47.63883488 34.72200885 48.75 36.875 C49.10054443 37.54136475 49.45108887 38.20772949 49.81225586 38.89428711 C51.61434283 42.46894842 52.89065362 45.28657444 52.25 49.3125 C50.25 51.3125 50.25 51.3125 46.875 51.6875 C42.54983711 51.24006936 41.96983108 50.5623769 39.25 47.3125 C38.06444873 45.24184538 36.94306812 43.13362903 35.875 41 C31.94836037 33.52428224 28.52838824 28.59729795 21.25 24.3125 C21.74197876 25.68184692 21.74197876 25.68184692 22.24389648 27.07885742 C23.46438386 30.47880473 24.68025892 33.8803864 25.89477539 37.2824707 C26.42021829 38.75231913 26.94689684 40.22172646 27.47485352 41.69067383 C28.23522075 43.8069457 28.99107274 45.92478453 29.74609375 48.04296875 C29.98154404 48.69524948 30.21699432 49.34753021 30.45957947 50.01957703 C32.7216249 56.39273909 33.39075626 61.88894182 33.3125 68.625 C33.30798828 69.36556641 33.30347656 70.10613281 33.29882812 70.86914062 C33.28712175 72.68362899 33.26918898 74.49807534 33.25 76.3125 C31.93 76.6425 30.61 76.9725 29.25 77.3125 C24.76712256 70.67751655 21.75864503 63.77862649 18.75 56.375 C15.642778 48.75490795 12.4712501 41.38950362 8.25 34.3125 C9.82438954 45.28966661 13.352869 54.84616544 18.5625 64.625 C21.12289871 69.55589573 21.88474443 72.81138163 21.25 78.3125 C18.775 78.8075 18.775 78.8075 16.25 79.3125 C7.32465162 70.16401791 2.27362441 58.03601167 -2.23046875 46.23828125 C-3.9338304 42.95854379 -5.73482703 41.39524973 -8.75 39.3125 C-5.29705388 49.76612512 -1.36704295 59.79578856 3.44116211 69.70996094 C4.00975952 70.91507324 4.00975952 70.91507324 4.58984375 72.14453125 C5.10599243 73.20764526 5.10599243 73.20764526 5.63256836 74.29223633 C6.37102941 76.70851358 6.11724017 77.96691566 5.25 80.3125 C4.25 81.3125 4.25 81.3125 1.1875 81.5625 C-2.71455434 80.88561302 -4.30813627 78.94560181 -6.6875 75.875 C-13.90742746 65.12221483 -18.65636234 52.53954933 -22.75 40.3125 C-22.37811356 49.7584156 -20.36850241 58.26253107 -16 66.6875 C-14.5403142 69.75284018 -14.51038574 71.95790039 -14.75 75.3125 C-17.4375 76.125 -17.4375 76.125 -20.75 76.3125 C-29.27683393 69.86538166 -32.51810766 59.30511345 -35.8269043 49.58642578 C-36.56075971 47.44258399 -37.32130644 45.30951321 -38.08398438 43.17578125 C-43.2150341 28.4891815 -43.2150341 28.4891815 -41.75 21.3125 C-37.01259207 11.78573888 -26.54061328 5.67702671 -16.75 2.3125 C-11.04468188 0.64994399 -5.93153752 -0.04366146 0 0 Z " fill="#F7F7F7" transform="translate(246.75,520.6875)"/>
<path d="M0 0 C5.71873603 3.07117306 10.91072467 7.73217402 13 14 C13.15726532 16.89775904 13.27596646 19.78784357 13.375 22.6875 C14.21108917 41.47891734 18.44168844 58.16253267 29 74 C17.14967288 74.60828675 8.39266375 72.37367995 -1 65 C-1.61746094 64.52046875 -2.23492187 64.0409375 -2.87109375 63.546875 C-11.12732277 56.26521199 -15.4712713 44.45207865 -18 34 C-20.72729424 36.72729424 -21.79274964 39.99525099 -23.25 43.5 C-29.88977611 58.97038507 -37.01997473 69.30969609 -53 76 C-57.13795268 77.59483593 -60.44426197 78.23306678 -64.875 78.125 C-65.84179688 78.10695313 -66.80859375 78.08890625 -67.8046875 78.0703125 C-68.52914062 78.04710937 -69.25359375 78.02390625 -70 78 C-69.46890625 77.05640625 -68.9378125 76.1128125 -68.390625 75.140625 C-60.00710629 60.01659869 -56.50133762 45.87054266 -55.66381836 28.68432617 C-55.19705051 19.19712902 -54.41071001 8.85272713 -47 2 C-33.4453832 -6.34964395 -14.3517523 -7.12655742 0 0 Z " fill="#FAFAFA" transform="translate(112,376)"/>
<path d="M0 0 C16.64526803 8.41448223 32.49947283 13.58989422 51.07421875 15.9453125 C53.875 16.375 53.875 16.375 55.875 17.375 C55.66015625 19.70703125 55.66015625 19.70703125 54.875 22.375 C52.87109375 23.88671875 52.87109375 23.88671875 50.3125 25.0625 C49.07306641 25.65611328 49.07306641 25.65611328 47.80859375 26.26171875 C34.04249885 31.48586928 17.58933829 31.55799324 4.015625 25.8203125 C2.46101563 25.10488281 2.46101563 25.10488281 0.875 24.375 C-1.41504197 23.4335383 -3.70663796 22.49584502 -6 21.5625 C-7.69125 20.840625 -9.3825 20.11875 -11.125 19.375 C-8.815 23.335 -6.505 27.295 -4.125 31.375 C-36.26290879 32.63531015 -69.73215585 17.93373857 -94.125 -2.625 C-93.795 -4.275 -93.465 -5.925 -93.125 -7.625 C-86.14162583 -9.68522533 -79.14375094 -11.68856982 -72.125 -13.625 C-71.43374023 -13.81594238 -70.74248047 -14.00688477 -70.03027344 -14.20361328 C-43.68998558 -21.26586437 -23.20718764 -11.76442265 0 0 Z " fill="#F8F8F8" transform="translate(495.125,713.625)"/>
<path d="M0 0 C-0.03758423 0.92159912 -0.03758423 0.92159912 -0.07592773 1.86181641 C-0.20380878 5.1159685 -0.32132515 8.37040825 -0.4375 11.625 C-0.48551758 12.92630859 -0.53353516 14.22761719 -0.58300781 15.56835938 C-0.91382288 25.22322806 -1.04603616 34.87369002 -1.10037422 44.53376389 C-1.12639236 48.73355324 -1.16516497 52.9332532 -1.20286846 57.13295174 C-1.23897769 61.36630539 -1.25284371 65.59905473 -1.2519865 69.83255196 C-1.25555875 71.8725304 -1.27055124 73.91205483 -1.29045105 75.95193481 C-1.31495539 78.48329573 -1.32131481 81.01491948 -1.30659485 83.5463562 C-1.41022206 90.73783741 -2.05522036 94.66759404 -7 100 C-9.4296875 102.1875 -9.4296875 102.1875 -11.875 104 C-28.00834384 116.52959396 -35.90095765 134.26029193 -43 153 C-43.33 153 -43.66 153 -44 153 C-44.09355733 144.18407822 -44.16419224 135.36833285 -44.20724869 126.55201912 C-44.22793579 122.45621059 -44.25589756 118.36074688 -44.30175781 114.26513672 C-44.67975074 79.58367106 -44.67975074 79.58367106 -40 65 C-39.55979315 63.55092863 -39.12036043 62.10162189 -38.68164062 60.65209961 C-31.76296562 38.32972238 -18.65375408 18.18902612 -3 1 C-1 0 -1 0 0 0 Z " fill="#FBFBFB" transform="translate(650,176)"/>
<path d="M0 0 C0.89883695 16.15208919 1.30170524 32.30079157 1.39288902 48.47571373 C1.41339945 52.0965214 1.44628099 55.71630184 1.50756836 59.33666992 C1.56784666 62.90886467 1.59849939 66.48017963 1.60820198 70.05285835 C1.62077788 72.03993424 1.66272679 74.02675567 1.70542908 76.01341248 C1.68254453 85.99194703 1.68254453 85.99194703 -1.91259766 90.25732422 C-3.51211548 91.78268433 -3.51211548 91.78268433 -5 93 C-5.66644531 93.59167969 -6.33289063 94.18335938 -7.01953125 94.79296875 C-7.61121094 95.25316406 -8.20289063 95.71335937 -8.8125 96.1875 C-23.80150186 109.06778296 -31.93399006 129.4569051 -40 147 C-40.66 147 -41.32 147 -42 147 C-42.08382988 132.24194838 -41.64302064 117.51790736 -41.12792969 102.77050781 C-40.99976477 98.99306698 -40.89209821 95.21556937 -40.80322266 91.43701172 C-40.00551639 75.06888702 -35.27780801 59.82449431 -29.75 44.5 C-29.46309296 43.69560486 -29.17618591 42.89120972 -28.88058472 42.06243896 C-25.64852316 33.00501808 -22.39863493 23.94772168 -18.5625 15.125 C-18.28180664 14.46822266 -18.00111328 13.81144531 -17.71191406 13.13476562 C-13.69805833 4.39180671 -9.68681502 -0.17938546 0 0 Z " fill="#F7F7F7" transform="translate(646,283)"/>
<path d="M0 0 C4.79242608 0.57839625 8.10687669 1.81467853 11.4375 5.375 C13.98109097 9.79281589 14.13256339 14.41067027 13.625 19.4375 C11.70644495 25.31307483 7.62937357 29.02920571 2.625 32.4375 C-4.26103645 35.84793446 -11.63151147 37.15476191 -19.11328125 38.64453125 C-23.32946894 39.66954455 -26.63477812 41.26817131 -30.375 43.4375 C-27.54229926 46.27020074 -24.07347732 47.17126383 -20.375 48.5 C-12.53306452 51.35846774 -12.53306452 51.35846774 -10.375 52.4375 C-11.375 55.4375 -11.375 55.4375 -14.8125 57.375 C-21.63182426 60.2245422 -28.92921648 61.47728985 -36.13769531 62.96728516 C-39.43658207 63.66061295 -42.71700307 64.42242522 -46 65.1875 C-47.04414062 65.42984375 -48.08828125 65.6721875 -49.1640625 65.921875 C-49.89367187 66.09203125 -50.62328125 66.2621875 -51.375 66.4375 C-50.95089844 66.81519531 -50.52679687 67.19289063 -50.08984375 67.58203125 C-44.77089761 72.57365763 -41.09153639 78.19055585 -37.375 84.4375 C-49.01993952 85.08444108 -57.80252171 80.37346983 -67.8125 74.875 C-81.24001334 67.67777032 -94.94360847 62.33561431 -109.375 57.4375 C-109.375 56.4475 -109.375 55.4575 -109.375 54.4375 C-100.32784294 52.40839407 -91.17290102 51.33995259 -81.97558594 50.26293945 C-67.52718228 48.55931648 -55.03083017 45.75371953 -42.375 38.4375 C-41.6432959 38.02306641 -40.9115918 37.60863281 -40.15771484 37.18164062 C-26.55991895 29.29440685 -17.80381551 19.5483065 -8.99633789 6.61303711 C-4.50293215 0.58371343 -4.50293215 0.58371343 0 0 Z " fill="#F6F6F6" transform="translate(585.375,637.5625)"/>
<path d="M0 0 C0.95310059 0.01047363 1.90620117 0.02094727 2.88818359 0.03173828 C4.43505859 0.04140625 4.43505859 0.04140625 6.01318359 0.05126953 C7.63353516 0.07640625 7.63353516 0.07640625 9.28662109 0.10205078 C10.37458984 0.11107422 11.46255859 0.12009766 12.58349609 0.12939453 C15.27642261 0.15301669 17.96891365 0.18595522 20.66162109 0.22705078 C23.07233211 11.79577015 25.24311202 23.38920564 27.22412109 35.03955078 C29.0487988 51.02784893 29.0487988 51.02784893 33.66162109 66.22705078 C33.66162109 68.86705078 33.66162109 71.50705078 33.66162109 74.22705078 C16.17162109 74.22705078 -1.31837891 74.22705078 -19.33837891 74.22705078 C-18.03031667 66.37867737 -16.60645113 58.92991533 -14.58837891 51.28955078 C-12.14716272 41.79677911 -10.00415457 32.26233554 -8.02587891 22.66455078 C-7.77161133 21.43422119 -7.51734375 20.2038916 -7.25537109 18.9362793 C-5.83279608 12.00624426 -5.83279608 12.00624426 -4.79541016 5.01220703 C-4.22645592 1.54499017 -3.59467025 0.34903355 0 0 Z " fill="#F9F9F9" transform="translate(456.33837890625,476.77294921875)"/>
<path d="M0 0 C21.12 0 42.24 0 64 0 C60.47954215 18.77577521 60.47954215 18.77577521 57.4375 26.4375 C57.09162842 27.31873535 56.74575684 28.1999707 56.3894043 29.10791016 C50.15422794 44.45582374 41.37862371 57.02143821 30 69 C29.50943115 69.5563916 29.0188623 70.1127832 28.51342773 70.68603516 C27 72 27 72 24 72 C21.38746616 67.23552355 19.98276301 62.64555037 18.625 57.4375 C15.24651568 44.99863977 10.84800998 32.9191533 6.49462891 20.79663086 C6.21444916 20.01278015 5.93426941 19.22892944 5.64559937 18.42132568 C5.11911028 16.94993934 4.5892786 15.47974259 4.05532837 14.01104736 C3.81438446 13.33797546 3.57344055 12.66490356 3.32519531 11.97143555 C3.11679016 11.39523972 2.90838501 10.81904388 2.69366455 10.22538757 C1.6447589 6.86032934 0.85487598 3.41950392 0 0 Z " fill="#FBFBFB" transform="translate(521,590)"/>
<path d="M0 0 C-0.50125264 33.0245181 -1.53639178 61.61599395 -21.5625 89.4375 C-28.85812317 99.80496451 -32.47568336 110.66784928 -35.35253906 122.86767578 C-35.84681426 124.92574273 -36.41685424 126.96532839 -37 129 C-37.66 129.33 -38.32 129.66 -39 130 C-39.02325802 120.78507723 -39.04098332 111.5701647 -39.05181217 102.35521889 C-39.0570117 98.07550641 -39.06405563 93.79581414 -39.07543945 89.51611328 C-39.08637309 85.37936583 -39.09229886 81.24263772 -39.09487724 77.10587692 C-39.09671273 75.53438386 -39.10029664 73.96289175 -39.10573006 72.39140701 C-39.202032 43.36123816 -30.06068979 26.24111634 -10.0625 5.6875 C-9.51907959 5.11797607 -8.97565918 4.54845215 -8.41577148 3.96166992 C-4.47129684 0 -4.47129684 0 0 0 Z " fill="#F9F9F9" transform="translate(704,221)"/>
<path d="M0 0 C0.08010923 5.19565563 -0.17320562 10.08911208 -0.875 15.25 C-2.06894719 24.47857213 -2.65970164 33.74002181 -3.21435547 43.02636719 C-4.23746285 58.93490343 -7.58465172 71.62656624 -18 84 C-30.42634987 99.20244931 -35.73692611 114.55010305 -39.50927734 133.56738281 C-39.67508301 134.38303711 -39.84088867 135.19869141 -40.01171875 136.0390625 C-40.15440186 136.77592285 -40.29708496 137.5127832 -40.4440918 138.27197266 C-40.71926636 139.12734619 -40.71926636 139.12734619 -41 140 C-41.66 140.33 -42.32 140.66 -43 141 C-43.05025719 135.08163627 -43.08611507 129.16340262 -43.10986328 123.24487305 C-43.11978612 121.24061921 -43.13332869 119.2363793 -43.15087891 117.23217773 C-43.30796896 98.80181785 -42.19326035 80.98926843 -38 63 C-37.83129395 62.26281738 -37.66258789 61.52563477 -37.48876953 60.76611328 C-32.69536288 40.13436744 -24.959015 21.39577457 -10 6 C-9.41734375 5.35546875 -8.8346875 4.7109375 -8.234375 4.046875 C-4.49007009 0 -4.49007009 0 0 0 Z " fill="#F7F7F7" transform="translate(705,371)"/>
<path d="M0 0 C-0.06783691 0.90371338 -0.13567383 1.80742676 -0.20556641 2.73852539 C-0.77194476 10.6734351 -1.12647425 18.57539498 -1.29003906 26.53100586 C-2.06314484 62.07832047 -2.06314484 62.07832047 -12.04296875 72.0390625 C-16.13811711 75.8029338 -20.41411458 79.15788639 -25.078125 82.1875 C-30.71553998 87.50408648 -32.96677354 94.13221593 -34.6875 101.5 C-34.88666016 102.30308594 -35.08582031 103.10617187 -35.29101562 103.93359375 C-35.68231375 105.51674749 -36.06775649 107.10136218 -36.44677734 108.6875 C-37.27077484 112.13185317 -38.13734814 115.56514878 -39 119 C-41.84368888 116.15631112 -41.27342592 114.22795572 -41.30078125 110.24609375 C-41.30642593 109.56202454 -41.31207062 108.87795532 -41.31788635 108.17315674 C-41.33000501 105.92771287 -41.32359506 103.68294386 -41.3125 101.4375 C-41.31034485 100.67079987 -41.3081897 99.90409973 -41.30596924 99.11416626 C-41.13934939 62.19727564 -34.99298261 29.61687594 -8.1015625 2.93359375 C-5.01042992 0.08952195 -4.38481724 0 0 0 Z " fill="#F8F8F8" transform="translate(705,532)"/>
<path d="M0 0 C11.22 0 22.44 0 34 0 C34 12.375 34 12.375 33.72460938 18.03198242 C33.66454712 19.29245895 33.60448486 20.55293549 33.54260254 21.85160828 C33.47637587 23.18623129 33.41009038 24.52085138 33.34375 25.85546875 C33.27625889 27.25221158 33.20900239 28.64896577 33.14196777 30.04573059 C32.96674488 33.6838421 32.78838121 37.32179275 32.60931396 40.9597168 C32.42640984 44.68724355 32.24654423 48.41491685 32.06640625 52.14257812 C31.71387458 59.42853037 31.3580175 66.71431503 31 74 C29.58675067 73.86437656 28.17409921 73.72251625 26.76171875 73.578125 C25.58162231 73.46065918 25.58162231 73.46065918 24.37768555 73.34082031 C18.845361 72.54781024 13.42240342 70.4731485 9.23095703 66.68286133 C4.54125632 60.2714954 3.97608958 49.46661913 2.4375 41.8125 C2.02108227 39.75619571 1.60314454 37.70019858 1.18359375 35.64453125 C0.98588379 34.67322266 0.78817383 33.70191406 0.58447266 32.70117188 C0.07875573 30.36397384 -0.50412301 28.07459069 -1.13671875 25.76953125 C-2.07125861 21.68884815 -2.29811402 18.03686275 -2.25 13.875 C-2.25773437 13.19824219 -2.26546875 12.52148438 -2.2734375 11.82421875 C-2.25569206 7.23702342 -1.5131766 4.5395298 0 0 Z " fill="#FAFAFA" transform="translate(286,476)"/>
<path d="M0 0 C0.99386719 0.00902344 1.98773437 0.01804687 3.01171875 0.02734375 C4.15060547 0.04474609 4.15060547 0.04474609 5.3125 0.0625 C7.41312289 6.6467298 8.48824569 13.35279778 9.625 20.16015625 C9.83938721 21.42661484 10.05377441 22.69307343 10.2746582 23.99790955 C10.72754011 26.67455244 11.17779556 29.35161878 11.62597656 32.02905273 C12.19352232 35.41917384 12.76601598 38.80843412 13.34034729 42.19741154 C13.89563463 45.47631191 14.44777746 48.75573826 15 52.03515625 C15.20214111 53.23149185 15.40428223 54.42782745 15.61254883 55.66041565 C16.80533223 62.7922664 17.88736672 69.93139994 18.87313843 77.09489441 C19.38696326 80.56545154 20.1066645 83.90523521 20.9375 87.3125 C22.21478884 92.99932366 22.67401943 98.25140993 22.3125 104.0625 C19.12425432 105.65662284 15.68353338 105.16424735 12.1875 105.125 C11.43339844 105.12048828 10.67929687 105.11597656 9.90234375 105.11132812 C8.03902873 105.09953499 6.17575445 105.08159942 4.3125 105.0625 C-4.48666866 86.89025209 -6.82593705 72.0389862 -6.66687012 52.20365906 C-6.62888353 45.1254748 -7.16212529 38.11411012 -7.75 31.0625 C-8.54556384 21.03387373 -8.94610104 11.11920717 -8.6875 1.0625 C-5.53819107 0.01273036 -3.29935544 -0.03881595 0 0 Z " fill="#F6F6F6" transform="translate(511.6875,474.9375)"/>
<path d="M0 0 C6.27 0 12.54 0 19 0 C19 27.72 19 55.44 19 84 C12.04844862 82.60968972 5.6350968 81.15780806 -1.0625 79.0625 C-1.91521484 78.81048828 -2.76792969 78.55847656 -3.64648438 78.29882812 C-4.45537109 78.04681641 -5.26425781 77.79480469 -6.09765625 77.53515625 C-6.82476807 77.312229 -7.55187988 77.08930176 -8.30102539 76.85961914 C-10 76 -10 76 -11 73 C-10.88142395 70.76173401 -10.88142395 70.76173401 -10.53442383 68.11157227 C-10.4071138 67.11525284 -10.27980377 66.11893341 -10.14863586 65.09242249 C-9.93004158 63.47079445 -9.93004158 63.47079445 -9.70703125 61.81640625 C-9.55973068 60.69169418 -9.41243011 59.56698212 -9.26066589 58.40818787 C-8.94529638 56.01443583 -8.62645231 53.62113943 -8.30444336 51.22827148 C-7.82251707 47.63714335 -7.35472128 44.04439044 -6.88867188 40.45117188 C-5.09361608 26.83078309 -2.86019988 13.43850009 0 0 Z " fill="#F7F7F7" transform="translate(331,476)"/>
<path d="M0 0 C0.99 0.33 1.98 0.66 3 1 C2.93082525 6.6929671 2.84271494 12.38522052 2.73754883 18.07763672 C2.70442963 20.01147502 2.67635776 21.94540696 2.65356445 23.87939453 C2.61977815 26.66999979 2.5674517 29.45975691 2.51171875 32.25 C2.50213387 33.533302 2.50213387 33.533302 2.49235535 34.8425293 C2.34038621 41.1399508 1.49903519 46.86534489 -2.55883789 51.95532227 C-3.10789795 52.40447998 -3.65695801 52.8536377 -4.22265625 53.31640625 C-4.83850586 53.84443848 -5.45435547 54.3724707 -6.08886719 54.91650391 C-6.74016602 55.45968262 -7.39146484 56.00286133 -8.0625 56.5625 C-23.27641792 70.06130175 -32.10458163 88.98160604 -41 107 C-41.33 107 -41.66 107 -42 107 C-43.01104671 64.64837664 -31.99014638 33.56657521 -2.7109375 2.82421875 C-1.36902344 1.42623047 -1.36902344 1.42623047 0 0 Z " fill="#F8F9F8" transform="translate(651,114)"/>
<path d="M0 0 C12.53468244 2.22389527 23.12792668 7.92263693 30.7578125 18.41796875 C33.24973246 23.59771432 32.82232495 29.70486812 31.44921875 35.20703125 C25.48145116 49.09411129 7.99491115 59.42240379 -5.44921875 65.0390625 C-20.09330498 70.55582393 -20.09330498 70.55582393 -27 69 C-29.42267664 66.50606817 -29.94402728 65.06348165 -30.125 61.625 C-27.12291595 54.62013722 -19.59965794 49.96747451 -13.83203125 45.328125 C-11.10214175 43.08396756 -8.48253671 40.75949702 -5.875 38.375 C-1.9994205 34.83992669 2.00260958 31.57124312 6.1875 28.41015625 C8.10142143 26.9811697 8.10142143 26.9811697 10 25 C10.14087999 22.97104162 10.14087999 22.97104162 9 21 C8.05125 20.525625 7.1025 20.05125 6.125 19.5625 C2.46947089 17.73473544 1.70193196 16.65637608 0 13 C-0.29296875 9.66796875 -0.29296875 9.66796875 -0.1875 6.1875 C-0.16042969 5.02605469 -0.13335937 3.86460937 -0.10546875 2.66796875 C-0.07066406 1.78753906 -0.03585937 0.90710938 0 0 Z " fill="#F8F8F8" transform="translate(443,167)"/>
<path d="M0 0 C1.16208984 0.01353516 1.16208984 0.01353516 2.34765625 0.02734375 C4.23190843 0.05060612 6.11599832 0.0864636 8 0.125 C11.78076041 7.0154117 12.60865419 12.7699505 12.4375 20.5625 C12.4271875 21.60277344 12.416875 22.64304687 12.40625 23.71484375 C12.21195796 33.04086171 10.9325036 42.0146259 9 51.125 C13.02923899 52.46807966 16.78270817 52.58843866 21 52.125 C22.34789347 51.14471384 23.68212715 50.14528865 25 49.125 C27.71863401 48.85577605 30.25846729 48.98792336 33 49.125 C32.505 48.34125 32.01 47.5575 31.5 46.75 C30 44.125 30 44.125 30 42.125 C29.34 42.125 28.68 42.125 28 42.125 C28 41.135 28 40.145 28 39.125 C33.75914639 39.125 36.82746842 41.98320075 40.8125 45.74609375 C46.43424289 51.85973914 49.69130356 57.79019619 50 66.125 C46.94433539 63.16193129 44.02864172 60.10779839 41.1875 56.9375 C40.58292969 56.26332031 39.97835937 55.58914062 39.35546875 54.89453125 C38 53.125 38 53.125 38 51.125 C37.01 51.125 36.02 51.125 35 51.125 C34.56945312 51.89199219 34.13890625 52.65898437 33.6953125 53.44921875 C30.51215759 58.47332269 24.49506831 59.55772208 19 61.125 C13.59192735 62.15081044 10.13724877 61.5007204 5.4375 58.625 C4.27775263 57.8111422 3.12641955 56.98439366 2 56.125 C1.88785156 56.85074219 1.77570313 57.57648438 1.66015625 58.32421875 C0.97038613 61.25063993 -0.05510814 63.34787809 -1.5625 65.9375 C-2.01753906 66.72769531 -2.47257812 67.51789063 -2.94140625 68.33203125 C-3.29074219 68.92371094 -3.64007813 69.51539063 -4 70.125 C-4.33 70.125 -4.66 70.125 -5 70.125 C-5.51511537 62.35802599 -3.71574375 56.66110267 -1 49.4375 C2.25128086 40.34729794 4.2319106 32.84340587 3 23.125 C2.50371094 23.4859375 2.00742187 23.846875 1.49609375 24.21875 C-3.12193399 27.37337996 -6.21926054 28.93430352 -12 28.125 C-12.66 27.465 -13.32 26.805 -14 26.125 C-14 25.135 -14 24.145 -14 23.125 C-14.969375 23.310625 -15.93875 23.49625 -16.9375 23.6875 C-17.948125 23.831875 -18.95875 23.97625 -20 24.125 C-20.33 23.795 -20.66 23.465 -21 23.125 C-21 21.475 -21 19.825 -21 18.125 C-17.7 16.475 -14.4 14.825 -11 13.125 C-13.10375 13.0940625 -13.10375 13.0940625 -15.25 13.0625 C-16.03890625 13.05089844 -16.8278125 13.03929688 -17.640625 13.02734375 C-19.90691002 13.12114694 -21.8288895 13.49258937 -24 14.125 C-24 11.485 -24 8.845 -24 6.125 C-16.15742679 1.22339174 -9.14745802 -0.20609524 0 0 Z " fill="#0E0E0E" transform="translate(349,89.875)"/>
<path d="M0 0 C2.7294586 0.14143832 5.45848123 0.28799529 8.1875 0.4375 C8.95642578 0.47681641 9.72535156 0.51613281 10.51757812 0.55664062 C14.43251075 0.77507034 18.17120688 1.08692108 22 2 C25.3987524 12.19625719 24.139203 25.08357684 24.09765625 35.68359375 C24.09578409 37.11947072 24.09436398 38.55534835 24.09336853 39.9912262 C24.08960604 43.71466939 24.07983181 47.43807166 24.06866455 51.16149902 C24.05831317 54.98331143 24.05384194 58.80513065 24.04882812 62.62695312 C24.03820183 70.08465379 24.02120394 77.54232109 24 85 C19.5431971 81.42278428 16.5631937 78.34382738 13.9375 73.1875 C13.59952393 72.53442871 13.26154785 71.88135742 12.91333008 71.20849609 C2.18736914 49.72584814 -0.36620756 23.69081197 0 0 Z " fill="#F6F6F6" transform="translate(518,415)"/>
<path d="M0 0 C-0.27103293 8.06322962 -1.22401827 15.76014632 -2.80078125 23.65625 C-3.16482673 25.52219894 -3.52791583 27.38833468 -3.89013672 29.25463867 C-4.07517761 30.20591644 -4.26021851 31.15719421 -4.4508667 32.13729858 C-5.3252734 36.69569142 -6.14671418 41.26325572 -6.96484375 45.83203125 C-7.29040472 47.64510832 -7.61600721 49.45817793 -7.94165039 51.27124023 C-8.10424347 52.17703827 -8.26683655 53.0828363 -8.43435669 54.01608276 C-12.34381253 75.74442433 -16.5928637 97.32849304 -21.6875 118.8125 C-21.985354 120.07892334 -22.28320801 121.34534668 -22.59008789 122.65014648 C-22.87360107 123.82391846 -23.15711426 124.99769043 -23.44921875 126.20703125 C-23.82566528 127.77674683 -23.82566528 127.77674683 -24.2097168 129.37817383 C-25 132 -25 132 -27 135 C-27.70290878 106.06178613 -24.84162741 78.86523181 -19.86108398 50.34082031 C-18.70848341 43.64784304 -17.70327379 36.96102704 -16.8984375 30.21875 C-16.81092224 29.4880127 -16.72340698 28.75727539 -16.63323975 28.00439453 C-16.21376657 24.46440698 -15.81197569 20.92330536 -15.43164062 17.37890625 C-15.28662109 16.10917969 -15.14160156 14.83945312 -14.9921875 13.53125 C-14.87214355 12.41298828 -14.75209961 11.29472656 -14.62841797 10.14257812 C-13.9299667 6.64977907 -12.83762245 4.04624887 -11 1 C-6.87303206 -1.06348397 -4.38946949 -1.0192497 0 0 Z " fill="#F1F1F1" transform="translate(458,409)"/>
<path d="M0 0 C5.31623503 0.41695961 8.20685618 1.20685618 12 5 C13.43069857 9.13611729 13.9239407 13.39348054 14.62564087 17.70625305 C14.86641179 19.18148771 15.10847323 20.65651263 15.35214233 22.13127136 C17.40893251 34.59459604 19.08642432 47.07300918 20.5 59.625 C20.6590834 61.0303299 20.6590834 61.0303299 20.82138062 62.46405029 C24.08802499 91.5447422 26.80321818 120.70931045 26 150 C23.13528374 147.13528374 23.11518813 143.8837867 22.51953125 140.0234375 C22.38617371 139.20371964 22.25281616 138.38400177 22.11541748 137.53944397 C21.82630923 135.75748071 21.5408501 133.97492252 21.25857544 132.19186401 C20.49562764 127.37402375 19.70656608 122.56043134 18.921875 117.74609375 C18.76155289 116.75752884 18.60123077 115.76896393 18.43605042 114.7504425 C17.02884492 106.09788016 15.52260365 97.46475356 13.98822021 88.83398438 C11.09283466 72.53514302 8.35494093 56.21263556 5.6875 39.875 C5.51646759 38.82988251 5.34543518 37.78476501 5.16921997 36.70797729 C0 5.08247393 0 5.08247393 0 0 Z " fill="#F2F2F2" transform="translate(473,400)"/>
<path d="M0 0 C2.5390028 0.9696809 3.74998497 1.49629873 4.98095703 3.97631836 C6.7233944 10.46118733 7.8983389 16.92217257 8.875 23.5625 C10.00597483 30.80240214 11.2986964 37.81859117 13.5 44.8125 C15.34135523 50.66379235 16.90370127 56.49934342 18.1875 62.5 C18.3421875 63.19843018 18.496875 63.89686035 18.65625 64.61645508 C21.46842245 78.16837525 22.33500577 91.74758164 22.26074219 105.5534668 C22.24977084 107.98835815 22.26084792 110.42254915 22.2734375 112.85742188 C22.27211974 114.41406412 22.26956536 115.97070593 22.265625 117.52734375 C22.26967346 118.25114731 22.27372192 118.97495087 22.27789307 119.72068787 C22.23007755 124.76992245 22.23007755 124.76992245 20 127 C18.34578479 120.77107458 17.17947331 114.54270891 16.125 108.1875 C12.19379489 85.16265516 7.15264377 62.29347552 0.05078125 40.0234375 C-2.0401395 32.52267419 -2.28747558 25.32007031 -2.3125 17.5625 C-2.31789795 16.5194873 -2.3232959 15.47647461 -2.32885742 14.40185547 C-2.28076759 9.22404366 -2.08207356 4.83605134 0 0 Z " fill="#0C0C0C" transform="translate(88,509)"/>
<path d="M0 0 C6.9861877 3.46721908 13.02862274 10.47679162 18.109375 16.296875 C18.109375 16.956875 18.109375 17.616875 18.109375 18.296875 C16.53515625 19.515625 16.53515625 19.515625 14.421875 20.796875 C13.73738281 21.2196875 13.05289063 21.6425 12.34765625 22.078125 C5.60007075 25.75220297 -0.27194337 25.63016801 -7.828125 25.609375 C-8.99537109 25.62548828 -10.16261719 25.64160156 -11.36523438 25.65820312 C-18.65721096 25.6623581 -23.52245233 25.2098892 -29.203125 20.296875 C-31.50786325 17.56533338 -31.86916649 15.52433521 -32.203125 11.984375 C-31.82853354 7.56419579 -30.72676513 5.66958219 -27.890625 2.296875 C-20.96679669 -3.28471404 -8.23255888 -2.00251432 0 0 Z " fill="#F9F9F9" transform="translate(588.890625,702.703125)"/>
<path d="M0 0 C4.13601303 3.48223393 7.59076163 7.36918193 8.4375 12.8125 C8 16 8 16 5.625 18.625 C-0.85952331 23.31754732 -8.16872238 25.89616446 -16.19921875 25.578125 C-24.6537104 23.83298586 -31.41898413 17.26673795 -37 11 C-35.18088007 4.99690424 -31.30608055 0.62473857 -26.25 -2.9375 C-17.45277976 -5.81351431 -8.24147413 -3.87960161 0 0 Z " fill="#F7F7F7" transform="translate(658,667)"/>
<path d="M0 0 C6.87865954 -0.02510319 13.75729123 -0.04304641 20.63598633 -0.05493164 C22.96606919 -0.0598971 25.29614905 -0.0666717 27.6262207 -0.07543945 C42.45184816 -0.12974578 57.19887566 0.12212656 72 1 C71.67 4.63 71.34 8.26 71 12 C47.57 12 24.14 12 0 12 C0 8.04 0 4.08 0 0 Z " fill="#F8F8F8" transform="translate(359,456)"/>
<path d="M0 0 C0.74693115 0.00829834 1.4938623 0.01659668 2.26342773 0.02514648 C11.51490076 0.30695287 18.52600022 3.24758303 25.30859375 9.6328125 C26.6875 11.4375 26.6875 11.4375 26.9375 14.6875 C25.10003238 18.72992876 23.15317165 19.83516919 19.12109375 21.4921875 C14.82156059 22.67590425 10.87753801 22.82126525 6.4375 22.8125 C5.59356689 22.81088867 4.74963379 22.80927734 3.88012695 22.80761719 C-2.54239243 22.68130908 -7.697179 21.700913 -13.3125 18.4375 C-14.4675 17.81875 -15.6225 17.2 -16.8125 16.5625 C-19.76075141 14.0564863 -20.46533522 12.16502504 -21.3125 8.4375 C-14.68190167 2.45378932 -8.92370343 -0.12810109 0 0 Z " fill="#F8F8F8" transform="translate(628.3125,699.5625)"/>
<path d="M0 0 C6.92525242 6.53991783 9.50743104 18.09793278 12.25 27 C12.49596924 27.78109131 12.74193848 28.56218262 12.99536133 29.36694336 C16.74752392 42.00056153 17.35018823 54.71616026 17.31567383 67.79711914 C17.31248201 70.32676114 17.33618689 72.85526442 17.36132812 75.38476562 C17.3914215 83.47630703 17.34495135 90.47165302 14 98 C13.67 98 13.34 98 13 98 C11.28730835 90.23262825 10.25564138 82.45534967 9.3125 74.5625 C8.14496335 64.97049977 6.78315015 55.42845662 5.18359375 45.8984375 C5.02494339 44.94986374 4.86629303 44.00128998 4.70283508 43.02397156 C3.91431302 38.32935657 3.11005941 33.63803176 2.28637695 28.94946289 C0.60459226 19.17223756 -0.48514937 9.95281858 0 0 Z " fill="#0D0D0D" transform="translate(564,385)"/>
<path d="M0 0 C4.8398939 2.19909742 9.14530792 5.55671261 11.57421875 10.3515625 C12.04076249 13.7513759 11.94419238 16.94643484 11.57421875 20.3515625 C5.85799994 23.8255841 -1.58684413 23.05546623 -7.9609375 21.88671875 C-15.39450159 19.6710709 -22.28971342 15.15755222 -27.42578125 9.3515625 C-26.02803797 5.93728333 -24.59585596 4.5113303 -21.42578125 2.6640625 C-20.72453125 2.24769531 -20.02328125 1.83132813 -19.30078125 1.40234375 C-13.54491828 -1.82333779 -6.34137613 -1.69511826 0 0 Z " fill="#F5F5F5" transform="translate(626.42578125,729.6484375)"/>
<path d="M0 0 C1.09441406 -0.02416992 1.09441406 -0.02416992 2.2109375 -0.04882812 C9.5031517 -0.05533903 15.30604154 2.13351413 20.625 7.3125 C25.625 14.24087466 25.625 14.24087466 25.625 17.3125 C21.70766193 17.47572242 18.86055818 17.37723355 15.04296875 16.328125 C10.01507254 15.02261576 5.11115114 14.92988576 -0.0625 14.9375 C-1.02986084 14.93693604 -1.99722168 14.93637207 -2.99389648 14.93579102 C-10.83047187 15.05568846 -17.04813726 16.52717355 -24.375 19.3125 C-26.03446706 19.68000233 -27.69986529 20.02472821 -29.375 20.3125 C-27.77739897 14.35780525 -25.37710504 9.38291727 -20.22265625 5.828125 C-17.97074134 4.55416315 -15.72786878 3.38821227 -13.375 2.3125 C-12.62992188 1.94382812 -11.88484375 1.57515625 -11.1171875 1.1953125 C-7.41279094 0.00272899 -3.85007433 -0.01682725 0 0 Z " fill="#0B0B0B" transform="translate(231.375,394.6875)"/>
<path d="M0 0 C1.73030291 0.28484846 3.45920714 0.57819938 5.1875 0.875 C6.15042969 1.03742188 7.11335938 1.19984375 8.10546875 1.3671875 C9.06066406 1.57601563 10.01585937 1.78484375 11 2 C11.8971875 2.1753125 12.794375 2.350625 13.71875 2.53125 C16.37741221 4.24299142 16.52632359 4.84485648 17.36328125 7.7890625 C17.70692014 9.39545662 18.02171918 11.00820185 18.3125 12.625 C18.47782227 13.46716064 18.64314453 14.30932129 18.81347656 15.17700195 C20.26197745 23.16250039 20.40189133 30.90635523 20 39 C17.89695523 39.1080023 15.79233091 39.18558987 13.6875 39.25 C12.51574219 39.29640625 11.34398437 39.3428125 10.13671875 39.390625 C7 39 7 39 5.36108398 37.25634766 C3.92290385 34.87219326 3.45495443 33.24932705 3.0859375 30.5078125 C2.96516846 29.64373779 2.84439941 28.77966309 2.7199707 27.8894043 C2.60613037 26.97715088 2.49229004 26.06489746 2.375 25.125 C2.25020264 24.19276611 2.12540527 23.26053223 1.99682617 22.30004883 C1.0342206 14.88217326 0.36421473 7.47268162 0 0 Z " fill="#F2F2F2" transform="translate(493,409)"/>
<path d="M0 0 C6.45954549 -0.0253794 12.9190781 -0.04287928 19.37866211 -0.05493164 C21.5756071 -0.05995675 23.77254876 -0.06677788 25.96948242 -0.07543945 C29.12940292 -0.08758475 32.28927915 -0.09324659 35.44921875 -0.09765625 C36.42960617 -0.10281754 37.40999359 -0.10797882 38.42008972 -0.11329651 C39.34066666 -0.11337204 40.26124359 -0.11344757 41.2097168 -0.11352539 C42.0157988 -0.115746 42.8218808 -0.11796661 43.65238953 -0.12025452 C46 0 46 0 51 1 C51.495 6.445 51.495 6.445 52 12 C22.62721085 12.18884583 22.62721085 12.18884583 11.3125 11.6875 C10.59658691 11.66502197 9.88067383 11.64254395 9.14306641 11.61938477 C6.52356023 11.47602385 4.42194736 11.23228854 2.10546875 9.95703125 C0.34559986 6.84150363 0.39313314 3.53775278 0 0 Z " fill="#EEEEEE" transform="translate(275,455)"/>
<path d="M0 0 C2.54236473 2.20070307 3.32281224 2.95042487 3.5859375 6.3515625 C3.51632812 7.10179688 3.44671875 7.85203125 3.375 8.625 C2.77171875 8.42003906 2.1684375 8.21507813 1.546875 8.00390625 C0.74765625 7.73449219 -0.0515625 7.46507813 -0.875 7.1875 C-1.66390625 6.92066406 -2.4528125 6.65382813 -3.265625 6.37890625 C-11.44751928 3.76449301 -23.30842621 2.44308421 -31.3125 6.3125 C-33.06423068 7.38403309 -33.06423068 7.38403309 -34.625 8.625 C-35.17285156 9.03363281 -35.72070312 9.44226563 -36.28515625 9.86328125 C-39.28804648 12.24641035 -41.91136658 14.91136658 -44.625 17.625 C-46.275 12.015 -47.925 6.405 -49.625 0.625 C-34.13029731 -6.22149654 -14.65179837 -11.77789046 0 0 Z " fill="#101010" transform="translate(419.625,90.375)"/>
<path d="M0 0 C1.28648437 -0.03738281 2.57296875 -0.07476563 3.8984375 -0.11328125 C9.01231445 0.47100867 12.04199888 2.39449167 15.3046875 6.34765625 C15.69914063 7.01667969 16.09359375 7.68570313 16.5 8.375 C16.90992188 9.04660156 17.31984375 9.71820312 17.7421875 10.41015625 C18.625 12.3125 18.625 12.3125 18.625 15.3125 C10.24740048 20.83185969 3.3424802 20.89554881 -6.375 20.3125 C-7.40979213 17.90098443 -8.4279372 15.48455531 -9.4375 13.0625 C-9.87932617 12.03962891 -9.87932617 12.03962891 -10.33007812 10.99609375 C-11.85821625 7.29260605 -12.61629373 5.1284653 -11.375 1.3125 C-7.60254058 0.13480328 -3.93409891 0.07459868 0 0 Z " fill="#F6F6F6" transform="translate(600.375,677.6875)"/>
<path d="M0 0 C2.18530515 2.15174245 3.63846159 4.01137696 5.1015625 6.69140625 C5.52050781 7.43261719 5.93945312 8.17382812 6.37109375 8.9375 C7.40025163 11.53448138 7.45996271 13.48532283 7.2890625 16.25390625 C0.68965034 18.4537103 -8.92526179 18.59430519 -15.3359375 15.62890625 C-20.03132166 12.75043161 -23.74653846 8.43277646 -25.7109375 3.25390625 C-25.7109375 2.26390625 -25.7109375 1.27390625 -25.7109375 0.25390625 C-6.96429835 -4.48565038 -6.96429835 -4.48565038 0 0 Z " fill="#F3F3F3" transform="translate(666.7109375,730.74609375)"/>
<path d="M0 0 C4.63586669 1.69387437 7.51483632 3.69875516 10 8 C10.74278816 12.11454563 10.39790713 15.14992568 8.625 18.9375 C6.59298595 21.51659475 5.67268101 21.91935994 2.42578125 22.30859375 C-7.01300734 22.69940934 -7.01300734 22.69940934 -11.1875 19.125 C-14.11466119 16.17647267 -14.93540408 14.48446936 -15.5 10.25 C-15.46155656 7.61662408 -15.2237995 6.3247822 -13.71875 4.140625 C-9.26183445 -0.11370348 -6.03710416 -0.86244345 0 0 Z " fill="#080808" transform="translate(406,588)"/>
<path d="M0 0 C0.804375 0.78375 1.60875 1.5675 2.4375 2.375 C2.92992187 2.84550781 3.42234375 3.31601562 3.9296875 3.80078125 C5.375 5.3125 5.375 5.3125 7.4375 8.375 C7.25 11.25 7.25 11.25 6.4375 13.375 C-1.2502472 15.9375824 -11.69489283 15.77583343 -19.26171875 13.03515625 C-21.82906931 11.60885038 -24.22013548 10.14361681 -26.5625 8.375 C-26.5625 7.055 -26.5625 5.735 -26.5625 4.375 C-19.34523899 -2.52149385 -9.27171408 -4.22920291 0 0 Z " fill="#F6F6F6" transform="translate(583.5625,737.625)"/>
<path d="M0 0 C3 2.4375 3 2.4375 5 5 C5.33 5.33 5.66 5.66 6 6 C6.64170796 10.95031853 6.77057723 14.78199083 4.0625 19.0625 C0.05613335 21.59714012 -3.26833914 22.43318022 -8 22 C-11.21577038 20.42134908 -13.17247175 19.05321778 -15.375 16.25 C-16.35883935 12.70817835 -16.87653921 9.57463648 -16 6 C-12.17420019 0.33303404 -6.59772896 -1.70503108 0 0 Z " fill="#F6F6F6" transform="translate(467,294)"/>
<path d="M0 0 C5.02119424 3.65273459 5.24996824 8.56467868 6.1875 14.3125 C6.35185547 15.23740234 6.51621094 16.16230469 6.68554688 17.11523438 C8.03400348 24.79652365 9.1369507 32.19381012 9 40 C4.38 40 -0.24 40 -5 40 C-5.1967009 30.83754503 -4.55581801 22.2822487 -3.0625 13.25 C-2.88009766 12.07695312 -2.69769531 10.90390625 -2.50976562 9.6953125 C-1.146049 1.146049 -1.146049 1.146049 0 0 Z " fill="#EAEAEA" transform="translate(464,409)"/>
<path d="M0 0 C0.95377184 4.00320153 1.1157616 7.72211747 1.09765625 11.83203125 C1.09443359 13.12431641 1.09121094 14.41660156 1.08789062 15.74804688 C1.07953665 17.10286526 1.07107172 18.45768297 1.0625 19.8125 C1.05748 21.18684735 1.05291797 22.56119645 1.04882812 23.93554688 C1.03705668 27.29040924 1.02061283 30.64518221 1 34 C-2.78436528 32.53975068 -4.00853175 30.78305508 -5.875 27.23828125 C-6.64070313 25.80645508 -6.64070313 25.80645508 -7.421875 24.34570312 C-7.94265625 23.34474609 -8.4634375 22.34378906 -9 21.3125 C-10.04117033 19.34999701 -11.08282655 17.38775172 -12.125 15.42578125 C-12.61484375 14.49330566 -13.1046875 13.56083008 -13.609375 12.60009766 C-14.81790446 10.34047008 -16.07515897 8.12575331 -17.375 5.91796875 C-19 3 -19 3 -19 1 C-12.63849395 0.34513908 -6.39628979 -0.12068471 0 0 Z " fill="#0A0A0A" transform="translate(470,582)"/>
<path d="M0 0 C7.52333105 -0.18960008 14.49773335 -0.03264389 21.4375 3.15234375 C23.4375 5.15234375 23.4375 5.15234375 23.4375 9.15234375 C22.57753418 9.14448853 22.57753418 9.14448853 21.70019531 9.13647461 C4.43373674 8.11447519 4.43373674 8.11447519 -12.19921875 11.21484375 C-15.06925184 12.35336927 -16.64111078 11.98702638 -19.5625 11.15234375 C-19.35227719 7.47344462 -18.58273532 6.1746026 -16.0625 3.40234375 C-11.15562988 -0.28069524 -5.89957198 0.25228433 0 0 Z " fill="#121212" transform="translate(369.5625,154.84765625)"/>
<path d="M0 0 C2 2 2 2 2 5 C-0.97 4.34 -3.94 3.68 -7 3 C-7.103125 3.7425 -7.20625 4.485 -7.3125 5.25 C-8.05591421 8.22365686 -8.92651632 9.76701758 -11 12 C-14.92296433 13.30765478 -17.86002433 13.1971417 -22 13 C-24 11 -24 11 -24.125 7.875 C-24.08375 6.92625 -24.0425 5.9775 -24 5 C-25.98 5.33 -27.96 5.66 -30 6 C-29.6465342 3.43737294 -29.22529498 2.22529498 -27.375 0.375 C-19.40648049 -4.2383534 -7.67472389 -5.53387986 0 0 Z " fill="#0C0C0C" transform="translate(411,102)"/>
<path d="M0 0 C5.50648298 0.48946515 5.50648298 0.48946515 7.8125 2.875 C10.26772391 7.26855858 10.11797453 11.30147406 10.0625 16.1875 C10.05798828 16.93708984 10.05347656 17.68667969 10.04882812 18.45898438 C10.03706354 20.30602383 10.01912865 22.15302213 10 24 C7.3533407 24.7313739 5.61836373 25.2105068 2.98046875 24.3125 C0.72854314 22.66403158 -0.56645672 21.4241378 -2 19 C-2.90106191 12.70621905 -3.50011353 5.58317704 0 0 Z " fill="#0A0A0A" transform="translate(619,537)"/>
<path d="M0 0 C2.65076381 4.58339241 2.51623592 8.82944659 2 14 C0.2151092 19.25551179 -2.54221523 21.90684322 -7 25 C-8.32 25 -9.64 25 -11 25 C-11.1875 22.1875 -11.1875 22.1875 -11 19 C-10.50886719 18.55011719 -10.01773437 18.10023437 -9.51171875 17.63671875 C-7.39596702 15.34602114 -7.6670591 13.6953144 -7.625 10.625 C-7.24536793 4.52665502 -7.24536793 4.52665502 -4.5625 1.8125 C-2 0 -2 0 0 0 Z " fill="#101010" transform="translate(452,104)"/>
<path d="M0 0 C5.61 0 11.22 0 17 0 C17.33 2.97 17.66 5.94 18 9 C14.23699626 10.25433458 10.72789091 10.10695422 6.8125 10.0625 C6.06291016 10.05798828 5.31332031 10.05347656 4.54101562 10.04882812 C2.69397617 10.03706354 0.84697787 10.01912865 -1 10 C-1.125 3.375 -1.125 3.375 0 0 Z " fill="#EDEDED" transform="translate(457,458)"/>
<path d="M0 0 C4.95 0 9.9 0 15 0 C15 3.63 15 7.26 15 11 C10.05 11 5.1 11 0 11 C0 7.37 0 3.74 0 0 Z " fill="#F7F7F7" transform="translate(336,456)"/>
<path d="M0 0 C3.60401481 -0.08701039 7.20776012 -0.14039388 10.8125 -0.1875 C12.34874023 -0.22520508 12.34874023 -0.22520508 13.91601562 -0.26367188 C15.39038086 -0.27817383 15.39038086 -0.27817383 16.89453125 -0.29296875 C18.25348511 -0.31653442 18.25348511 -0.31653442 19.63989258 -0.34057617 C22.42444206 0.06124927 23.27599535 0.83688562 25 3 C19.67257053 5.6462592 15.60227837 6.44954306 9.6875 6.3125 C8.97271484 6.31572266 8.25792969 6.31894531 7.52148438 6.32226562 C2.26779762 6.26779762 2.26779762 6.26779762 0 4 C0 2.68 0 1.36 0 0 Z " fill="#1A1A19" transform="translate(357,171)"/>
<path d="M0 0 C5.15171623 -0.09038099 9.91913204 0.15318867 15 1 C15 3.31 15 5.62 15 8 C12.23547967 9.38226016 9.9538637 9.09525387 6.875 9.0625 C5.77929688 9.05347656 4.68359375 9.04445313 3.5546875 9.03515625 C2.29011719 9.01775391 2.29011719 9.01775391 1 9 C0.67 6.03 0.34 3.06 0 0 Z " fill="#EFEFEF" transform="translate(500,458)"/>
<path d="M0 0 C2.64 0 5.28 0 8 0 C8.67119549 1.4562545 9.33681807 2.91507867 10 4.375 C10.556875 5.59316406 10.556875 5.59316406 11.125 6.8359375 C12 9 12 9 12 11 C9.36 11 6.72 11 4 11 C3.32591692 9.73308493 2.66099503 8.46129251 2 7.1875 C1.62875 6.47980469 1.2575 5.77210938 0.875 5.04296875 C0 3 0 3 0 0 Z " fill="#1A1A1A" transform="translate(494,631)"/>
<path d="M0 0 C1.98 0 3.96 0 6 0 C6.67667998 1.24460783 7.34094719 2.49596896 8 3.75 C8.556875 4.79414062 8.556875 4.79414062 9.125 5.859375 C10 8 10 8 10 12 C7.69 12 5.38 12 3 12 C2.49440092 10.56445975 1.9957251 9.1264798 1.5 7.6875 C1.2215625 6.88699219 0.943125 6.08648438 0.65625 5.26171875 C0 3 0 3 0 0 Z " fill="#222222" transform="translate(405,655)"/>
<path d="M0 0 C3.3125 -0.3125 3.3125 -0.3125 7 0 C9.56110377 2.80895252 9.97306037 4.52406656 10.1875 8.3125 C10.125625 9.199375 10.06375 10.08625 10 11 C7.69 11 5.38 11 3 11 C2.49384702 9.73160474 1.99530901 8.46016898 1.5 7.1875 C1.2215625 6.47980469 0.943125 5.77210938 0.65625 5.04296875 C0 3 0 3 0 0 Z " fill="#1C1C1C" transform="translate(419,655)"/>
<path d="M0 0 C2.31 0 4.62 0 7 0 C9.15305957 3.85756507 10.39253254 6.55129785 10 11 C7.69 11 5.38 11 3 11 C2.49384702 9.73160474 1.99530901 8.46016898 1.5 7.1875 C1.2215625 6.47980469 0.943125 5.77210938 0.65625 5.04296875 C0 3 0 3 0 0 Z " fill="#121212" transform="translate(479,631)"/>
<path d="M0 0 C2.64 0 5.28 0 8 0 C10.09350689 3.4019487 10.17942163 6.05272412 10 10 C7.69 10 5.38 10 3 10 C2.49818809 8.52144705 1.99859924 7.04213942 1.5 5.5625 C1.2215625 4.73878906 0.943125 3.91507813 0.65625 3.06640625 C0 1 0 1 0 0 Z " fill="#131313" transform="translate(500,653)"/>
<path d="M0 0 C2.64 0 5.28 0 8 0 C8.66 3.3 9.32 6.6 10 10 C7.36 10 4.72 10 2 10 C1.34 6.7 0.68 3.4 0 0 Z " fill="#121313" transform="translate(323,653)"/>
<path d="M0 0 C1.98 0 3.96 0 6 0 C8.60018816 3.90028225 8.15085514 7.47434569 8 12 C6.02 12 4.04 12 2 12 C1.34 8.04 0.68 4.08 0 0 Z " fill="#141515" transform="translate(356,652)"/>
<path d="M0 0 C0 8.58 0 17.16 0 26 C-2.41191153 23.58808847 -2.41136534 22.53242518 -2.8515625 19.2109375 C-2.98046875 18.26992188 -3.109375 17.32890625 -3.2421875 16.359375 C-3.36851562 15.37453125 -3.49484375 14.3896875 -3.625 13.375 C-3.7590625 12.38242187 -3.893125 11.38984375 -4.03125 10.3671875 C-4.36170724 7.91236225 -4.68428484 5.45675748 -5 3 C-1.125 0 -1.125 0 0 0 Z " fill="#E8E8E8" transform="translate(499,524)"/>
<path d="M0 0 C2.31 0 4.62 0 7 0 C7.66 3.3 8.32 6.6 9 10 C6.36 10 3.72 10 1 10 C-0.60725635 6.78548731 -0.05748185 3.56387464 0 0 Z " fill="#171717" transform="translate(274,628)"/>
<path d="M0 0 C2.64 0 5.28 0 8 0 C8.99 2.97 9.98 5.94 11 9 C8.03 9 5.06 9 2 9 C1.34 6.03 0.68 3.06 0 0 Z " fill="#101010" transform="translate(436,655)"/>
<path d="M0 0 C2.64 0 5.28 0 8 0 C8.33 2.97 8.66 5.94 9 9 C6.69 9.33 4.38 9.66 2 10 C0.68373308 6.38026598 0 3.90432869 0 0 Z " fill="#141414" transform="translate(257,629)"/>
<path d="M0 0 C2.64 0 5.28 0 8 0 C8.66 3.3 9.32 6.6 10 10 C7.69 10 5.38 10 3 10 C2.49818809 8.52144705 1.99859924 7.04213942 1.5 5.5625 C1.2215625 4.73878906 0.943125 3.91507813 0.65625 3.06640625 C0 1 0 1 0 0 Z " fill="#0C0C0C" transform="translate(486,653)"/>
<path d="M0 0 C1.134375 0.020625 2.26875 0.04125 3.4375 0.0625 C5.4375 5.6875 5.4375 5.6875 5.4375 9.0625 C2.7975 9.0625 0.1575 9.0625 -2.5625 9.0625 C-2.92372881 7.75192607 -3.27630311 6.43896376 -3.625 5.125 C-3.92083984 4.02865234 -3.92083984 4.02865234 -4.22265625 2.91015625 C-4.33480469 2.30042969 -4.44695312 1.69070313 -4.5625 1.0625 C-3.5625 0.0625 -3.5625 0.0625 0 0 Z " fill="#121212" transform="translate(279.5625,652.9375)"/>
<path d="M0 0 C2.31 0 4.62 0 7 0 C7.50403768 1.29009643 8.00309926 2.58213789 8.5 3.875 C8.7784375 4.59429688 9.056875 5.31359375 9.34375 6.0546875 C10 8 10 8 10 10 C8.02 10 6.04 10 4 10 C0 3.375 0 3.375 0 0 Z " fill="#161616" transform="translate(428,632)"/>
<path d="M0 0 C2.31 0 4.62 0 7 0 C7.66 3.3 8.32 6.6 9 10 C6.69 10 4.38 10 2 10 C1.34 6.7 0.68 3.4 0 0 Z " fill="#151515" transform="translate(340,653)"/>
<path d="M0 0 C2.31 0 4.62 0 7 0 C8.85776765 3.13498292 9.20140476 5.37471432 9 9 C6.36 9 3.72 9 1 9 C0.67 6.03 0.34 3.06 0 0 Z " fill="#0D0D0D" transform="translate(289,628)"/>
<path d="M0 0 C1.98 0 3.96 0 6 0 C8.09350689 3.4019487 8.17942163 6.05272412 8 10 C6.02 10 4.04 10 2 10 C-0.09350689 6.5980513 -0.17942163 3.94727588 0 0 Z " fill="#151515" transform="translate(336,628)"/>
<path d="M0 0 C2.31 0 4.62 0 7 0 C8.1577506 3.47325181 8.06866652 6.36067448 8 10 C6.02 10 4.04 10 2 10 C1.34 6.7 0.68 3.4 0 0 Z " fill="#161717" transform="translate(350,628)"/>
<path d="M0 0 C2.31 0 4.62 0 7 0 C7.99 2.97 8.98 5.94 10 9 C7.36 9 4.72 9 2 9 C1.34 6.03 0.68 3.06 0 0 Z " fill="#0E0E0E" transform="translate(293,653)"/>
<path d="M0 0 C2.31 0 4.62 0 7 0 C7.66 3.3 8.32 6.6 9 10 C7.02 10 5.04 10 3 10 C0 3.375 0 3.375 0 0 Z " fill="#0A0A0A" transform="translate(470,654)"/>
<path d="M0 0 C2.31 0 4.62 0 7 0 C9 5.625 9 5.625 9 9 C6.69 9 4.38 9 2 9 C1.34 6.03 0.68 3.06 0 0 Z " fill="#101010" transform="translate(414,632)"/>
<path d="M0 0 C1.65 0 3.3 0 5 0 C5.50403768 1.29009643 6.00309926 2.58213789 6.5 3.875 C6.7784375 4.59429688 7.056875 5.31359375 7.34375 6.0546875 C8 8 8 8 8 10 C5.69 10 3.38 10 1 10 C-0.60725635 6.78548731 -0.05748185 3.56387464 0 0 Z " fill="#111111" transform="translate(320,628)"/>
<path d="M0 0 C4.72631016 4.72631016 4.10158852 13.80236383 4.13623047 20.2043457 C4.1201301 23.1370632 4.07209451 26.06815675 4 29 C3.67 29 3.34 29 3 29 C2.92652344 28.06027344 2.92652344 28.06027344 2.8515625 27.1015625 C2.77679688 26.28429687 2.70203125 25.46703125 2.625 24.625 C2.55539062 23.81289063 2.48578125 23.00078125 2.4140625 22.1640625 C2.17107412 19.79665809 2.17107412 19.79665809 0 18 C-0.22705078 16.12060547 -0.22705078 16.12060547 -0.1953125 13.8671875 C-0.18886719 13.06152344 -0.18242187 12.25585938 -0.17578125 11.42578125 C-0.15064453 10.16314453 -0.15064453 10.16314453 -0.125 8.875 C-0.11597656 8.02550781 -0.10695313 7.17601562 -0.09765625 6.30078125 C-0.07405647 4.20040116 -0.03818483 2.10016556 0 0 Z " fill="#313131" transform="translate(412,318)"/>
<path d="M0 0 C1.98 0 3.96 0 6 0 C6.66 3.3 7.32 6.6 8 10 C6.02 10 4.04 10 2 10 C-0.09350689 6.5980513 -0.17942163 3.94727588 0 0 Z " fill="#191818" transform="translate(401,632)"/>
<path d="M0 0 C1.98 0 3.96 0 6 0 C6.66 3.3 7.32 6.6 8 10 C6.02 10 4.04 10 2 10 C-0.09350689 6.5980513 -0.17942163 3.94727588 0 0 Z " fill="#111111" transform="translate(464,632)"/>
<path d="M0 0 C2.31 0 4.62 0 7 0 C7.33 2.97 7.66 5.94 8 9 C6.02 9 4.04 9 2 9 C0 3.375 0 3.375 0 0 Z " fill="#101010" transform="translate(260,654)"/>
<path d="M0 0 C9.59453303 1.55808656 9.59453303 1.55808656 13 6 C7.87416389 6.10251672 3.05002222 6.03590199 -2 5 C-1.34 3.35 -0.68 1.7 0 0 Z " fill="#2E2E2E" transform="translate(382,240)"/>
<path d="M0 0 C2.30142435 1.78174788 3.80034391 3.16304165 4.48828125 6.046875 C4.72323102 8.0246611 4.86751458 10.01271872 5 12 C4.67 11.01 4.34 10.02 4 9 C2.35 9 0.7 9 -1 9 C-1.33 9.66 -1.66 10.32 -2 11 C-1.85957123 9.35369672 -1.71250671 7.70795821 -1.5625 6.0625 C-1.48128906 5.14597656 -1.40007812 4.22945313 -1.31640625 3.28515625 C-1 1 -1 1 0 0 Z " fill="#C7C7C7" transform="translate(464,409)"/>
<path d="M0 0 C0.33 0 0.66 0 1 0 C1 3.63 1 7.26 1 11 C-0.98 11 -2.96 11 -5 11 C-4.72285156 10.45730469 -4.44570313 9.91460937 -4.16015625 9.35546875 C-3.79792969 8.64003906 -3.43570312 7.92460938 -3.0625 7.1875 C-2.52302734 6.12595703 -2.52302734 6.12595703 -1.97265625 5.04296875 C-0.89269484 2.88189715 -0.89269484 2.88189715 0 0 Z " fill="#B1B1B1" transform="translate(399,56)"/>
</svg>
